<svg width="96" height="75" viewBox="0 0 96 75" fill="none" xmlns="http://www.w3.org/2000/svg">
<path d="M96 14.6465C96 16.33 95.4219 17.7609 94.2658 18.9394L49.4245 64.6465L41.0013 73.2323C39.8452 74.4108 38.4413 75 36.7897 75C35.1381 75 33.7342 74.4108 32.5781 73.2323L24.1548 64.6465L1.73419 41.7929C0.578065 40.6145 0 39.1835 0 37.5C0 35.8165 0.578065 34.3855 1.73419 33.2071L10.1574 24.6212C11.3135 23.4428 12.7174 22.8535 14.369 22.8535C16.0206 22.8535 17.4245 23.4428 18.5806 24.6212L36.7897 43.2449L77.4194 1.76768C78.5755 0.589226 79.9794 0 81.631 0C83.2826 0 84.6865 0.589226 85.8426 1.76768L94.2658 10.3535C95.4219 11.532 96 12.963 96 14.6465Z" fill="#61C028"/>
</svg>
