<svg width="33" height="35" viewBox="0 0 33 35" fill="none" xmlns="http://www.w3.org/2000/svg">
<path d="M3.44615 0H18.9538C19.8678 0 20.7444 0.368749 21.3906 1.02513C22.0369 1.6815 22.4 2.57174 22.4 3.5V7H18.9538V3.5H3.44615V31.5H18.9538V28H22.4V31.5C22.4 32.4283 22.0369 33.3185 21.3906 33.9749C20.7444 34.6313 19.8678 35 18.9538 35H3.44615C2.53218 35 1.65563 34.6313 1.00935 33.9749C0.363076 33.3185 0 32.4283 0 31.5V3.5C0 2.57174 0.363076 1.6815 1.00935 1.02513C1.65563 0.368749 2.53218 0 3.44615 0Z" fill="white"/>
<path d="M20.8993 24.0342L23.3851 26.6004L32.1999 17.5004L23.3851 8.40039L20.8993 10.9666L25.4478 15.6804H8.3999V19.3204H25.4478L20.8993 24.0342Z" fill="white"/>
</svg>
