<svg width="120" height="120" viewBox="0 0 120 120" fill="none" xmlns="http://www.w3.org/2000/svg">
<path d="M26.5097 56.1949L6 113.946L63.7511 93.4903M16.7946 11.3973H16.8486M113.946 38.3838H114M76.1649 6H76.2189M113.946 103.151H114M113.946 6L101.856 10.048C98.4147 11.1943 95.4782 13.5003 93.5487 16.5718C91.6191 19.6433 90.8163 23.2897 91.2774 26.8876C91.8171 31.5292 88.2009 35.6852 83.4513 35.6852H81.4003C76.7586 35.6852 72.7646 38.9235 71.901 43.4573L70.7676 49.1784M113.946 65.3703L109.52 63.5892C104.879 61.7541 99.6972 64.6687 98.8336 69.5802C98.2399 73.3583 94.9475 76.1649 91.1154 76.1649H86.9595M54.5757 6L56.3568 10.4258C58.1919 15.0675 55.2774 20.2489 50.3658 21.1124C46.5877 21.6522 43.7811 24.9985 43.7811 28.8306V32.9865" stroke="#00ACAC" stroke-width="10.7946" stroke-linecap="round" stroke-linejoin="round"/>
<path d="M54.5757 65.3705C64.9925 75.7873 69.8501 87.8772 65.3703 92.357C60.8905 96.8368 48.8006 91.9792 38.3838 81.5624C27.967 71.1456 23.1094 59.0557 27.5892 54.5759C32.069 50.0961 44.1589 54.9537 54.5757 65.3705Z" stroke="#00ACAC" stroke-width="10.7946" stroke-linecap="round" stroke-linejoin="round"/>
<circle cx="16" cy="12" r="6" fill="#61C028"/>
<circle cx="76" cy="6" r="6" fill="#61C028"/>
<circle cx="114" cy="38" r="6" fill="#61C028"/>
<circle cx="114" cy="103" r="6" fill="#61C028"/>
</svg>
