<svg width="358" height="83" viewBox="0 0 358 83" fill="none" xmlns="http://www.w3.org/2000/svg">
<g clip-path="url(#clip0_735_1684)">
<path d="M1.00716 41.5C1.00716 39.9946 1.61146 38.5393 2.66898 37.4855L37.5671 2.70981C39.7829 0.501837 43.459 0.501837 45.6748 2.70981L80.573 37.4855C81.6305 38.5393 82.2348 39.9946 82.2348 41.5C82.2348 43.0055 81.6305 44.4607 80.573 45.5145L45.6748 80.3404C43.459 82.5484 39.7829 82.5484 37.5671 80.3404L2.66898 45.5647C1.61146 44.4607 1.00716 43.0556 1.00716 41.5ZM-1.81402e-06 41.5C-1.73944e-06 43.2062 0.654654 44.9123 1.96396 46.2672L36.8621 81.0429C39.4807 83.6524 43.7612 83.6524 46.3798 81.0429L81.278 46.2672C82.5873 44.9625 83.2419 43.2564 83.2419 41.5C83.2419 39.7437 82.5873 38.0877 81.278 36.7328L46.3798 1.95709C43.7612 -0.652338 39.4807 -0.652338 36.8621 1.95709L1.96396 36.783C0.654653 38.0877 -1.8886e-06 39.7938 -1.81402e-06 41.5Z" fill="#03ACAD"/>
<path d="M53.3796 41.5C53.3796 39.9946 53.9839 38.5393 55.0414 37.4855L89.9396 2.70981C92.1553 0.501837 95.8315 0.501837 98.0472 2.70981L132.945 37.4855C134.003 38.5393 134.607 39.9946 134.607 41.5C134.607 43.0055 134.003 44.4607 132.945 45.5145L98.0976 80.3404C95.8818 82.5484 92.2057 82.5484 89.9899 80.3404L55.0918 45.5647C53.9839 44.4607 53.3796 43.0556 53.3796 41.5ZM52.3724 41.5C52.3724 43.2062 53.0271 44.9123 54.3364 46.2672L89.2849 81.0429C91.9035 83.6524 96.184 83.6524 98.8026 81.0429L133.701 46.2672C135.01 44.9625 135.665 43.2564 135.665 41.5C135.665 39.7437 135.01 38.0877 133.701 36.7328L98.8026 1.95709C96.184 -0.652338 91.9035 -0.652338 89.2849 1.95709L54.3868 36.783C53.0271 38.0877 52.3724 39.7938 52.3724 41.5Z" fill="#05658C"/>
<path d="M105.802 41.5C105.802 39.9946 106.407 38.5393 107.464 37.4855L142.362 2.70981C144.578 0.501837 148.254 0.501837 150.47 2.70981L185.368 37.4855C186.426 38.5393 187.03 39.9946 187.03 41.5C187.03 43.0055 186.426 44.4607 185.368 45.5145L150.47 80.3404C148.254 82.5484 144.578 82.5484 142.362 80.3404L107.464 45.5647C106.407 44.4607 105.802 43.0556 105.802 41.5ZM104.795 41.5C104.795 43.2062 105.45 44.9123 106.759 46.2672L141.657 81.0429C144.276 83.6524 148.556 83.6524 151.175 81.0429L186.073 46.2672C187.383 44.9625 188.037 43.2564 188.037 41.5C188.037 39.7437 187.383 38.0877 186.073 36.7328L151.175 1.95709C148.556 -0.652338 144.276 -0.652338 141.657 1.95709L106.759 36.783C105.45 38.0877 104.795 39.7938 104.795 41.5Z" fill="#03ACAD"/>
<path d="M158.175 41.5C158.175 39.9946 158.779 38.5393 159.837 37.4855L194.735 2.70981C196.951 0.501837 200.627 0.501837 202.842 2.70981L237.741 37.4855C238.798 38.5393 239.402 39.9946 239.402 41.5C239.402 43.0055 238.798 44.4607 237.741 45.5145L202.842 80.3404C200.627 82.5484 196.951 82.5484 194.735 80.3404L159.837 45.5647C158.779 44.4607 158.175 43.0556 158.175 41.5ZM157.168 41.5C157.168 43.2062 157.822 44.9123 159.132 46.2672L194.03 81.0429C196.648 83.6524 200.929 83.6524 203.547 81.0429L238.446 46.2672C239.755 44.9625 240.41 43.2564 240.41 41.5C240.41 39.7437 239.755 38.0877 238.446 36.7328L203.547 1.95709C200.929 -0.652338 196.648 -0.652338 194.03 1.95709L159.132 36.783C157.822 38.0877 157.168 39.7938 157.168 41.5Z" fill="#05658C"/>
<path d="M210.598 41.5C210.598 39.9946 211.202 38.5393 212.259 37.4855L247.158 2.70981C249.373 0.501837 253.049 0.501837 255.265 2.70981L290.163 37.4855C291.221 38.5393 291.825 39.9946 291.825 41.5C291.825 43.0055 291.221 44.4607 290.163 45.5145L255.265 80.3404C253.049 82.5484 249.373 82.5484 247.158 80.3404L212.259 45.5647C211.152 44.4607 210.598 43.0556 210.598 41.5ZM209.59 41.5C209.59 43.2062 210.245 44.9123 211.554 46.2672L246.453 81.0429C249.071 83.6524 253.352 83.6524 255.97 81.0429L290.868 46.2672C292.178 44.9625 292.832 43.2564 292.832 41.5C292.832 39.7437 292.178 38.0877 290.868 36.7328L255.97 1.95709C253.352 -0.652338 249.071 -0.652338 246.453 1.95709L211.554 36.7328C210.245 38.0877 209.59 39.7938 209.59 41.5Z" fill="#03ACAD"/>
<path d="M262.97 41.5C262.97 39.9946 263.574 38.5393 264.632 37.4855L299.53 2.70981C301.746 0.501837 305.422 0.501837 307.638 2.70981L342.536 37.4855C343.593 38.5393 344.198 39.9946 344.198 41.5C344.198 43.0055 343.593 44.4607 342.536 45.5145L307.638 80.3404C305.422 82.5484 301.746 82.5484 299.53 80.3404L264.632 45.5647C263.574 44.4607 262.97 43.0556 262.97 41.5ZM261.963 41.5C261.963 43.2062 262.617 44.9123 263.927 46.2672L298.825 81.0429C301.444 83.6524 305.724 83.6524 308.343 81.0429L343.241 46.2672C344.55 44.9625 345.205 43.2564 345.205 41.5C345.205 39.7437 344.55 38.0877 343.241 36.7328L308.343 1.95709C305.724 -0.652338 301.444 -0.652338 298.825 1.95709L263.927 36.7328C262.617 38.0877 261.963 39.7938 261.963 41.5Z" fill="#05658C"/>
<path d="M315.342 41.5C315.342 39.9946 315.947 38.5393 317.004 37.4855L351.902 2.70981C354.118 0.501837 357.794 0.501837 360.01 2.70981L394.908 37.4855C395.966 38.5393 396.57 39.9946 396.57 41.5C396.57 43.0055 395.966 44.4607 394.908 45.5145L360.06 80.3404C357.845 82.5484 354.169 82.5484 351.953 80.3404L317.055 45.5647C315.947 44.4607 315.342 43.0556 315.342 41.5ZM314.335 41.5C314.335 43.2062 314.99 44.9123 316.299 46.2672L351.248 81.0429C353.866 83.6524 358.147 83.6524 360.765 81.0429L395.664 46.2672C396.973 44.9625 397.628 43.2564 397.628 41.5C397.628 39.7437 396.973 38.0877 395.664 36.7328L360.765 1.95709C358.147 -0.652338 353.866 -0.652338 351.248 1.95709L316.35 36.7328C314.99 38.0877 314.335 39.7938 314.335 41.5Z" fill="#03ACAD"/>
</g>
<defs>
<clipPath id="clip0_735_1684">
<rect width="83" height="450" fill="white" transform="translate(0 83) rotate(-90)"/>
</clipPath>
</defs>
</svg>
