<svg width="371" height="83" viewBox="0 0 371 83" fill="none" xmlns="http://www.w3.org/2000/svg">
<path d="M-77.9928 41.5C-77.9928 39.9946 -77.3885 38.5393 -76.331 37.4855L-41.4329 2.70981C-39.2171 0.501837 -35.541 0.501837 -33.3252 2.70981L1.57296 37.4855C2.63048 38.5393 3.23478 39.9946 3.23478 41.5C3.23478 43.0055 2.63048 44.4607 1.57296 45.5145L-33.3252 80.3404C-35.541 82.5484 -39.2171 82.5484 -41.4329 80.3404L-76.331 45.5647C-77.3885 44.4607 -77.9928 43.0556 -77.9928 41.5ZM-79 41.5C-79 43.2062 -78.3453 44.9123 -77.036 46.2672L-42.1379 81.0429C-39.5193 83.6524 -35.2388 83.6524 -32.6202 81.0429L2.27797 46.2672C3.58728 44.9625 4.24193 43.2564 4.24193 41.5C4.24193 39.7437 3.58728 38.0877 2.27797 36.7328L-32.6202 1.95709C-35.2388 -0.652338 -39.5193 -0.652338 -42.1379 1.95709L-77.036 36.783C-78.3453 38.0877 -79 39.7938 -79 41.5Z" fill="#03ACAD"/>
<path d="M-25.6204 41.5C-25.6204 39.9946 -25.0161 38.5393 -23.9586 37.4855L10.9396 2.70981C13.1553 0.501837 16.8315 0.501837 19.0472 2.70981L53.9454 37.4855C55.0029 38.5393 55.6072 39.9946 55.6072 41.5C55.6072 43.0055 55.0029 44.4607 53.9454 45.5145L19.0976 80.3404C16.8818 82.5484 13.2057 82.5484 10.9899 80.3404L-23.9082 45.5647C-25.0161 44.4607 -25.6204 43.0556 -25.6204 41.5ZM-26.6276 41.5C-26.6276 43.2062 -25.9729 44.9123 -24.6636 46.2672L10.2849 81.0429C12.9035 83.6524 17.184 83.6524 19.8026 81.0429L54.7008 46.2672C56.0101 44.9625 56.6647 43.2564 56.6647 41.5C56.6647 39.7437 56.0101 38.0877 54.7008 36.7328L19.8026 1.95709C17.184 -0.652338 12.9035 -0.652338 10.2849 1.95709L-24.6132 36.783C-25.9729 38.0877 -26.6276 39.7938 -26.6276 41.5Z" fill="#05658C"/>
<path d="M26.8023 41.5C26.8023 39.9946 27.4066 38.5393 28.4641 37.4855L63.3623 2.70981C65.5781 0.501837 69.2542 0.501837 71.4699 2.70981L106.368 37.4855C107.426 38.5393 108.03 39.9946 108.03 41.5C108.03 43.0055 107.426 44.4607 106.368 45.5145L71.47 80.3404C69.2542 82.5484 65.5781 82.5484 63.3623 80.3404L28.4641 45.5647C27.4066 44.4607 26.8023 43.0556 26.8023 41.5ZM25.7952 41.5C25.7952 43.2062 26.4498 44.9123 27.7591 46.2672L62.6573 81.0429C65.2759 83.6524 69.5564 83.6524 72.175 81.0429L107.073 46.2672C108.382 44.9625 109.037 43.2564 109.037 41.5C109.037 39.7437 108.382 38.0877 107.073 36.7328L72.175 1.95709C69.5564 -0.652338 65.2759 -0.652338 62.6573 1.95709L27.7591 36.783C26.4498 38.0877 25.7952 39.7938 25.7952 41.5Z" fill="#03ACAD"/>
<path d="M79.1748 41.5C79.1748 39.9946 79.7791 38.5393 80.8366 37.4855L115.735 2.70981C117.951 0.501837 121.627 0.501837 123.842 2.70981L158.741 37.4855C159.798 38.5393 160.402 39.9946 160.402 41.5C160.402 43.0055 159.798 44.4607 158.741 45.5145L123.842 80.3404C121.627 82.5484 117.951 82.5484 115.735 80.3404L80.8366 45.5647C79.7791 44.4607 79.1748 43.0556 79.1748 41.5ZM78.1677 41.5C78.1677 43.2062 78.8223 44.9123 80.1316 46.2672L115.03 81.0429C117.648 83.6524 121.929 83.6524 124.547 81.0429L159.446 46.2672C160.755 44.9625 161.41 43.2564 161.41 41.5C161.41 39.7437 160.755 38.0877 159.446 36.7328L124.547 1.95709C121.929 -0.652338 117.648 -0.652338 115.03 1.95709L80.1316 36.783C78.8223 38.0877 78.1677 39.7938 78.1677 41.5Z" fill="#05658C"/>
<path d="M131.598 41.5C131.598 39.9946 132.202 38.5393 133.259 37.4855L168.158 2.70981C170.373 0.501837 174.049 0.501837 176.265 2.70981L211.163 37.4855C212.221 38.5393 212.825 39.9946 212.825 41.5C212.825 43.0055 212.221 44.4607 211.163 45.5145L176.265 80.3404C174.049 82.5484 170.373 82.5484 168.158 80.3404L133.259 45.5647C132.152 44.4607 131.598 43.0556 131.598 41.5ZM130.59 41.5C130.59 43.2062 131.245 44.9123 132.554 46.2672L167.453 81.0429C170.071 83.6524 174.352 83.6524 176.97 81.0429L211.868 46.2672C213.178 44.9625 213.832 43.2564 213.832 41.5C213.832 39.7437 213.178 38.0877 211.868 36.7328L176.97 1.95709C174.352 -0.652338 170.071 -0.652338 167.453 1.95709L132.554 36.7328C131.245 38.0877 130.59 39.7938 130.59 41.5Z" fill="#03ACAD"/>
<path d="M183.97 41.5C183.97 39.9946 184.574 38.5393 185.632 37.4855L220.53 2.70981C222.746 0.501837 226.422 0.501837 228.638 2.70981L263.536 37.4855C264.593 38.5393 265.198 39.9946 265.198 41.5C265.198 43.0055 264.593 44.4607 263.536 45.5145L228.638 80.3404C226.422 82.5484 222.746 82.5484 220.53 80.3404L185.632 45.5647C184.574 44.4607 183.97 43.0556 183.97 41.5ZM182.963 41.5C182.963 43.2062 183.618 44.9123 184.927 46.2672L219.825 81.0429C222.444 83.6524 226.724 83.6524 229.343 81.0429L264.241 46.2672C265.55 44.9625 266.205 43.2564 266.205 41.5C266.205 39.7437 265.55 38.0877 264.241 36.7328L229.343 1.95709C226.724 -0.652338 222.444 -0.652338 219.825 1.95709L184.927 36.7328C183.618 38.0877 182.963 39.7938 182.963 41.5Z" fill="#05658C"/>
<path d="M236.342 41.5C236.342 39.9946 236.947 38.5393 238.004 37.4855L272.902 2.70981C275.118 0.501837 278.794 0.501837 281.01 2.70981L315.908 37.4855C316.966 38.5393 317.57 39.9946 317.57 41.5C317.57 43.0055 316.966 44.4607 315.908 45.5145L281.06 80.3404C278.845 82.5484 275.169 82.5484 272.953 80.3404L238.055 45.5647C236.947 44.4607 236.342 43.0556 236.342 41.5ZM235.335 41.5C235.335 43.2062 235.99 44.9123 237.299 46.2672L272.248 81.0429C274.866 83.6524 279.147 83.6524 281.766 81.0429L316.664 46.2672C317.973 44.9625 318.628 43.2564 318.628 41.5C318.628 39.7437 317.973 38.0877 316.664 36.7328L281.766 1.95709C279.147 -0.652338 274.866 -0.652338 272.248 1.95709L237.35 36.7328C235.99 38.0877 235.335 39.7938 235.335 41.5Z" fill="#03ACAD"/>
<path d="M288.765 41.5C288.765 39.9945 289.37 38.5393 290.427 37.4855L325.325 2.70978C327.541 0.501806 331.217 0.501806 333.433 2.70978L368.331 37.4855C369.389 38.5393 369.993 39.9945 369.993 41.5C369.993 43.0054 369.389 44.4607 368.331 45.5145L333.433 80.3404C331.217 82.5483 327.541 82.5483 325.325 80.3404L290.427 45.5647C289.319 44.4607 288.765 43.0556 288.765 41.5ZM287.758 41.5C287.758 43.2062 288.413 44.9123 289.722 46.2672L324.62 81.0429C327.239 83.6523 331.519 83.6523 334.138 81.0429L369.036 46.2672C370.345 44.9625 371 43.2563 371 41.5C371 39.7436 370.345 38.0876 369.036 36.7328L334.138 1.95706C331.519 -0.652369 327.239 -0.652368 324.62 1.95706L289.722 36.7328C288.413 38.0877 287.758 39.7938 287.758 41.5Z" fill="#05658C"/>
</svg>
