<svg width="85" height="112" viewBox="0 0 85 112" fill="none" xmlns="http://www.w3.org/2000/svg">
<path d="M9.30409 33.9069L21.2089 22.0153L32.3249 10.9102L32.3896 10.8455L40.3987 2.8453C43.5485 -0.297879 48.652 -0.297879 51.7979 2.8453L82.4431 33.4564C85.3456 36.3556 85.3456 41.0544 82.4431 43.9529L62.807 63.5672L28.5891 97.7454L9.42971 78.6073C-2.91982 66.2716 -2.96196 46.2949 9.30487 33.9061L9.30409 33.9069Z" fill="#00648B"/>
<path d="M48.8461 34.5719L61.2679 22.164L58.1722 19.0718L45.7505 31.4797L48.8461 34.5719Z" fill="url(#paint0_linear_1521_1080)"/>
<path d="M43.3325 29.0634L55.7542 16.6555L52.6586 13.5634L40.2369 25.9712L43.3325 29.0634Z" fill="url(#paint1_linear_1521_1080)"/>
<path d="M62.7072 42.1494L61.4409 40.8845C60.9797 40.4239 60.9797 39.6764 61.4409 39.2151L63.407 37.2511L62.0752 35.9207L58.9613 39.0311C58.1873 39.8043 58.1873 41.0583 58.9613 41.8314L60.993 43.8609L62.7064 42.1494H62.7072Z" fill="url(#paint2_linear_1521_1080)"/>
<path d="M64.1583 36.5006L66.1244 34.5366C66.5856 34.076 67.3338 34.076 67.7957 34.5366L69.062 35.8016L70.8979 33.9677L68.8662 31.9382C68.0922 31.1651 66.8368 31.1651 66.0628 31.9382L62.8264 35.1711L64.1583 36.5014V36.5006Z" fill="url(#paint3_linear_1521_1080)"/>
<path d="M68.6307 42.4682L66.6645 44.4322C66.2034 44.8928 65.4551 44.8928 64.9932 44.4322L63.4585 42.8991L61.7451 44.6106L64.2988 47.1615C65.0728 47.9346 66.3282 47.9346 67.1022 47.1615L70.2161 44.051L68.6307 42.4674V42.4682Z" fill="url(#paint4_linear_1521_1080)"/>
<path d="M69.8135 36.5519L71.3482 38.0849C71.8093 38.5455 71.8093 39.2929 71.3482 39.7543L69.382 41.7183L70.9675 43.302L74.2039 40.0692C74.9779 39.296 74.9779 38.042 74.2039 37.2689L71.6502 34.718L69.8143 36.5519H69.8135Z" fill="url(#paint5_linear_1521_1080)"/>
<path d="M66.4883 36.4472L63.354 39.5779C63.2291 39.7027 63.2291 39.9051 63.354 40.0298L65.8494 42.5224C65.9743 42.6472 66.1769 42.6472 66.3018 42.5224L69.4361 39.3917C69.561 39.2669 69.561 39.0646 69.4361 38.9398L66.9407 36.4472C66.8158 36.3224 66.6132 36.3224 66.4883 36.4472Z" fill="url(#paint6_linear_1521_1080)"/>
<path style="mix-blend-mode:multiply" d="M21.2089 22.0154L32.3249 10.9102L32.3896 10.8455L73.9878 52.3989L62.807 63.568L21.2089 22.0154Z" fill="url(#paint7_linear_1521_1080)"/>
<path d="M9.30417 33.9069C9.34475 33.8648 9.38688 33.8227 9.42901 33.7806L32.325 10.9102C30.5671 19.1543 32.7471 28.1146 38.8454 34.807C39.1379 35.1297 39.4391 35.4453 39.7512 35.7571L65.1993 61.1768L77.0198 72.9842C80.2477 76.2085 80.2477 81.4357 77.0198 84.6599L52.0992 109.554C48.8714 112.777 43.6383 112.777 40.4105 109.554L9.42901 78.6081C-2.92052 66.2723 -2.96265 46.2957 9.30417 33.9069Z" fill="#96D1C7"/>
<path d="M50.154 73.3575L51.7027 74.903L55.6281 70.9875L54.0692 69.4327L54.8869 68.6167C55.2075 68.8731 55.6515 69.1365 56.2195 69.4085C56.7867 69.6805 57.3337 69.887 57.8603 70.0273L58.543 70.7085L53.0205 76.2178L54.4351 77.6285L53.3576 78.7032L49.0765 74.4323L50.154 73.3575Z" fill="url(#paint8_linear_1521_1080)"/>
<path d="M55.0319 79.9992C54.9032 79.4676 55.0015 78.8652 55.3253 78.1903C55.6491 77.5153 56.2475 76.743 57.1198 75.8724C57.9921 75.0027 58.7669 74.4057 59.4434 74.0822C60.1198 73.7588 60.7245 73.6614 61.2566 73.7892C61.7887 73.917 62.3053 74.2311 62.8054 74.7299C63.3055 75.2287 63.6184 75.7454 63.7432 76.28C63.8681 76.8147 63.7705 77.4171 63.4499 78.0889C63.1292 78.7608 62.5323 79.5315 61.66 80.4021C60.7877 81.2726 60.0145 81.8673 59.3411 82.1876C58.6678 82.5072 58.0631 82.6054 57.5271 82.4807C56.9919 82.356 56.4738 82.0442 55.9737 81.5446C55.4735 81.0459 55.1591 80.5307 55.0304 79.9992H55.0319ZM57.8314 80.8339C58.1006 80.8276 58.4002 80.7076 58.731 80.4738C59.061 80.24 59.4738 79.8776 59.9677 79.3842L60.641 78.7124C61.1349 78.2199 61.4985 77.8084 61.7333 77.4795C61.9674 77.1498 62.0876 76.8505 62.0938 76.5824C62.1001 76.3135 61.9783 76.0548 61.7279 75.8054C61.4774 75.556 61.2176 75.4344 60.9484 75.4407C60.6792 75.4469 60.3789 75.5669 60.0488 75.8007C59.7188 76.0345 59.306 76.3977 58.8122 76.8903L58.1388 77.5621C57.6449 78.0546 57.2806 78.4662 57.0465 78.795C56.8124 79.1247 56.6923 79.424 56.686 79.6921C56.679 79.961 56.8015 80.2197 57.0519 80.4699C57.3024 80.7193 57.5614 80.8409 57.8314 80.8346V80.8339Z" fill="url(#paint9_linear_1521_1080)"/>
<path d="M60.1893 85.1438C60.0605 84.6123 60.1588 84.0098 60.4826 83.3349C60.8064 82.6599 61.4049 81.8876 62.2772 81.017C63.1495 80.1473 63.9242 79.5503 64.6007 79.2268C65.2771 78.9034 65.8818 78.806 66.414 78.9338C66.9461 79.0616 67.4626 79.3757 67.9627 79.8745C68.4628 80.3733 68.7757 80.89 68.9006 81.4247C69.0254 81.9593 68.9279 82.5617 68.6072 83.2336C68.2865 83.9054 67.6896 84.6762 66.8173 85.5467C65.945 86.4173 65.1718 87.0119 64.4985 87.3322C63.8251 87.6518 63.2205 87.75 62.6844 87.6253C62.1492 87.5006 61.6311 87.1888 61.131 86.6893C60.6309 86.1905 60.3164 85.6753 60.1885 85.1438H60.1893ZM62.9887 85.9785C63.2579 85.9722 63.5575 85.8522 63.8883 85.6184C64.2184 85.3846 64.6311 85.0222 65.125 84.5289L65.7983 83.857C66.2922 83.3645 66.6558 82.953 66.8907 82.6241C67.1247 82.2944 67.2449 81.9951 67.2511 81.727C67.2574 81.4582 67.1357 81.1994 66.8852 80.95C66.6348 80.7006 66.3749 80.579 66.1058 80.5853C65.8366 80.5915 65.5362 80.7115 65.2061 80.9453C64.8753 81.1792 64.4634 81.5423 63.9695 82.0349L63.2961 82.7067C62.8023 83.1993 62.4379 83.6108 62.2038 83.9397C61.9697 84.2693 61.8496 84.5686 61.8433 84.8367C61.8363 85.1056 61.9588 85.3643 62.2093 85.6145C62.4597 85.8639 62.7188 85.9855 62.9887 85.9793V85.9785Z" fill="url(#paint10_linear_1521_1080)"/>
<path d="M46.9768 92.5984L45.2978 90.9235L41.5807 94.6302L43.2606 96.3058L46.9768 92.5984Z" fill="url(#paint11_linear_1521_1080)"/>
<path d="M55.3104 84.2858L53.6306 82.6109L47.0509 89.1747L48.73 90.8496L55.3104 84.2858Z" fill="url(#paint12_linear_1521_1080)"/>
<path d="M28.586 19.0366C29.1462 25.6089 31.8567 31.9366 36.4203 36.9378C36.7472 37.2971 37.0882 37.6548 37.4354 38.0008L62.9272 63.43L74.7672 75.2412C76.756 77.2247 76.756 80.4521 74.7672 82.4363L49.8052 107.339C48.8416 108.299 47.5605 108.828 46.1982 108.828C44.8359 108.828 43.5548 108.299 42.592 107.339L11.5574 76.3807C6.17457 71.0108 3.19876 63.8711 3.17926 56.2762C3.15975 48.6844 6.09499 41.5314 11.4443 36.1366L11.4575 36.1234L11.4708 36.1101C11.4989 36.0813 11.5285 36.0517 11.5574 36.0228L28.586 19.0366ZM32.2445 10.9023L9.30955 33.7806C9.26742 33.8227 9.22528 33.8648 9.18393 33.9068C-3.10318 46.2995 -3.06105 66.284 9.30955 78.6237L40.3441 109.582C41.9607 111.193 44.0799 112 46.199 112C48.3181 112 50.4364 111.194 52.0538 109.582L77.0166 84.6786C80.2499 81.4528 80.2499 76.224 77.0166 72.9982L65.1766 61.1869L39.6848 35.7578C39.3719 35.4461 39.07 35.1297 38.7774 34.807C32.6682 28.1123 30.4843 19.148 32.2453 10.9016L32.2445 10.9023Z" fill="url(#paint13_linear_1521_1080)"/>
<path d="M21.0676 67.1467C21.0676 67.1467 23.7267 65.6309 24.6169 64.6185C24.6169 64.6185 24.1901 66.2559 24.5904 68.2449C24.833 69.4521 25.3753 70.5627 26.3162 71.8837C27.2447 73.1876 28.0819 73.8532 30.2322 75.0238C31.174 75.5366 32.0002 75.9208 32.6798 76.1086C33.6356 76.3736 33.8088 76.0759 33.8088 76.0759C33.8088 76.0759 28.7787 81.1776 25.4338 80.6313L18.7339 74.3473C18.7339 74.3473 18.6286 70.9828 21.0684 67.146L21.0676 67.1467Z" fill="#A5D7D7"/>
<path d="M27.9713 73.8251C27.9713 73.8251 22.5299 69.4723 24.983 63.3699L25.7624 62.2375C25.7624 62.2375 24.6085 62.5251 24.6818 61.0505C24.7559 59.576 24.5897 59.2112 24.6233 58.3165C24.6568 57.4218 24.9791 55.2575 25.9785 55.1312C26.978 55.005 27.0857 55.1079 27.273 55.2349C27.4602 55.3627 31.2623 49.4684 31.2623 49.4684L39.507 50.2914L45.6787 55.2622C45.6787 55.2622 46.9473 57.8653 46.9364 58.576C46.9255 59.2868 47.1549 61.3591 46.551 62.7402C45.9478 64.1212 44.0745 66.5022 42.4844 68.5878C40.8943 70.6733 39.4157 73.02 36.8183 74.864C36.8183 74.864 34.4839 76.6503 32.6792 76.1102C30.8745 75.5701 27.9713 73.8259 27.9713 73.8259V73.8251Z" fill="#BCE1DE"/>
<path d="M28.0304 59.7973C28.0304 60.1925 28.5859 60.3678 28.8223 60.1215C29.0587 59.8753 29.3513 59.4482 29.6135 58.5589C29.8764 57.6704 29.6712 57.5138 30.208 57.2013C30.7448 56.8887 31.4853 55.789 31.7217 55.5428C31.9581 55.2965 32.5511 53.8593 32.7282 53.6746C32.9053 53.4899 35.2897 52.0746 36.2977 52.1728C37.3058 52.2718 37.8317 52.3809 39.137 53.1961C40.4423 54.0113 41.0439 53.9178 42.2322 54.8959C43.4205 55.874 46.6249 57.9931 46.7123 58.3126C46.7123 58.3126 46.6663 58.9759 46.6413 59.6991C46.6163 60.4224 46.6826 61.6249 46.5383 62.391C46.394 63.1572 46.0842 63.7253 45.911 64.1103C45.7386 64.4953 46.5071 64.68 46.7872 64.6333C47.0681 64.5873 46.7817 63.4494 47.4012 63.2554C48.0207 63.0613 48.549 61.4044 47.8834 60.4146C47.2179 59.4256 47.0548 58.3648 47.0322 57.3213C47.0096 56.2777 47.1742 55.4913 46.8083 54.3955C46.4423 53.299 46.1802 52.3411 45.0559 51.5025C43.9308 50.6632 43.188 49.7965 42.0886 49.2174C40.9893 48.6392 40.4806 48.3485 38.7391 47.8637C36.9984 47.3789 36.1643 46.9752 34.9019 47.223C33.6395 47.4709 32.7867 48.0312 32.2319 48.4443C31.6772 48.8574 31.2176 49.0078 30.6879 49.6414C30.1581 50.275 29.6385 50.4465 29.1984 51.4799C28.7576 52.5134 28.2847 52.9646 27.8759 53.5959C27.4671 54.2272 27.6161 54.6052 27.3812 54.931C27.1472 55.2575 27.3727 55.4734 27.3727 55.4734C27.3727 55.4734 28.032 58.0687 28.0288 59.795L28.0304 59.7973Z" fill="#00ABAC"/>
<path d="M9.19243 65.231C9.19243 65.231 11.1703 65.3448 12.5896 65.7212C14.0088 66.0976 15.4772 65.8475 17.3045 66.2457C19.1318 66.6448 20.111 66.9674 20.8936 66.9199C21.6762 66.8723 22.284 66.4008 22.284 66.4008C22.284 66.4008 20.8593 68.2347 20.3209 69.4349C19.7825 70.6351 18.6801 73.3177 18.7557 73.9412C18.8322 74.5654 18.7331 74.348 18.7331 74.348L9.19243 65.231Z" fill="#00ABAC"/>
<path d="M33.4577 76.3737C33.4577 76.3737 33.5139 78.976 34.1186 80.4201C34.7233 81.8643 34.4455 83.4846 34.3706 84.8399C34.2957 86.1952 33.2642 88.0135 33.2642 88.0135L25.4338 80.6321C25.4338 80.6321 27.3641 80.5908 29.1422 79.5379C30.9204 78.485 33.4585 76.3737 33.4585 76.3737H33.4577Z" fill="#00ABAC"/>
<path d="M31.7677 64.5071C31.8605 64.7666 31.2636 65.4774 31.3393 65.9341C31.415 66.3908 30.9999 66.4212 31.7037 66.6246C32.4075 66.8281 31.9643 66.5319 32.672 66.9091C33.3796 67.2863 33.1495 66.7244 33.8517 66.8405C34.5539 66.9567 34.1521 66.5724 34.7287 66.9528C35.3052 67.3331 35.1726 67.2489 35.4847 67.5474C35.7976 67.8459 36.1705 67.9036 36.442 68.3338C36.7136 68.764 36.737 68.8295 36.7705 69.3735C36.8041 69.9182 37.0756 70.3485 37.7216 70.88C38.3669 71.4115 38.7188 71.491 39.0878 71.3741C39.4569 71.2572 39.9508 70.8324 40.131 71.0896C40.3112 71.3476 39.0309 72.8144 37.9783 72.6624C36.9258 72.5104 36.5747 72.4746 35.9864 71.5705C35.3981 70.6672 35.4402 70.5791 34.9502 70.1528C34.4603 69.7273 34.4805 69.6611 33.6199 69.3088C32.7593 68.9565 33.0496 69.234 32.033 68.732C31.0163 68.2301 30.1409 68.2052 29.9333 67.708C29.7258 67.2107 29.441 66.1695 29.8483 65.7899C30.2556 65.4104 31.7669 64.5056 31.7669 64.5056L31.7677 64.5071Z" fill="url(#paint14_linear_1521_1080)"/>
<defs>
<linearGradient id="paint0_linear_1521_1080" x1="65.3308" y1="14.2029" x2="47.9515" y2="32.7952" gradientUnits="userSpaceOnUse">
<stop stop-color="#0085AE"/>
<stop offset="1" stop-color="#0085AE" stop-opacity="0"/>
</linearGradient>
<linearGradient id="paint1_linear_1521_1080" x1="59.6413" y1="8.88342" x2="42.2619" y2="27.4758" gradientUnits="userSpaceOnUse">
<stop stop-color="#0085AE"/>
<stop offset="1" stop-color="#0085AE" stop-opacity="0"/>
</linearGradient>
<linearGradient id="paint2_linear_1521_1080" x1="76.1131" y1="24.2809" x2="58.7338" y2="42.8732" gradientUnits="userSpaceOnUse">
<stop stop-color="#0085AE"/>
<stop offset="1" stop-color="#0085AE" stop-opacity="0"/>
</linearGradient>
<linearGradient id="paint3_linear_1521_1080" x1="76.3198" y1="24.4743" x2="58.9404" y2="43.0666" gradientUnits="userSpaceOnUse">
<stop stop-color="#0085AE"/>
<stop offset="1" stop-color="#0085AE" stop-opacity="0"/>
</linearGradient>
<linearGradient id="paint4_linear_1521_1080" x1="80.7258" y1="28.5924" x2="63.3465" y2="47.1847" gradientUnits="userSpaceOnUse">
<stop stop-color="#0085AE"/>
<stop offset="1" stop-color="#0085AE" stop-opacity="0"/>
</linearGradient>
<linearGradient id="paint5_linear_1521_1080" x1="80.9326" y1="28.7855" x2="63.5533" y2="47.3779" gradientUnits="userSpaceOnUse">
<stop stop-color="#0085AE"/>
<stop offset="1" stop-color="#0085AE" stop-opacity="0"/>
</linearGradient>
<linearGradient id="paint6_linear_1521_1080" x1="75.6189" y1="29.6386" x2="62.4042" y2="43.7762" gradientUnits="userSpaceOnUse">
<stop stop-color="#0085AE"/>
<stop offset="1" stop-color="#0085AE" stop-opacity="0"/>
</linearGradient>
<linearGradient id="paint7_linear_1521_1080" x1="39.2963" y1="48.3665" x2="49.1793" y2="35.053" gradientUnits="userSpaceOnUse">
<stop stop-color="#00A1CD"/>
<stop offset="1" stop-color="#00ACAC" stop-opacity="0"/>
</linearGradient>
<linearGradient id="paint8_linear_1521_1080" x1="73.3082" y1="95.4338" x2="24.4063" y2="37.9627" gradientUnits="userSpaceOnUse">
<stop stop-color="#00ACAC"/>
<stop offset="1" stop-color="#00ACAC" stop-opacity="0"/>
</linearGradient>
<linearGradient id="paint9_linear_1521_1080" x1="73.8035" y1="95.0378" x2="24.872" y2="37.5323" gradientUnits="userSpaceOnUse">
<stop stop-color="#00ACAC"/>
<stop offset="1" stop-color="#00ACAC" stop-opacity="0"/>
</linearGradient>
<linearGradient id="paint10_linear_1521_1080" x1="74.2506" y1="94.659" x2="25.3191" y2="37.1544" gradientUnits="userSpaceOnUse">
<stop stop-color="#00ACAC"/>
<stop offset="1" stop-color="#00ACAC" stop-opacity="0"/>
</linearGradient>
<linearGradient id="paint11_linear_1521_1080" x1="57.375" y1="108.971" x2="8.49414" y2="51.5251" gradientUnits="userSpaceOnUse">
<stop stop-color="#00ACAC"/>
<stop offset="1" stop-color="#00ACAC" stop-opacity="0"/>
</linearGradient>
<linearGradient id="paint12_linear_1521_1080" x1="64.77" y1="102.666" x2="15.9249" y2="45.2623" gradientUnits="userSpaceOnUse">
<stop stop-color="#00ACAC"/>
<stop offset="1" stop-color="#00ACAC" stop-opacity="0"/>
</linearGradient>
<linearGradient id="paint13_linear_1521_1080" x1="67.8707" y1="100.066" x2="18.9486" y2="42.5726" gradientUnits="userSpaceOnUse">
<stop stop-color="#00ACAC"/>
<stop offset="1" stop-color="#00ACAC" stop-opacity="0"/>
</linearGradient>
<linearGradient id="paint14_linear_1521_1080" x1="63.9991" y1="103.386" x2="15.0496" y2="45.8592" gradientUnits="userSpaceOnUse">
<stop stop-color="#00ACAC"/>
<stop offset="1" stop-color="#00ACAC" stop-opacity="0"/>
</linearGradient>
</defs>
</svg>
