<svg width="196" height="113" viewBox="0 0 196 113" fill="none" xmlns="http://www.w3.org/2000/svg">
<path d="M6.25131 106.438C2.33466 102.063 0.376343 95.2714 0.376343 86.064C0.376343 76.8566 2.34993 70.0647 6.30048 65.69C10.2493 61.3152 16.2379 59.127 24.2679 59.127C31.2517 59.127 36.6367 60.8572 40.4228 64.3194C44.2072 67.7815 46.1011 72.8754 46.1011 79.6011H34.1561C34.1561 75.944 33.3389 73.2028 31.7078 71.3725C30.075 69.5456 27.5301 68.6296 24.0712 68.6296C20.024 68.6296 17.0535 70.0172 15.1613 72.7923C13.2674 75.5691 12.3213 79.8301 12.3213 85.5754V86.751C12.3213 92.498 13.2843 96.7268 15.2104 99.4358C17.1348 102.146 20.2529 103.502 24.5612 103.502C27.8895 103.502 30.4192 102.555 32.1487 100.66C33.8781 98.7674 34.7428 96.0568 34.7428 92.5302H46.1011C46.1011 98.9947 44.1919 104.024 40.3736 107.615C36.5553 111.208 31.1856 113.003 24.2679 113.003C16.1735 113.003 10.168 110.816 6.253 106.44L6.25131 106.438Z" fill="white"/>
<path d="M53.4918 109.916C50.1296 107.858 48.4493 104.055 48.4493 98.5029C48.4493 91.9078 51.2554 87.2719 56.8693 84.5934C62.4831 81.9167 70.4453 80.5766 80.7591 80.5766V76.2664C80.7591 73.7847 80.1233 71.8578 78.8499 70.4872C77.5766 69.1166 75.2758 68.4296 71.9475 68.4296C68.6192 68.4296 66.0386 68.986 64.6042 70.0953C63.1681 71.2064 62.4509 72.5787 62.4509 74.2088V75.5794H51.0926C51.0265 75.1876 50.9943 74.47 50.9943 73.4251C50.9943 68.9843 52.9034 65.4916 56.7217 62.9438C60.54 60.3977 65.6147 59.1238 71.9475 59.1238C78.8008 59.1238 83.9416 60.5283 87.3682 63.3356C90.7948 66.1447 92.509 70.1598 92.509 75.3843V99.9702C92.509 101.146 92.8346 102.013 93.4873 102.566C94.1384 103.122 94.9556 103.398 95.9357 103.398H99.069V111.43C96.9784 112.409 94.5318 112.899 91.7257 112.899C89.1807 112.899 87.0579 112.278 85.3607 111.038C83.6618 109.798 82.5207 108.1 81.9341 105.945H81.2491C77.3969 110.647 71.9136 112.998 64.8009 112.998C60.6231 112.998 56.854 111.97 53.4918 109.912V109.916ZM77.4308 100.267C79.6485 98.0483 80.7591 95.0425 80.7591 91.2547V88.9037C74.4263 88.9037 69.4652 89.5076 65.8758 90.7153C62.2847 91.9248 60.4909 94.1282 60.4909 97.3274C60.4909 101.507 63.1003 103.597 68.3242 103.597C72.1747 103.597 75.2097 102.487 77.4291 100.267H77.4308Z" fill="white"/>
<path d="M105.777 108.593C101.892 105.655 99.9507 101.833 99.9507 97.1324C99.9507 96.5455 99.966 96.1537 99.9999 95.9569C100.032 95.7619 100.049 95.6312 100.049 95.5651H111.504V96.3488C111.568 98.8949 112.662 100.774 114.785 101.98C116.906 103.19 119.566 103.792 122.764 103.792C125.636 103.792 128.083 103.319 130.107 102.372C132.13 101.426 133.142 100.006 133.142 98.1112C133.142 96.61 132.586 95.3853 131.477 94.4387C130.367 93.4922 128.995 92.7408 127.366 92.1861C125.733 91.6314 123.415 90.9953 120.414 90.2761C116.367 89.2973 113.054 88.3169 110.477 87.3381C107.898 86.3594 105.693 84.8242 103.867 82.7344C102.04 80.6446 101.126 77.9017 101.126 74.5058C101.126 69.6086 103.148 65.8208 107.196 63.1424C111.243 60.4656 116.497 59.1256 122.959 59.1256C126.94 59.1256 130.499 59.7125 133.631 60.888C136.764 62.0635 139.195 63.714 140.925 65.8344C142.654 67.9564 143.519 70.3889 143.519 73.1318L143.42 75.286H131.965V74.8942C131.965 72.8705 131.133 71.2862 129.468 70.1429C127.803 69.0013 125.406 68.428 122.272 68.428C119.139 68.428 116.887 68.9029 115.321 69.8478C113.754 70.796 112.971 72.019 112.971 73.5219C112.971 75.3505 113.934 76.7058 115.86 77.5862C117.784 78.4683 120.738 79.3334 124.721 80.1815C129.029 81.1603 132.505 82.1577 135.148 83.1687C137.791 84.1813 140.092 85.764 142.05 87.9199C144.009 90.0742 144.987 92.9816 144.987 96.6371C144.987 102.318 142.946 106.467 138.868 109.078C134.789 111.69 129.256 112.996 122.272 112.996C115.288 112.996 109.658 111.527 105.775 108.587L105.777 108.593Z" fill="white"/>
<path d="M151.45 41.0042H163.2V66.1787H163.885C165.582 64.0245 167.736 62.3095 170.347 61.0356C172.956 59.7617 175.959 59.1256 179.355 59.1256C184.577 59.1256 188.657 60.5454 191.593 63.3867C194.53 66.2279 196 70.7825 196 77.0519V111.826H184.25V79.1095C184.25 75.5829 183.45 73.0707 181.851 71.5661C180.25 70.0649 177.885 69.3135 174.752 69.3135C171.618 69.3135 168.746 70.489 166.527 72.84C164.307 75.1911 163.199 78.1952 163.199 81.8524V111.827H151.449V41.0042H151.45Z" fill="white"/>
<path d="M84.7978 53.8466C84.0721 53.068 83.7092 52.1113 83.7092 50.9816V49.3684C83.7092 48.1861 84.0721 47.204 84.7978 46.4237C85.5234 45.6451 86.4509 45.2533 87.5801 45.2533H89.2739C90.4031 45.2533 91.3306 45.6434 92.0563 46.4237C92.7819 47.204 93.1448 48.1861 93.1448 49.3684V50.9816C93.1448 52.1113 92.7819 53.0663 92.0563 53.8466C91.3306 54.6269 90.4031 55.0171 89.2739 55.0171H87.5801C86.4509 55.0171 85.5234 54.6269 84.7978 53.8466Z" fill="white"/>
<path d="M65.091 54.0229C64.5264 53.458 64.2449 52.5844 64.2449 51.4004V18.479C64.2449 17.5647 64.406 16.9456 64.7282 16.6233C65.0503 16.301 65.6963 16.1399 66.6644 16.1399H73.1176C73.7636 16.1399 74.2332 16.2484 74.5282 16.4621C74.8233 16.6776 74.9979 17.0541 75.0522 17.5919L75.3743 20.1736C78.6009 16.6776 82.6328 14.9287 87.4735 14.9287C89.0317 14.9287 90.3084 15.0491 91.3054 15.2917C92.299 15.5343 93.1722 15.9244 93.9267 16.4621C94.4099 16.8387 94.6524 17.2153 94.6524 17.5919C94.6524 17.753 94.5981 17.9956 94.4913 18.3179L92.4753 24.3702C92.26 25.0165 91.9107 25.3388 91.4275 25.3388C91.2121 25.3388 90.9443 25.2574 90.6204 25.0962C89.2216 24.3973 87.6092 24.0479 85.7814 24.0479C83.4145 24.0479 81.4527 24.7213 79.8929 26.0648C78.333 27.4099 77.5531 29.2114 77.5531 31.4708V51.4021C77.5531 52.5861 77.2835 53.4597 76.746 54.0246C76.2085 54.5894 75.2658 54.8727 73.9229 54.8727H67.9547C66.6102 54.8727 65.6556 54.5911 65.091 54.0246V54.0229Z" fill="white"/>
<path d="M4.05901 54.0231C3.49441 53.4582 3.21295 52.5846 3.21295 51.4006V3.47053C3.21295 2.28822 3.4961 1.41294 4.05901 0.848079C4.62362 0.283218 5.5782 -6.10352e-05 6.92274 -6.10352e-05H12.891C13.8591 -6.10352e-05 14.6119 0.120375 15.1494 0.362943C15.6869 0.605511 16.1175 1.07708 16.4397 1.77425L30.3938 34.6974L44.4276 1.77425C44.7497 1.07538 45.1804 0.603815 45.7179 0.362943C46.2554 0.120375 47.0082 -6.10352e-05 47.9763 -6.10352e-05H53.9445C55.2874 -6.10352e-05 56.2436 0.281522 56.8083 0.848079C57.3729 1.41294 57.6543 2.28822 57.6543 3.47053V51.4006C57.6543 52.5846 57.3729 53.4582 56.8083 54.0231C56.2436 54.588 55.3162 54.8712 54.0259 54.8712H49.1055C47.761 54.8712 46.8064 54.5897 46.2418 54.0231C45.6772 53.4582 45.3957 52.5846 45.3957 51.4006V20.8998L34.5885 45.026C34.051 46.1557 33.5254 46.9496 33.0151 47.4059C32.503 47.8639 31.6298 48.0912 30.3938 48.0912C29.1578 48.0912 28.3371 47.8622 27.7725 47.4059C27.2079 46.9496 26.684 46.1557 26.1991 45.026L15.4715 20.8998V51.4006C15.4715 52.5846 15.1901 53.4582 14.6255 54.0231C14.0609 54.588 13.1063 54.8712 11.7617 54.8712H6.84136C5.55107 54.8712 4.62362 54.5897 4.05901 54.0231Z" fill="white"/>
</svg>
