<svg id="Capa_2" data-name="Capa 2" xmlns="http://www.w3.org/2000/svg" viewBox="0 0 667.96 412.86">
  <defs>
    <style>
      .cls-1 {
        opacity: .5;
      }

      .cls-2 {
        opacity: .6;
      }

      .cls-3 {
        fill: #86b34d;
      }

      .cls-3, .cls-4, .cls-5, .cls-6, .cls-7, .cls-8, .cls-9, .cls-10, .cls-11, .cls-12, .cls-13, .cls-14, .cls-15, .cls-16 {
        stroke-width: 0px;
      }

      .cls-5 {
        fill: #2b495b;
      }

      .cls-17 {
        opacity: .2;
      }

      .cls-6 {
        fill: #e0e0e0;
      }

      .cls-7 {
        fill: #f5f5f5;
      }

      .cls-8 {
        fill: #fff;
      }

      .cls-18 {
        opacity: .3;
      }

      .cls-9 {
        fill: #396486;
      }

      .cls-10 {
        fill: #fafafa;
      }

      .cls-11 {
        fill: #263238;
      }

      .cls-12 {
        fill: #ebebeb;
      }

      .cls-13 {
        fill: #ffbe9d;
      }

      .cls-14 {
        fill: #eb996e;
      }

      .cls-15 {
        fill: #61a9aa;
      }

      .cls-16 {
        fill: #455a64;
      }
    </style>
  </defs>
  <g id="Character">
    <g>
      <g>
        <g>
          <path class="cls-12" d="m36.54,151.79s-7.92-.57-7.19,17.19c.73,17.76,2.54,27.23,2.54,27.23,0,0-.23,3.94-3.28,3.17-3.05-.77-8.79-4.61-11.62-1.74-2.94,2.97-1.89,7.53,2,12.9,3.9,5.37,12.01,17.44,12.74,18.54.72,1.07,1,3.09-1.16,2.9-2.16-.19-16.76-5.14-18.69,1.93-1.93,7.07,11.39,20.24,12.81,21.71,1.43,1.47,1.51,2.39.93,3.28-.58.89-5.33-1.24-9.54-2.47-4.21-1.24-9.31-1.93-10.08,2.24-.77,4.17,5.09,16.38,27.06,29.2l10.57,5.28,10-6.38c20.58-14.96,25.19-27.69,24.01-31.76-1.19-4.07-6.19-2.87-10.25-1.22-4.06,1.65-8.58,4.24-9.24,3.42-.67-.83-.68-1.76.59-3.36,1.27-1.6,13.21-16.04,10.58-22.88-2.63-6.84-16.66-.46-18.79-.05-2.13.41-2.05-1.62-1.44-2.77.62-1.16,7.48-13.99,10.82-19.72,3.34-5.73,3.93-10.37.7-13.03-3.11-2.57-8.43,1.82-11.39,2.89-2.96,1.07-3.58-2.82-3.58-2.82,0,0,.86-9.6-.19-27.34-1.05-17.75-9.06-16.32-9.06-16.32"/>
          <path class="cls-6" d="m37.17,167.7s.02.13.04.37c.02.26.05.62.08,1.09.07.98.16,2.39.28,4.19.24,3.64.55,8.92.91,15.44.72,13.04,1.57,31.05,2.44,50.96.87,19.91,1.67,37.93,2.32,50.97.33,6.51.6,11.78.79,15.44.09,1.81.16,3.22.21,4.2.02.47.03.83.04,1.09,0,.25,0,.37,0,.37,0,0-.02-.13-.04-.37-.02-.26-.05-.62-.08-1.09-.07-.98-.16-2.39-.28-4.19-.24-3.64-.55-8.92-.91-15.44-.72-13.04-1.57-31.06-2.44-50.97-.87-19.9-1.67-37.92-2.32-50.96-.33-6.51-.6-11.78-.79-15.44-.09-1.81-.16-3.22-.21-4.2-.02-.47-.03-.83-.04-1.09,0-.25,0-.37,0-.37Z"/>
          <path class="cls-6" d="m24.8,203.32s.25.18.66.55c.41.37.98.92,1.68,1.61,1.39,1.38,3.27,3.34,5.3,5.54,1.99,2.17,3.78,4.14,5.17,5.66.62.67,1.14,1.24,1.57,1.71.37.4.57.63.55.65-.02.02-.25-.17-.66-.54-.41-.37-.98-.92-1.67-1.62-1.38-1.4-3.23-3.38-5.26-5.58-2-2.16-3.81-4.11-5.21-5.62-.62-.67-1.15-1.23-1.58-1.7-.37-.4-.57-.64-.55-.66Z"/>
          <path class="cls-6" d="m40.77,218.69c-.08-.08,3.79-4.13,8.63-9.04,4.85-4.92,8.84-8.83,8.92-8.76.08.08-3.78,4.13-8.63,9.04-4.85,4.91-8.84,8.83-8.92,8.76Z"/>
          <path class="cls-6" d="m40.73,249.32s.25-.19.74-.47c.56-.32,1.25-.7,2.07-1.16,1.74-.98,4.15-2.34,6.75-3.94,2.6-1.59,4.91-3.11,6.57-4.23.78-.52,1.43-.96,1.97-1.32.47-.31.73-.47.75-.44s-.22.23-.66.57c-.44.35-1.09.84-1.9,1.42-1.62,1.18-3.91,2.74-6.53,4.34-2.61,1.6-5.04,2.93-6.82,3.85-.89.46-1.62.81-2.13,1.05-.51.24-.8.35-.81.33Z"/>
          <path class="cls-6" d="m23.22,238.6s.27.1.73.34c.46.24,1.11.61,1.92,1.06,1.61.91,3.82,2.2,6.24,3.64,2.43,1.44,4.61,2.77,6.18,3.75.79.49,1.42.89,1.85,1.18.43.29.66.45.65.48-.01.02-.27-.1-.73-.34-.46-.24-1.11-.61-1.92-1.06-1.61-.91-3.82-2.2-6.24-3.64-2.43-1.44-4.61-2.77-6.18-3.75-.79-.49-1.42-.89-1.85-1.18-.43-.29-.66-.45-.65-.48Z"/>
          <path class="cls-6" d="m19.75,265.63s.34.14.93.45c.65.36,1.48.81,2.46,1.36,2.07,1.16,4.91,2.79,8.04,4.61,3.13,1.82,5.95,3.49,7.98,4.71.96.59,1.76,1.08,2.4,1.47.56.35.86.56.85.59-.01.02-.34-.14-.93-.45-.65-.36-1.48-.81-2.46-1.36-2.07-1.16-4.91-2.79-8.04-4.61-3.13-1.82-5.95-3.49-7.98-4.71-.96-.59-1.76-1.08-2.4-1.47-.56-.35-.86-.56-.85-.59Z"/>
          <path class="cls-6" d="m41.95,278.35s.31-.24.92-.62c.67-.41,1.54-.93,2.57-1.56,2.17-1.32,5.16-3.16,8.4-5.27,3.25-2.11,6.14-4.1,8.22-5.55.99-.69,1.82-1.27,2.47-1.72.59-.4.92-.61.93-.59.02.02-.28.28-.84.72-.56.44-1.37,1.07-2.4,1.82-2.04,1.51-4.91,3.54-8.17,5.66-3.25,2.12-6.27,3.92-8.48,5.18-1.11.63-2.01,1.12-2.64,1.45-.63.33-.98.5-1,.48Z"/>
        </g>
        <g>
          <polygon class="cls-6" points="57.83 296.59 28.59 296.59 38.14 368.83 48.29 368.83 57.83 296.59"/>
          <path class="cls-7" d="m30.11,305.47s.03.1.16.26c.12.15.35.35.71.5.69.3,1.91.33,3.09-.38,1.18-.65,2.21-1.93,3.79-2.5,1.57-.6,3.51-.49,5.38.11,1.89.58,3.52,1.54,5.01,2.43,1.49.88,2.85,1.67,4.07,2.18,1.21.53,2.27.77,3,.87.37.05.65.06.85.06.19,0,.3,0,.3-.02.02-.1-1.65-.08-4.01-1.21-1.18-.54-2.51-1.35-3.98-2.25-1.47-.91-3.15-1.9-5.09-2.5-1.92-.62-3.99-.73-5.68-.06-.84.32-1.55.82-2.14,1.32-.6.49-1.13.96-1.67,1.3-1.07.69-2.19.72-2.85.49-.67-.23-.89-.63-.93-.59Z"/>
          <path class="cls-7" d="m31.18,318.77s.23-.3.69-.78c.47-.46,1.23-1.07,2.34-1.48,1.1-.42,2.51-.67,4.07-.61,1.57.05,3.27.4,5.09.69,1.81.3,3.61.44,5.21.22,1.6-.21,2.99-.67,4.1-1.17,1.11-.5,1.93-1.06,2.46-1.47.54-.41.8-.68.78-.7-.05-.08-1.18.93-3.38,1.86-1.1.45-2.46.87-4.02,1.04-1.56.19-3.28.05-5.08-.25-1.8-.29-3.53-.63-5.15-.66-1.62-.04-3.08.26-4.21.74-1.14.47-1.91,1.15-2.35,1.67-.21.27-.36.49-.44.65-.09.16-.12.24-.11.25Z"/>
          <path class="cls-7" d="m54.52,325.89s-.26-.2-.81-.42c-.54-.22-1.37-.44-2.42-.52-1.05-.08-2.3-.02-3.66.21-1.36.22-2.83.6-4.36.92-1.53.32-3.01.54-4.35.49-1.34-.05-2.53-.34-3.46-.75-1.88-.83-2.55-2.03-2.62-1.95-.02.01.11.31.49.76.38.45,1.03,1.02,1.99,1.49.95.47,2.18.81,3.58.88,1.4.08,2.92-.14,4.47-.46,1.55-.33,3-.72,4.34-.96,1.33-.24,2.55-.34,3.57-.31,2.05.07,3.22.69,3.25.6Z"/>
          <path class="cls-7" d="m33.76,335.91c.01.08,1.04-.65,2.84-.29.88.16,1.86.6,2.97,1.11,1.1.51,2.43.95,3.86,1.06,2.87.28,5.43-.65,6.99-1.62.8-.48,1.36-.99,1.74-1.34.36-.38.54-.6.51-.62-.06-.07-.83.79-2.42,1.67-1.57.87-4.03,1.7-6.78,1.44-2.77-.16-4.89-1.81-6.81-2.03-.94-.14-1.72,0-2.21.19-.49.19-.7.41-.69.43Z"/>
          <path class="cls-7" d="m35.39,349.78c0,.05.98.05,2.44-.48,1.47-.49,3.29-1.62,5.41-2.46,1.07-.41,2.13-.66,3.11-.65.97,0,1.84.24,2.5.57,1.34.67,1.73,1.62,1.81,1.56.02,0-.04-.25-.28-.62-.24-.37-.68-.85-1.37-1.24-.68-.39-1.6-.68-2.65-.71-1.05-.03-2.18.22-3.28.64-2.2.88-3.96,2.04-5.37,2.59-1.39.6-2.33.72-2.31.8Z"/>
          <path class="cls-7" d="m36.82,356.23c-.02.06.68.31,1.85.6,1.17.29,2.8.6,4.63.78,1.83.18,3.49.19,4.69.14,1.2-.06,1.94-.17,1.93-.23,0-.14-2.96-.02-6.58-.38-3.62-.35-6.49-1.05-6.53-.91Z"/>
        </g>
      </g>
      <g>
        <rect class="cls-7" x="498.53" y="183.88" width="91.21" height="61.48" transform="translate(-34.14 126.62) rotate(-12.87)"/>
        <path class="cls-6" d="m582.2,175.15s-.2.36-.65.99c-.5.69-1.16,1.6-1.98,2.74-1.8,2.43-4.32,5.82-7.41,9.98-6.37,8.44-15.09,20-24.76,32.8l-.2.27-.31-.15c-.23-.11-.49-.23-.74-.36-14.6-7.09-27.81-13.5-37.47-18.19-4.72-2.33-8.56-4.24-11.31-5.6-1.27-.65-2.29-1.17-3.06-1.56-.69-.36-1.05-.57-1.04-.59.01-.03.4.13,1.11.44.79.36,1.83.83,3.12,1.42,2.78,1.3,6.66,3.13,11.43,5.36,9.69,4.63,22.93,10.97,37.57,17.97.25.12.51.24.74.36l-.51.12c9.74-12.74,18.53-24.25,24.95-32.65,3.18-4.09,5.77-7.43,7.62-9.82.87-1.1,1.57-1.98,2.1-2.64.49-.6.75-.9.78-.89Z"/>
        <path class="cls-6" d="m506.97,255.4c-.2-.1,4.61-9.85,10.74-21.76,6.14-11.92,11.27-21.49,11.48-21.38.2.1-4.61,9.85-10.74,21.76-6.13,11.91-11.27,21.49-11.48,21.38Z"/>
        <path class="cls-6" d="m558.58,204.75c.14-.18,8.62,6.47,18.92,14.84,10.31,8.38,18.54,15.31,18.4,15.49-.14.18-8.61-6.47-18.92-14.84-10.3-8.37-18.54-15.31-18.4-15.48Z"/>
      </g>
      <g>
        <rect class="cls-7" x="189.65" y="8.38" width="36.25" height="53.78" transform="translate(126.65 229.78) rotate(-77)"/>
        <path class="cls-6" d="m238.12,24.13s-.2.14-.6.36c-.44.24-1.03.55-1.75.94-1.58.82-3.79,1.97-6.5,3.38-5.55,2.84-13.15,6.73-21.57,11.03l-.18.09-.12-.16c-.09-.12-.2-.25-.3-.38-5.92-7.52-11.28-14.32-15.2-19.29-1.9-2.45-3.45-4.45-4.56-5.88-.51-.67-.91-1.21-1.22-1.61-.27-.37-.41-.57-.4-.58.01-.01.18.17.48.52.33.39.76.91,1.29,1.56,1.14,1.41,2.73,3.37,4.68,5.78,3.95,4.95,9.34,11.72,15.31,19.2.1.13.21.26.3.38l-.3-.07c8.44-4.25,16.07-8.1,21.64-10.9,2.74-1.35,4.97-2.46,6.57-3.25.75-.36,1.34-.64,1.8-.86.41-.19.63-.29.64-.27Z"/>
        <path class="cls-6" d="m177.56,47.34c-.08-.11,4.98-4.04,11.3-8.78,6.32-4.74,11.51-8.5,11.59-8.39.08.11-4.98,4.04-11.3,8.78-6.32,4.74-11.51,8.5-11.59,8.39Z"/>
        <path class="cls-6" d="m217.97,33.75c.12-.06,2.91,5.65,6.22,12.74,3.31,7.1,5.9,12.89,5.78,12.95-.12.06-2.91-5.65-6.22-12.74-3.31-7.09-5.9-12.89-5.77-12.95Z"/>
      </g>
      <g>
        <rect class="cls-7" x="483.37" y="27.46" width="41.67" height="28.09" transform="translate(24.58 202.44) rotate(-23.25)"/>
        <path class="cls-6" d="m518.06,20.63s-.06.18-.21.5c-.17.35-.39.81-.66,1.39-.61,1.24-1.46,2.97-2.51,5.09-2.17,4.32-5.14,10.23-8.42,16.78l-.07.14-.15-.04c-.11-.03-.24-.07-.36-.1-7.14-1.98-13.61-3.78-18.34-5.09-2.31-.66-4.2-1.2-5.54-1.58-.62-.19-1.12-.34-1.5-.45-.34-.11-.52-.17-.52-.18,0-.01.19.03.54.11.38.1.89.22,1.52.38,1.36.36,3.25.86,5.58,1.47,4.73,1.28,11.21,3.04,18.36,4.98.12.03.25.07.36.1l-.22.1c3.33-6.53,6.33-12.42,8.52-16.73,1.09-2.1,1.98-3.81,2.62-5.04.3-.57.54-1.02.73-1.36.17-.31.26-.47.28-.46Z"/>
        <path class="cls-6" d="m490.86,62.89c-.1-.03,1.26-4.81,3.03-10.66,1.78-5.86,3.3-10.58,3.4-10.55.1.03-1.26,4.8-3.04,10.66-1.78,5.86-3.3,10.58-3.4,10.55Z"/>
        <path class="cls-6" d="m509.88,35.88c.05-.09,4.4,2.2,9.72,5.11,5.32,2.92,9.59,5.35,9.54,5.44-.05.09-4.4-2.2-9.72-5.11-5.32-2.91-9.59-5.35-9.54-5.44Z"/>
      </g>
      <g>
        <g>
          <path class="cls-5" d="m568.5,281.44c-4.08-2.56-8.75-4.17-13.55-4.66-2.21-.23-4.63-.16-6.41,1.18-.38.28-.74.71-.66,1.17.06.34.35.59.63.8,5.51,4.21,13.85,4.74,19.99,1.51"/>
          <path class="cls-5" d="m568.15,281.06c-3.07-2.39-6.15-4.8-8.75-7.7-2.6-2.9-4.71-6.33-5.49-10.15-.24-1.16-.31-2.48.43-3.39,6.97,5.45,12.45,12.49,13.8,21.24"/>
          <path class="cls-5" d="m568.43,281.39c-.53-3.82-.71-7.74.16-11.49.88-3.75,2.92-7.34,6.12-9.48,1.21,2.82.69,6.06-.16,9.01-1.31,4.55-3.37,8.88-6.07,12.78"/>
          <path class="cls-5" d="m575.27,293.64c-4.15.5-7.77,2.69-10.86,5.5-3.1,2.81-5.3,6.59-6.21,10.67,4.07-.25,7.52-3.12,10.03-6.34,2.5-3.22,4.24-6.75,6.99-9.76"/>
          <path class="cls-5" d="m576.75,295.6c-3.34-8.23-2.13-18.16,3.09-25.35,2.36,8.41,1.5,17.91-3.09,25.35"/>
          <path class="cls-5" d="m585.78,306.36c-3.77-.23-7.6.66-10.87,2.55-3.27,1.88-5.97,4.74-7.66,8.12-.23.46-.43,1.04-.12,1.45.27.36.78.39,1.23.36,3.65-.24,6.89-2.43,9.56-4.93,2.67-2.5,5-5.39,7.95-7.55"/>
          <path class="cls-5" d="m585.5,305.77c-1.94-6.22-2.06-12.99-.34-19.27.68-2.48,1.82-5.09,4.11-6.26.2-.1.42-.19.63-.11.19.07.31.27.4.46.82,1.71,1.05,3.64.97,5.53s-.48,3.75-.87,5.6c-.72,3.42-1.11,7.1-2.98,10.05-.45.7-.84,1.46-1.19,2.21-.36.75-.36,1.01-.68,1.61"/>
          <path class="cls-5" d="m609.41,309.34c-1.77-6.74.11-14.91,4.36-20.43.31-.41.73-.84,1.24-.8.78.07.98,1.11.95,1.9-.31,6.89-2.6,13.67-6.54,19.33"/>
          <path class="cls-5" d="m611.57,310.81c8.19,2.13,17.58.06,24.39-4.96-4.04-2.05-8.79-2.63-13.2-1.62-4.41,1.01-8.44,2.98-11.19,6.58"/>
          <path class="cls-5" d="m613.38,306.32c4.59-7.48,13.38-12.36,22.14-12.8-1.01,3.56-3.94,6.33-7.24,8s-6.99,2.4-10.63,3.11c-1.41.27-3.35.58-4.27,1.69"/>
          <path class="cls-5" d="m609.87,284.55c1.24-4.25,2.49-8.55,2.83-12.96s-.29-9.03-2.58-12.82c-4.28,8.29-4.72,17.97-.38,26.23"/>
          <path class="cls-5" d="m624.29,277.26c5.01-9.1,15.23-16.38,25.57-17.4-3.99,9.93-14.87,17.61-25.57,17.4"/>
          <path class="cls-5" d="m621.13,279.04c7.47,1.14,13.84,5.91,20.82,8.8,1.49.62,3.1,1.11,4.71.9,1.6-.21,3.18-1.28,3.54-2.86.3-1.31-.3-2.7-1.24-3.66s-2.18-1.56-3.42-2.07c-7.6-3.17-15.76-3.24-23.77-1.32"/>
          <path class="cls-5" d="m616.81,284.28c1.69.48,2.27,1.36,3.61,2.5,4.54,3.87,9.99,6.67,15.79,8.11.6.15,1.39.21,1.69-.34.26-.48-.07-1.05-.41-1.48-2.43-3.04-5.89-5.11-9.53-6.47-3.64-1.36-6.8-2.99-11.15-2.64"/>
          <path class="cls-5" d="m611.93,252.64c6.07,5.67,14.63,8.58,22.9,7.79.38-.04.79-.1,1.04-.37.58-.63-.12-1.6-.79-2.12-6.73-5.25-14.89-7.43-23.16-5.3"/>
          <path class="cls-5" d="m617.72,250.52c8.03-6.02,19.04-7.84,28.58-4.72-3.6,3.55-8.59,5.46-13.62,5.98-5.03.52-10.06-.03-14.96-1.26"/>
          <path class="cls-5" d="m615.42,235.98c-.66-6.72-.23-12.03-.7-18.78-.04-.54-.15-1.19-.66-1.38-.7-.27-1.29.59-1.52,1.31-2,6.22-.91,13.36,2.87,18.7"/>
          <path class="cls-5" d="m614.94,236.72c4.56-2.82,7.97-6.5,11.13-10.82,2.2-3.01,4.05-6.61,3.55-10.31-3.09-.06-6.02,1.64-8.03,3.99-2.01,2.35-3.2,5.28-4.09,8.24-.89,2.96-1.52,6-2.56,8.9"/>
          <path class="cls-5" d="m625.87,233.68c10-3.7,19.33-9.2,27.4-16.16-3.27-1.32-7.02-.53-10.29.79-7.48,3.02-13.58,8.11-17.25,15.29"/>
          <path class="cls-5" d="m618.01,240.4c5.06.55,10.2.91,15.21.07,4.93-.82,9.59-2.78,14.2-4.72.38-.16.8-.35.96-.73.18-.41-.01-.91-.35-1.22-.33-.3-.78-.45-1.21-.57-5.01-1.4-10.42-.75-15.35.92-4.93,1.66-8.97,3.64-13.48,6.24"/>
          <path class="cls-5" d="m589.13,252.87c-3.45-6.97-3.23-15.09-.25-22.27,2.1,3.2,2.35,7.27,1.97,11.07-.38,3.81-1.54,7.72-1.62,11.55"/>
          <path class="cls-5" d="m575.34,245.91c-8.62-.16-17.23,3.51-23.08,9.83,4.3.68,8.73-.43,12.64-2.34,3.91-1.91,7.39-4.59,10.83-7.25"/>
          <path class="cls-5" d="m566.08,242.81c-4.21-.34-8.27-.86-12.32.38-4.05,1.24-7.74,4.06-9.39,7.96,3.94.44,7.94-.54,11.55-2.18,3.61-1.64,6.9-3.91,10.16-6.16"/>
          <path class="cls-5" d="m579.8,242.96c-3.79-2.48-7.69-5.01-12.1-6.04-4.41-1.03-9.53-.27-12.61,3.06,3.57,2.1,7.91,2.34,12.05,2.34,4.14,0,9.22-.05,13.13,1.33"/>
          <path class="cls-5" d="m579.82,243.16c-6.48-6.37-8.94-17.8-6.33-26.5,5.1,7.74,7.38,17.29,6.33,26.5"/>
          <path class="cls-5" d="m597.65,225.12c1.22-2.84,2.08-5.83,3.18-8.72,1.1-2.89,2.46-5.74,4.53-8.04,2.07-2.3,4.94-4.01,8.03-4.16-1.93,8.76-7.75,16.58-15.58,20.96"/>
          <path class="cls-5" d="m594.42,228.88c-2.02-2.78-4.36-6.56-7.1-8.64s-6.32-3.34-9.66-2.54c3.41,6.09,9.84,10.38,16.77,11.18"/>
          <path class="cls-5" d="m595.07,225.35c-1.33-3.37-2.66-6.77-3.2-10.36-.54-3.58-.21-7.41,1.62-10.53,3.56,6.73,4.7,13.95,1.76,20.96"/>
          <path class="cls-5" d="m597.68,204.47c2.02-6.67,8.12-11.58,14.71-13.83.83-.28,1.71-.52,2.58-.39.87.13,1.72.73,1.9,1.59.24,1.13-.7,2.15-1.58,2.9-5.13,4.39-11.17,7.72-17.62,9.73"/>
          <path class="cls-5" d="m597.75,199.01c.26-4.3.52-8.66,1.92-12.73,1.4-4.07,4.09-7.89,8.01-9.68.67,4.34-1.25,8.66-3.56,12.4-2.31,3.74-5.1,7.26-6.48,11.43"/>
          <path class="cls-5" d="m597.65,201.97c-1.67-4.86-1.84-11.03-4.75-15.27-2.03-2.96-5.29-4.98-7.04-8.11-1.16,2.93-.81,6.3.41,9.21,1.22,2.91,3.23,5.41,5.38,7.71,2.15,2.3,4,4.03,6,6.46"/>
          <path class="cls-11" d="m597.68,345.08c-.13,0-.24-32.42-.25-72.4,0-39.99.09-72.4.22-72.4s.24,32.41.25,72.4c0,39.98-.09,72.4-.22,72.4Z"/>
          <path class="cls-11" d="m626.01,247.98s-.43.19-1.22.46c-.88.3-2,.68-3.35,1.13-2.83.96-6.71,2.36-10.93,4.09-4.18,1.79-8.11,3.25-10.36,5.19-1.12.96-1.76,2-2.08,2.75-.32.76-.38,1.23-.42,1.22-.02,0-.01-.12.01-.34.04-.22.09-.54.24-.94.27-.8.9-1.91,2.03-2.93,1.13-1.03,2.7-1.95,4.49-2.79,1.8-.84,3.79-1.71,5.9-2.58,4.23-1.73,8.14-3.08,11.01-3.97,1.43-.45,2.6-.77,3.4-.99.81-.21,1.26-.31,1.27-.28Z"/>
          <path class="cls-11" d="m635.29,225.17s-.11.14-.34.36c-.28.26-.62.58-1.04.98-.97.88-2.28,2.07-3.88,3.53-3.35,2.99-7.9,7.03-12.93,11.51-5.05,4.49-9.41,8.78-12.43,12.01-1.51,1.61-2.7,2.95-3.52,3.88-.38.43-.69.79-.94,1.07-.22.24-.34.37-.35.36-.01-.01.08-.15.28-.42.2-.26.48-.65.87-1.13.77-.97,1.93-2.34,3.41-3.99,2.97-3.3,7.3-7.64,12.36-12.14,5.06-4.48,9.67-8.51,13.02-11.41,1.64-1.41,2.99-2.57,3.98-3.42.44-.37.81-.67,1.1-.91.25-.2.39-.31.4-.29Z"/>
          <path class="cls-11" d="m611.66,246.11c-.13-.06.92-2.49,1.97-5.57,1.06-3.08,1.56-5.67,1.69-5.65.12.01-.18,2.69-1.25,5.8-.53,1.56-1.11,2.92-1.57,3.9-.46.97-.79,1.55-.85,1.52Z"/>
          <path class="cls-11" d="m597.71,265.73s-.3-.3-.78-.9c-.53-.68-1.2-1.53-1.99-2.55-1.67-2.16-3.99-5.15-6.58-8.41-2.59-3.27-4.98-6.2-6.7-8.32-.81-1.01-1.5-1.85-2.04-2.52-.48-.6-.73-.94-.7-.96.02-.02.32.28.84.84.52.56,1.25,1.39,2.15,2.42,1.79,2.07,4.22,4.97,6.82,8.24,2.6,3.27,4.87,6.29,6.48,8.51.8,1.11,1.44,2.01,1.87,2.64.43.63.66.99.63,1.01Z"/>
          <path class="cls-11" d="m591.5,257.76c-.08.08-1.73-1.88-2.6-4.87-.64-2.11-.67-4.03-.59-4.91l.21.02c-.09.38-.16.57-.2.57-.04,0-.04-.22,0-.6l.21.02c.08.87.21,2.73.83,4.78.84,2.89,2.28,4.93,2.15,5.01Z"/>
          <path class="cls-11" d="m583.48,247.67c-.06.07-.59-.61-1.82-1.06-1.21-.47-3.04-.57-5.04-.4-2.01.15-3.8.5-5.08.82-1.28.32-2.07.57-2.09.5-.02-.06.72-.42,2-.82,1.27-.4,3.09-.82,5.13-.97,2.03-.17,3.95-.02,5.2.56,1.27.56,1.73,1.35,1.69,1.36Z"/>
          <path class="cls-11" d="m581.58,245.23c-.04.07-1.06-.42-2.78-1.01-1.72-.59-4.18-1.21-6.94-1.43-2.77-.21-5.29.04-7.08.36-1.79.32-2.88.66-2.9.58,0-.03.25-.14.74-.31.48-.18,1.2-.39,2.1-.59,1.8-.41,4.36-.71,7.18-.5,2.82.22,5.31.91,7.02,1.59.86.34,1.54.65,1.99.9.45.25.7.39.68.42Z"/>
          <path class="cls-11" d="m597.65,234.89c-.13.03-1.03-3.13-2.03-7.05-1-3.93-1.7-7.14-1.58-7.17.13-.03,1.03,3.12,2.03,7.05,1,3.93,1.7,7.13,1.58,7.17Z"/>
          <path class="cls-11" d="m597.78,234.89c-.14.05-.72-2.06-2.25-4.22-1.49-2.2-3.38-3.31-3.31-3.42.02-.05.55.14,1.28.66.73.51,1.64,1.37,2.42,2.49,1.58,2.24,1.98,4.48,1.87,4.49Z"/>
          <path class="cls-11" d="m597.68,327.8c-.05,0-.15-.78-.51-2.16-.36-1.38-1.04-3.33-2.17-5.61-2.24-4.58-6.32-10.38-11.49-16.19-2.57-2.93-5.06-5.7-7.17-8.35-2.12-2.64-3.86-5.16-5.13-7.39-1.27-2.23-2.1-4.14-2.59-5.49-.24-.68-.41-1.2-.51-1.57-.1-.36-.15-.56-.13-.56.04-.01.28.74.81,2.06.53,1.32,1.4,3.2,2.7,5.38,1.3,2.19,3.05,4.67,5.18,7.29,2.12,2.62,4.61,5.37,7.19,8.31,5.19,5.83,9.26,11.7,11.44,16.36,1.1,2.32,1.74,4.31,2.04,5.71.15.7.25,1.25.29,1.63.05.37.06.57.05.57Z"/>
          <path class="cls-11" d="m623.28,298.89s-.47.28-1.34.75c-.86.48-2.08,1.23-3.48,2.3-1.4,1.07-2.96,2.48-4.57,4.17-1.6,1.69-3.26,3.66-4.94,5.77-3.37,4.23-6.53,7.97-8.41,10.96-.96,1.48-1.66,2.73-2.11,3.61-.46.87-.7,1.37-.74,1.35-.01,0,.03-.14.12-.38.1-.24.24-.6.45-1.05.41-.91,1.07-2.19,2-3.7,1.83-3.06,4.96-6.85,8.33-11.08,1.69-2.11,3.36-4.08,5-5.78,1.64-1.69,3.24-3.09,4.68-4.13,1.44-1.05,2.7-1.76,3.59-2.2.44-.22.81-.36,1.05-.46.24-.1.37-.14.38-.13Z"/>
          <path class="cls-11" d="m623.78,308.27c0,.07-1.08.2-2.84.41-1.75.23-4.18.52-6.73,1.32-2.54.83-4.65,2.09-6.02,3.16-1.39,1.07-2.04,1.96-2.11,1.91-.02-.02.11-.26.42-.65.3-.4.8-.93,1.48-1.51,1.35-1.17,3.48-2.5,6.09-3.35,2.61-.83,5.07-1.07,6.84-1.21,1.77-.13,2.86-.14,2.87-.08Z"/>
          <path class="cls-11" d="m606.92,314.04c-.15-.08,1.13-2.04,2.12-4.66.93-2.65,1.15-4.97,1.31-4.95.06,0,.06.59-.05,1.52-.11.93-.33,2.22-.83,3.58-.5,1.36-1.15,2.5-1.64,3.29-.51.79-.86,1.25-.92,1.21Z"/>
          <path class="cls-11" d="m631.57,273.7s-.15.1-.45.24c-.35.16-.79.36-1.33.61-.58.25-1.29.57-2.09.99-.8.41-1.74.84-2.71,1.42-.49.28-1.01.57-1.55.88-.54.31-1.07.67-1.63,1.03-1.14.69-2.28,1.54-3.5,2.41-2.39,1.81-4.9,3.95-7.31,6.43-2.39,2.5-4.45,5.08-6.18,7.53-.83,1.25-1.64,2.42-2.29,3.58-.33.58-.68,1.12-.97,1.67-.29.55-.56,1.07-.83,1.58-.55.99-.94,1.94-1.33,2.76-.39.81-.69,1.53-.92,2.12-.23.55-.41,1-.56,1.35-.13.31-.21.47-.23.46-.02,0,.03-.17.14-.49.13-.37.28-.82.48-1.39.2-.6.47-1.34.85-2.16.36-.83.74-1.79,1.27-2.8.26-.51.53-1.05.8-1.6.28-.55.63-1.11.95-1.69.64-1.18,1.45-2.37,2.27-3.63,1.72-2.48,3.79-5.09,6.2-7.61,2.43-2.49,4.97-4.65,7.39-6.45,1.24-.87,2.39-1.71,3.55-2.39.57-.35,1.11-.71,1.66-1.01.55-.3,1.07-.58,1.57-.86.99-.57,1.94-.98,2.76-1.37.81-.4,1.54-.69,2.13-.92.55-.21,1.01-.39,1.37-.53.31-.12.48-.17.49-.15Z"/>
          <path class="cls-11" d="m611.31,287.28s.18-.79,1.11-1.66c.91-.86,2.56-1.66,4.49-1.72,1.92-.05,3.59.49,4.72.92,1.14.45,1.81.81,1.79.87-.03.07-.74-.19-1.89-.55-1.15-.35-2.78-.82-4.6-.77-1.81.06-3.38.75-4.29,1.5-.93.75-1.26,1.45-1.33,1.41Z"/>
          <path class="cls-11" d="m608.28,290.4c-.13-.07,1.01-1.75,1.27-4.15.3-2.4-.43-4.29-.29-4.33.05-.02.31.42.53,1.21.22.78.37,1.93.22,3.18-.15,1.25-.55,2.33-.95,3.04-.4.72-.75,1.09-.79,1.05Z"/>
        </g>
        <path class="cls-3" d="m575.29,332.44c.7,12.39,4.43,24.99,10.17,37.73h24.97c5.48-12.61,8.95-25.19,9.57-37.73h-44.71Z"/>
        <path class="cls-10" d="m615.96,352.49c0,.13-8.22.23-18.36.23s-18.36-.1-18.36-.23,8.22-.23,18.36-.23,18.36.1,18.36.23Z"/>
        <path class="cls-10" d="m615.4,356.98c0,.13-7.71.23-17.21.23s-17.21-.1-17.21-.23,7.71-.23,17.21-.23,17.21.1,17.21.23Z"/>
      </g>
      <g>
        <g>
          <g>
            <rect class="cls-9" x="134.87" y="109.99" width="384.52" height="254.28" rx="14.57" ry="14.57"/>
            <path class="cls-9" d="m119.84,347.84h416.59v4.45c0,9.82-7.97,17.8-17.8,17.8H137.64c-9.82,0-17.8-7.97-17.8-17.8v-4.45h0Z"/>
            <rect class="cls-11" x="145.19" y="120.09" width="362.8" height="214.73"/>
            <polygon class="cls-11" points="289.22 345.46 294.39 353.68 367.14 353.68 371.94 345.46 289.22 345.46"/>
          </g>
          <g>
            <path class="cls-12" d="m155.94,127.36h342.05c1.81,0,3.27,1.47,3.27,3.27v200.23c0,1.81-1.47,3.27-3.27,3.27H155.94c-1.81,0-3.27-1.47-3.27-3.27v-200.23c0-1.81,1.47-3.27,3.27-3.27Z"/>
            <polygon class="cls-10" points="500.89 334.44 152.29 334.44 152.67 142.81 500.89 142.81 500.89 334.44"/>
            <path class="cls-11" d="m181.26,135.35c0,1.54-1.25,2.78-2.78,2.78s-2.78-1.25-2.78-2.78,1.25-2.78,2.78-2.78,2.78,1.25,2.78,2.78Z"/>
            <path class="cls-11" d="m164.38,135.35c0,1.54-1.25,2.78-2.78,2.78s-2.78-1.25-2.78-2.78,1.25-2.78,2.78-2.78,2.78,1.25,2.78,2.78Z"/>
            <path class="cls-11" d="m172.48,135.35c0,1.54-1.25,2.78-2.78,2.78s-2.78-1.25-2.78-2.78,1.25-2.78,2.78-2.78,2.78,1.25,2.78,2.78Z"/>
          </g>
          <path class="cls-11" d="m516.08,345.46c0,.14-85.34.25-190.6.25s-190.62-.11-190.62-.25,85.33-.25,190.62-.25,190.6.11,190.6.25Z"/>
        </g>
        <g>
          <g>
            <g>
              <polygon class="cls-15" points="264.29 217.67 406.12 216.35 410.27 312.76 263.41 311.71 264.29 217.67"/>
              <path class="cls-15" d="m264.29,217.67l67.01-54.45c2.84-2.31,6.9-2.3,9.74.01l65.08,53.12"/>
              <g class="cls-18">
                <path class="cls-4" d="m264.29,217.67l67.01-54.45c2.84-2.31,6.9-2.3,9.74.01l65.08,53.12"/>
              </g>
              <path class="cls-11" d="m263.41,311.71c-.18-.17,11.15-12.59,25.3-27.74,14.15-15.16,25.77-27.31,25.94-27.14.18.17-11.15,12.58-25.3,27.74-14.15,15.15-25.76,27.3-25.94,27.14Z"/>
              <path class="cls-11" d="m410.27,312.76c-.18.16-11.26-11.96-24.75-27.08-13.49-15.12-24.28-27.5-24.1-27.66.18-.16,11.26,11.96,24.75,27.08,13.49,15.11,24.28,27.5,24.1,27.66Z"/>
              <g class="cls-1">
                <polyline class="cls-4" points="406.12 216.35 335.02 273.39 264.29 217.67"/>
              </g>
            </g>
            <g>
              <polygon class="cls-10" points="271.45 222.92 271.13 178.63 395.32 176.9 396.82 223.51 335.01 272.64 271.45 222.92"/>
              <path class="cls-11" d="m271.45,222.92s.41.3,1.18.88c.77.6,1.91,1.47,3.39,2.61,2.97,2.3,7.31,5.67,12.85,9.98,11.09,8.64,26.98,21.03,46.28,36.07h-.26c17.8-14.17,38.92-30.98,61.78-49.17l-.1.21c-.29-8.89-.59-18.22-.89-27.71-.2-6.39-.41-12.7-.61-18.89l.26.25c-50.04.66-94.18,1.24-124.19,1.63l.16-.17c.06,13.93.11,24.99.15,32.58,0,3.79.01,6.71.02,8.7,0,.98,0,1.73,0,2.25,0,.51-.02.77-.02.77,0,0-.02-.25-.03-.75,0-.51-.02-1.26-.04-2.23-.02-1.98-.06-4.9-.1-8.68-.07-7.61-.18-18.69-.31-32.64v-.17s.16,0,.16,0c30-.44,74.14-1.09,124.18-1.82h.25s0,.25,0,.25c.2,6.19.4,12.5.61,18.89.3,9.49.6,18.82.89,27.71v.13s-.1.08-.1.08c-22.87,18.16-44.01,34.95-61.83,49.1l-.13.11-.13-.1c-19.27-15.12-35.15-27.59-46.22-36.28-5.51-4.34-9.82-7.74-12.76-10.06-1.45-1.15-2.57-2.04-3.33-2.64-.75-.6-1.12-.91-1.12-.91Z"/>
            </g>
          </g>
          <path class="cls-11" d="m375.74,199.25c0,.14-18.99.42-42.41.61-23.43.19-42.42.23-42.42.09,0-.14,18.99-.42,42.42-.61,23.42-.19,42.42-.23,42.42-.09Z"/>
          <path class="cls-11" d="m375.76,211.76c0,.14-18.99.42-42.41.61-23.43.19-42.42.23-42.42.09,0-.14,18.99-.42,42.42-.61,23.42-.19,42.42-.23,42.42-.09Z"/>
          <path class="cls-11" d="m375.79,226.18c0,.14-18.99.42-42.41.61-23.43.19-42.42.23-42.42.09,0-.14,18.99-.42,42.42-.61,23.42-.19,42.42-.23,42.42-.09Z"/>
          <path class="cls-11" d="m375.82,240.6c0,.14-18.12.41-40.46.59-22.35.18-40.47.21-40.47.07,0-.14,18.11-.41,40.47-.59,22.35-.18,40.47-.21,40.47-.07Z"/>
          <path class="cls-11" d="m359.97,253.29s-.17.04-.5.06c-.39.02-.86.04-1.43.06-1.32.03-3.09.08-5.25.13-4.5.08-10.59.19-17.31.31-6.76.13-12.88.17-17.32.16-2.16-.01-3.93-.03-5.25-.03-.57-.01-1.04-.03-1.43-.04-.33-.01-.5-.03-.5-.05,0-.02.17-.04.5-.06.39-.02.86-.04,1.43-.06,1.32-.03,3.09-.08,5.25-.13,4.5-.08,10.59-.19,17.31-.31,6.76-.13,12.88-.17,17.31-.16,2.16.01,3.93.03,5.25.03.57.01,1.04.03,1.43.04.33.01.5.03.5.05Z"/>
          <path class="cls-11" d="m344,265.49c0,.14-4.05.27-9.04.28-5,.01-9.04-.1-9.04-.24,0-.14,4.05-.27,9.04-.28,4.99-.01,9.04.1,9.04.24Z"/>
        </g>
      </g>
      <path class="cls-11" d="m667.96,369.24c0,.14-149.54.26-333.96.26s-334-.12-334-.26,149.51-.26,334-.26,333.96.12,333.96.26Z"/>
      <g>
        <path class="cls-11" d="m360.74,176.51c.14.02.2.58.14,1.27-.07.69-.24,1.23-.38,1.22-.14-.01-.2-.58-.14-1.27.07-.69.24-1.23.38-1.22Z"/>
        <path class="cls-11" d="m362.07,166.77c.14.02.09,1.13-.11,2.47-.2,1.34-.49,2.41-.63,2.39-.14-.02-.09-1.12.11-2.47.2-1.34.49-2.41.63-2.39Z"/>
        <path class="cls-11" d="m364.03,157.14c.14.03.02,1.13-.28,2.46-.29,1.32-.65,2.37-.79,2.34-.14-.03-.02-1.13.28-2.46.29-1.33.65-2.38.79-2.34Z"/>
        <path class="cls-11" d="m366.7,147.68c.14.04-.07,1.13-.46,2.43-.39,1.3-.82,2.32-.96,2.28-.14-.04.07-1.13.46-2.43.39-1.3.82-2.32.96-2.28Z"/>
        <path class="cls-11" d="m370.13,138.47c.13.06-.17,1.12-.67,2.38-.5,1.26-1.02,2.24-1.15,2.19-.13-.05.16-1.12.67-2.38.5-1.27,1.02-2.24,1.15-2.19Z"/>
        <path class="cls-11" d="m374.39,129.62c.13.07-.27,1.1-.89,2.3-.62,1.2-1.22,2.13-1.35,2.07-.13-.06.27-1.09.89-2.3.62-1.21,1.22-2.14,1.35-2.07Z"/>
        <path class="cls-11" d="m379.53,121.24c.12.08-.4,1.06-1.15,2.18-.72,1.15-1.41,2.01-1.53,1.94-.12-.07.37-1.07,1.1-2.22.76-1.13,1.47-1.98,1.59-1.9Z"/>
        <path class="cls-11" d="m385.59,113.5c.11.1-.51,1.02-1.37,2.06-.86,1.04-1.66,1.81-1.77,1.72-.11-.09.5-1.01,1.37-2.06.87-1.05,1.66-1.82,1.77-1.72Z"/>
        <path class="cls-11" d="m392.51,106.53c.09.11-.62.95-1.61,1.88-.98.93-1.86,1.6-1.96,1.5-.1-.1.62-.94,1.61-1.88.99-.94,1.87-1.61,1.96-1.5Z"/>
        <path class="cls-11" d="m400.25,100.47c.08.12-.74.86-1.83,1.66-1.09.8-2.05,1.36-2.14,1.24-.09-.11.73-.86,1.83-1.66,1.1-.81,2.06-1.36,2.14-1.24Z"/>
        <path class="cls-11" d="m408.73,95.49c.06.13-.85.76-2.04,1.4-1.19.64-2.21,1.07-2.29.94-.07-.12.84-.75,2.04-1.4,1.2-.65,2.22-1.07,2.29-.94Z"/>
        <path class="cls-11" d="m417.83,91.79c.04.14-.95.62-2.22,1.08-1.27.46-2.34.73-2.4.59-.06-.13.94-.62,2.22-1.08,1.28-.47,2.36-.73,2.4-.59Z"/>
        <path class="cls-11" d="m427.39,89.57c.02.14-1.04.43-2.37.66-1.32.28-2.42.39-2.45.25-.03-.14,1.02-.48,2.36-.76,1.34-.23,2.45-.29,2.47-.15Z"/>
        <path class="cls-11" d="m437.2,89.02c0,.14-1.1.27-2.45.29-1.35.02-2.45-.09-2.46-.23,0-.14,1.09-.27,2.45-.29,1.36-.02,2.47.09,2.46.23Z"/>
        <path class="cls-11" d="m446.96,90.17c-.03.14-1.14.08-2.47-.13-1.33-.22-2.4-.51-2.39-.65.02-.14,1.12-.08,2.47.13,1.35.22,2.41.51,2.38.65Z"/>
        <path class="cls-11" d="m456.37,92.98c-.05.13-1.13-.12-2.41-.56-1.28-.44-2.28-.91-2.24-1.05.04-.14,1.12.11,2.41.56,1.29.45,2.29.92,2.24,1.05Z"/>
        <path class="cls-11" d="m465.12,97.44c-.08.12-1.09-.32-2.26-.99-1.17-.67-2.07-1.32-2.01-1.44s1.08.32,2.26.99c1.19.68,2.08,1.32,2.01,1.44Z"/>
        <path class="cls-11" d="m472.82,103.53c-.1.1-1.01-.54-2.02-1.43-1.01-.89-1.76-1.7-1.68-1.82.09-.11.99.52,2.02,1.43,1.03.9,1.78,1.71,1.68,1.82Z"/>
        <path class="cls-11" d="m477.68,109.13c-.12.08-.55-.29-.97-.83-.42-.54-.67-1.06-.56-1.15.11-.09.55.28.97.83.43.55.68,1.06.56,1.15Z"/>
      </g>
      <g>
        <path class="cls-11" d="m523.92,169.38c-.06.13-1.12-.23-2.38-.82-1.26-.58-2.22-1.16-2.16-1.29.06-.13,1.13.24,2.38.82,1.25.58,2.21,1.16,2.16,1.29Z"/>
        <path class="cls-11" d="m533.36,172.66c-.03.14-1.14-.08-2.47-.48-1.33-.41-2.36-.84-2.31-.98.05-.14,1.15.08,2.47.48,1.31.4,2.35.84,2.31.98Z"/>
        <path class="cls-11" d="m543.23,174.23c0,.14-1.13.14-2.51-.01-1.38-.15-2.48-.39-2.46-.53s1.15-.14,2.51.01c1.36.15,2.46.39,2.46.53Z"/>
        <path class="cls-11" d="m553.21,173.92c.02.14-1.09.34-2.47.45-1.38.1-2.51.07-2.51-.07,0-.14,1.1-.34,2.47-.45,1.37-.1,2.49-.07,2.51.07Z"/>
        <path class="cls-11" d="m563.03,172.08c.04.14-1.02.52-2.37.85-1.36.29-2.48.38-2.51.24-.03-.15,1.05-.46,2.39-.75,1.33-.33,2.44-.48,2.48-.34Z"/>
        <path class="cls-11" d="m572.31,168.4c.07.13-.9.7-2.16,1.28-1.26.58-2.33.94-2.38.81-.05-.13.92-.71,2.16-1.28,1.25-.57,2.31-.93,2.38-.81Z"/>
        <path class="cls-11" d="m580.6,162.83c.09.11-.69.93-1.8,1.77-1.11.84-2.12,1.36-2.19,1.24-.08-.12.78-.83,1.88-1.66,1.1-.83,2.01-1.46,2.11-1.35Z"/>
        <path class="cls-11" d="m587.4,155.53c.12.08-.44,1.07-1.33,2.14-.89,1.07-1.75,1.81-1.85,1.71-.11-.1.58-.99,1.45-2.04.87-1.06,1.61-1.9,1.73-1.81Z"/>
        <path class="cls-11" d="m592.08,146.73c.13.05-.13,1.15-.7,2.42-.57,1.27-1.21,2.21-1.34,2.14-.13-.07.31-1.1.86-2.35.56-1.25,1.03-2.26,1.17-2.21Z"/>
        <path class="cls-11" d="m593.93,136.95c.14,0,.26,1.13.11,2.52-.14,1.39-.49,2.48-.62,2.45-.14-.03-.03-1.14.1-2.5.14-1.36.26-2.47.4-2.47Z"/>
        <path class="cls-11" d="m592.49,127.09c.13-.04.59,1,.9,2.36.31,1.36.35,2.5.21,2.51-.14.02-.41-1.07-.72-2.4-.3-1.33-.53-2.43-.39-2.47Z"/>
        <path class="cls-11" d="m588.14,118.12c.11-.08.87.77,1.57,1.98.7,1.2,1.08,2.28.95,2.34-.13.06-.71-.89-1.4-2.08-.69-1.18-1.23-2.16-1.12-2.24Z"/>
        <path class="cls-11" d="m581.2,110.99c.08-.12,1.08.44,2.13,1.35,1.06.91,1.75,1.82,1.64,1.92-.11.1-.95-.63-1.98-1.52-1.03-.9-1.87-1.62-1.79-1.75Z"/>
        <path class="cls-11" d="m572.13,106.93c.03-.14,1.17-.03,2.5.41,1.33.44,2.31,1.03,2.25,1.15-.06.13-1.11-.23-2.41-.66-1.3-.43-2.36-.76-2.33-.9Z"/>
        <path class="cls-11" d="m562.22,107.09c-.04-.14,1.03-.55,2.42-.72,1.39-.18,2.53-.07,2.53.07,0,.15-1.11.26-2.46.44-1.35.17-2.45.35-2.49.21Z"/>
        <path class="cls-11" d="m553.6,111.92c-.1-.09.58-1.02,1.71-1.87,1.12-.85,2.19-1.27,2.26-1.15.07.13-.86.74-1.94,1.56-1.09.82-1.91,1.55-2.02,1.45Z"/>
        <path class="cls-11" d="m549.64,120.89c-.14,0-.19-1.16.14-2.53.33-1.37.92-2.37,1.05-2.31.14.06-.23,1.11-.54,2.43-.32,1.32-.5,2.41-.65,2.4Z"/>
        <path class="cls-11" d="m551.59,130.59c-.12.07-.76-.89-1.22-2.22-.46-1.33-.55-2.47-.42-2.5.15-.03.46,1.04.91,2.33.44,1.29.86,2.32.72,2.39Z"/>
        <path class="cls-11" d="m558.13,138.03c-.08.12-1.09-.42-2.13-1.35-1.05-.93-1.71-1.87-1.6-1.96.11-.1.92.67,1.95,1.57,1.02.9,1.87,1.62,1.79,1.74Z"/>
        <path class="cls-11" d="m567.21,142.09c-.03.14-1.16-.01-2.48-.46-1.32-.45-2.3-1.03-2.24-1.16.06-.13,1.12.22,2.41.66,1.29.44,2.35.81,2.31.95Z"/>
        <path class="cls-11" d="m577.13,143.04c0,.14-1.11.33-2.5.29-1.39-.03-2.51-.26-2.49-.4.01-.15,1.13-.15,2.5-.12,1.37.03,2.49.08,2.49.23Z"/>
        <path class="cls-11" d="m586.93,141.22c.05.13-.99.6-2.34.95-1.35.35-2.48.43-2.5.29-.03-.14,1.05-.45,2.38-.79,1.33-.34,2.42-.58,2.46-.44Z"/>
        <path class="cls-11" d="m596,137.07c.08.12-.86.75-2.09,1.4-1.23.65-2.27,1.07-2.33.94-.06-.13.88-.76,2.09-1.4,1.21-.64,2.26-1.06,2.33-.94Z"/>
        <path class="cls-11" d="m604.01,131.11c.1.11-.69.91-1.77,1.79-1.07.88-2.01,1.5-2.1,1.38-.08-.12.71-.92,1.77-1.79,1.06-.87,2-1.49,2.1-1.38Z"/>
        <path class="cls-11" d="m610.83,123.8c.11.09-.52,1.01-1.43,2.07-.9,1.06-1.72,1.83-1.82,1.73s.53-1.03,1.43-2.07c.89-1.04,1.71-1.82,1.82-1.73Z"/>
        <path class="cls-11" d="m616.32,115.46c.13.07-.35,1.09-1.06,2.28-.72,1.19-1.39,2.09-1.51,2.01-.12-.08.36-1.1,1.06-2.28.71-1.18,1.38-2.08,1.51-2.01Z"/>
        <path class="cls-11" d="m620.38,106.32c.14.05-.16,1.13-.67,2.42-.5,1.3-1.04,2.29-1.18,2.22-.12-.05.2-1.13.69-2.41.5-1.28,1.02-2.28,1.15-2.23Z"/>
        <path class="cls-11" d="m623.17,96.73c.14.03-.03,1.14-.38,2.49-.35,1.34-.74,2.4-.88,2.35-.14-.04.03-1.15.38-2.49.35-1.33.74-2.39.88-2.35Z"/>
        <path class="cls-11" d="m624.92,86.88c.14.02.09,1.14-.12,2.51-.21,1.37-.49,2.46-.64,2.43-.14-.03-.09-1.15.12-2.51.21-1.36.49-2.45.64-2.43Z"/>
        <path class="cls-11" d="m625.84,76.93c.14,0,.18,1.13.07,2.51-.1,1.38-.3,2.49-.45,2.47-.14-.01-.18-1.14-.07-2.51.1-1.37.3-2.48.45-2.47Z"/>
        <path class="cls-11" d="m626.16,66.94c.14,0,.24,1.12.21,2.5-.03,1.38-.16,2.5-.31,2.49-.14,0-.24-1.13-.21-2.5.03-1.38.16-2.5.31-2.49Z"/>
        <path class="cls-11" d="m626.09,56.94c.14,0,.28,1.11.3,2.5.02,1.38-.08,2.5-.22,2.5s-.28-1.12-.3-2.5c-.02-1.38.08-2.5.22-2.5Z"/>
        <path class="cls-11" d="m625.94,50.79c.14,0,.27.25.28.57,0,.32-.1.58-.24.58-.14,0-.27-.25-.28-.57,0-.32.1-.58.24-.58Z"/>
      </g>
      <g>
        <g>
          <rect class="cls-3" x="582.17" y="24.68" width="68.37" height="46.09" transform="translate(-1.55 66.82) rotate(-6.2)"/>
          <path class="cls-11" d="m584.83,74.35v-.02s-4.98-45.84-4.98-45.84h.02s68-7.39,68-7.39v.02s4.98,45.84,4.98,45.84h-.02s-68,7.39-68,7.39Zm-4.93-45.82l4.97,45.77,67.92-7.38-4.97-45.77-67.92,7.38Z"/>
        </g>
        <path class="cls-11" d="m648.13,21.65s-.18.25-.57.68c-.43.47-1,1.09-1.71,1.86-1.55,1.65-3.72,3.95-6.39,6.78-5.48,5.73-12.98,13.58-21.29,22.27l-.18.18-.21-.14c-.16-.1-.34-.22-.52-.33-10.25-6.55-19.53-12.48-26.31-16.81-3.31-2.15-6-3.9-7.93-5.15-.89-.59-1.6-1.07-2.14-1.43-.49-.33-.74-.52-.72-.53.01-.02.28.13.79.43.55.33,1.29.78,2.2,1.33,1.96,1.21,4.69,2.91,8.04,4.99,6.81,4.29,16.12,10.17,26.41,16.66.18.11.36.23.52.33l-.39.05c8.36-8.64,15.91-16.44,21.42-22.14,2.72-2.77,4.94-5.03,6.53-6.65.75-.74,1.34-1.33,1.8-1.78.42-.4.64-.61.66-.59Z"/>
        <path class="cls-11" d="m585.13,74.85c-.14-.1,4.29-6.93,9.89-15.27,5.61-8.34,10.27-15.02,10.41-14.92.14.1-4.29,6.93-9.89,15.27-5.61,8.33-10.27,15.02-10.41,14.92Z"/>
        <path class="cls-11" d="m627.96,41.64c.12-.12,5.85,5.57,12.79,12.7,6.94,7.13,12.47,13.01,12.35,13.13s-5.85-5.57-12.79-12.7c-6.94-7.13-12.47-13.01-12.35-13.13Z"/>
      </g>
      <g>
        <path class="cls-11" d="m337.45,160.03c.14-.02.35.51.47,1.19.12.68.09,1.25-.05,1.28s-.35-.51-.47-1.19c-.12-.68-.09-1.25.05-1.28Z"/>
        <path class="cls-11" d="m335.85,150.28c.14-.02.43,1.05.65,2.4.22,1.35.28,2.46.14,2.48-.14.02-.43-1.05-.65-2.4-.22-1.35-.28-2.46-.14-2.48Z"/>
        <path class="cls-11" d="m334.42,140.5c.14-.02.41,1.06.6,2.41.19,1.35.23,2.46.08,2.48s-.41-1.06-.6-2.41c-.19-1.35-.23-2.47-.08-2.48Z"/>
        <path class="cls-11" d="m333.3,130.67c.14-.01.37,1.08.52,2.43.14,1.36.14,2.47,0,2.49-.14.02-.37-1.07-.52-2.43-.14-1.36-.14-2.47,0-2.49Z"/>
        <path class="cls-11" d="m332.61,120.81c.14,0,.32,1.09.4,2.45.08,1.36.02,2.47-.12,2.48-.14.01-.32-1.09-.4-2.45-.08-1.36-.02-2.48.12-2.48Z"/>
        <path class="cls-11" d="m332.51,110.92c.14,0,.25,1.11.25,2.48,0,1.36-.13,2.47-.27,2.47-.14,0-.25-1.11-.25-2.48,0-1.37.13-2.48.27-2.47Z"/>
        <path class="cls-11" d="m333.13,101.06c.14.02.17,1.13.05,2.48-.11,1.36-.32,2.45-.46,2.44-.14,0-.17-1.12-.05-2.48.11-1.36.32-2.46.46-2.44Z"/>
        <path class="cls-11" d="m334.61,91.29c.14.03.06,1.14-.17,2.48-.24,1.34-.54,2.41-.69,2.39-.14-.02-.06-1.13.17-2.48.24-1.35.55-2.42.69-2.39Z"/>
        <path class="cls-11" d="m337.14,81.73c.14.05-.07,1.14-.45,2.44-.39,1.3-.82,2.33-.95,2.29-.14-.04.06-1.13.46-2.44.39-1.31.82-2.34.95-2.29Z"/>
        <path class="cls-11" d="m340.83,72.57c.13.06-.21,1.12-.76,2.37-.55,1.24-1.1,2.21-1.23,2.16-.13-.05.21-1.11.76-2.37.55-1.25,1.1-2.22,1.23-2.16Z"/>
        <path class="cls-11" d="m345.65,63.94c.12.08-.35,1.09-1.05,2.25-.7,1.16-1.37,2.05-1.5,1.98-.13-.07.34-1.08,1.05-2.25.71-1.17,1.38-2.06,1.5-1.98Z"/>
        <path class="cls-11" d="m351.58,56.04c.11.09-.5,1.03-1.35,2.09-.85,1.06-1.64,1.85-1.75,1.76-.12-.09.49-1.02,1.35-2.09.86-1.07,1.65-1.86,1.75-1.76Z"/>
        <path class="cls-11" d="m358.61,49.09c.09.11-.65.94-1.65,1.86-1,.92-1.9,1.58-2,1.48s.64-.93,1.65-1.86c1.01-.93,1.91-1.59,2-1.48Z"/>
        <path class="cls-11" d="m366.69,43.41c.07.13-.8.82-1.94,1.55-1.14.73-2.14,1.23-2.22,1.11-.08-.12.79-.81,1.94-1.55,1.16-.74,2.15-1.24,2.22-1.11Z"/>
        <path class="cls-11" d="m375.69,39.36c.04.14-.94.65-2.21,1.14-1.26.49-2.34.79-2.4.66-.06-.13.93-.64,2.21-1.14,1.28-.5,2.35-.79,2.4-.66Z"/>
        <path class="cls-11" d="m382.91,37.58c.02.14-.5.36-1.18.49-.67.13-1.24.12-1.27-.02-.03-.14.5-.36,1.18-.49.68-.13,1.25-.12,1.27.02Z"/>
      </g>
      <g>
        <g>
          <rect class="cls-3" x="330.3" y="-.36" width="50.11" height="74.34" transform="translate(192.86 354.97) rotate(-68.86)"/>
          <path class="cls-11" d="m381,73.62h-.02s-69.36-26.83-69.36-26.83v-.02S329.71,0,329.71,0h.02s69.36,26.83,69.36,26.83v.02s-18.09,46.76-18.09,46.76Zm-69.32-26.86l69.29,26.79,18.05-46.69L329.73.06l-18.05,46.69Z"/>
        </g>
        <path class="cls-11" d="m399.06,27.49s-.3.15-.89.37c-.65.24-1.51.55-2.58.94-2.32.82-5.57,1.96-9.55,3.36-8.15,2.8-19.32,6.63-31.68,10.87l-.26.09-.14-.24c-.11-.18-.22-.38-.34-.58-6.63-11.44-12.63-21.8-17.02-29.37-2.12-3.73-3.85-6.77-5.09-8.94-.56-1.02-1.01-1.83-1.35-2.45-.3-.56-.45-.86-.43-.88.02-.01.21.27.55.81.37.6.86,1.39,1.46,2.38,1.28,2.15,3.08,5.15,5.28,8.83,4.43,7.55,10.49,17.87,17.19,29.27.12.2.23.4.34.58l-.4-.15c12.39-4.17,23.57-7.93,31.75-10.68,4.01-1.32,7.28-2.39,9.62-3.16,1.09-.34,1.96-.62,2.63-.83.6-.18.92-.27.93-.24Z"/>
        <path class="cls-11" d="m311.65,47.42c-.09-.16,7.6-4.55,17.18-9.81,9.58-5.25,17.41-9.38,17.5-9.21.09.16-7.6,4.55-17.18,9.81-9.58,5.25-17.41,9.38-17.5,9.21Z"/>
        <path class="cls-11" d="m369.61,36.73c.18-.05,2.87,8.3,6.01,18.65,3.14,10.36,5.55,18.8,5.37,18.85-.18.05-2.87-8.3-6.01-18.65-3.14-10.35-5.55-18.79-5.37-18.85Z"/>
      </g>
      <g>
        <path class="cls-11" d="m308.33,170.98c.14,0,.21.58.16,1.27-.06.69-.22,1.24-.36,1.23-.14-.01-.21-.58-.16-1.27.06-.69.22-1.24.36-1.23Z"/>
        <path class="cls-11" d="m308.58,160.81c.14,0,.26,1.14.25,2.54,0,1.41-.12,2.55-.27,2.54-.14,0-.26-1.14-.25-2.54,0-1.4.12-2.54.27-2.54Z"/>
        <path class="cls-11" d="m307.89,150.66c.14-.02.36,1.11.49,2.51.13,1.4.12,2.55-.03,2.56-.14,0-.36-1.11-.49-2.51-.13-1.39-.12-2.54.03-2.56Z"/>
        <path class="cls-11" d="m306.2,140.63c.14-.03.47,1.06.74,2.45.27,1.38.38,2.52.23,2.55-.14.02-.48-1.07-.74-2.45-.27-1.37-.37-2.51-.23-2.55Z"/>
        <path class="cls-11" d="m303.43,130.84c.14-.05.59,1,1.01,2.35.42,1.35.65,2.47.51,2.51-.14.04-.59-1.01-1.01-2.35-.42-1.34-.65-2.46-.51-2.51Z"/>
        <path class="cls-11" d="m299.54,121.45c.13-.06.7.93,1.28,2.21.58,1.29.94,2.37.81,2.43-.13.05-.71-.94-1.28-2.21-.57-1.28-.94-2.36-.81-2.43Z"/>
        <path class="cls-11" d="m294.49,112.62c.12-.08.84.82,1.59,2.01.72,1.21,1.2,2.25,1.08,2.33-.13.07-.81-.85-1.52-2.05-.75-1.18-1.27-2.2-1.15-2.28Z"/>
        <path class="cls-11" d="m288.26,104.58c.11-.1.93.7,1.83,1.79.9,1.08,1.54,2.03,1.43,2.12s-.93-.71-1.83-1.79c-.9-1.07-1.54-2.02-1.43-2.12Z"/>
        <path class="cls-11" d="m280.96,97.51c.09-.11,1.02.57,2.06,1.51,1.05.95,1.82,1.79,1.71,1.9-.1.1-1.02-.57-2.06-1.51-1.04-.94-1.81-1.79-1.71-1.9Z"/>
        <path class="cls-11" d="m272.71,91.56c.07-.12,1.09.41,2.26,1.19,1.17.78,2.06,1.51,1.97,1.63-.08.12-1.1-.42-2.26-1.19-1.16-.78-2.05-1.5-1.97-1.63Z"/>
        <path class="cls-11" d="m263.65,86.95c.05-.13,1.14.24,2.42.83,1.28.59,2.27,1.17,2.2,1.3-.07.13-1.15-.24-2.42-.83-1.27-.59-2.26-1.17-2.2-1.3Z"/>
        <path class="cls-11" d="m253.95,83.88c.03-.14,1.16.04,2.52.41,1.36.37,2.43.78,2.39.91-.04.14-1.17-.05-2.52-.41-1.35-.36-2.42-.77-2.39-.91Z"/>
        <path class="cls-11" d="m243.87,82.59c0-.14,1.15-.2,2.56-.12,1.41.15,2.53.38,2.51.52-.02.14-1.16.14-2.55,0-1.39-.08-2.52-.26-2.52-.4Z"/>
        <path class="cls-11" d="m233.73,83.29c-.02-.14,1.09-.39,2.5-.56,1.4-.17,2.55-.18,2.56-.04,0,.14-1.11.39-2.5.56-1.39.16-2.53.18-2.56.04Z"/>
        <path class="cls-11" d="m223.91,85.9c-.05-.13,1-.59,2.35-1.02,1.35-.43,2.47-.66,2.5-.52.04.14-1.01.59-2.35,1.02-1.33.42-2.45.66-2.5.52Z"/>
        <path class="cls-11" d="m214.75,90.31c-.08-.12.87-.77,2.11-1.44,1.24-.67,2.3-1.11,2.36-.98.06.13-.88.77-2.11,1.44-1.23.66-2.29,1.1-2.36.98Z"/>
        <path class="cls-11" d="m206.63,96.42c-.1-.1.7-.92,1.79-1.83,1.09-.91,2.04-1.55,2.12-1.43.09.12-.71.93-1.79,1.83-1.07.89-2.02,1.53-2.12,1.43Z"/>
        <path class="cls-11" d="m199.98,104.09c-.12-.08.43-1.1,1.29-2.22.87-1.12,1.71-1.9,1.82-1.81.11.1-.55,1.02-1.41,2.13-.85,1.1-1.58,1.98-1.7,1.9Z"/>
        <path class="cls-11" d="m196.27,110.7c-.13-.06,0-.61.31-1.24.3-.63.65-1.08.78-1.01.13.07-.01.62-.31,1.24-.3.62-.65,1.07-.78,1.01Z"/>
      </g>
      <g>
        <path class="cls-11" d="m132.73,169.71c0-.14.53-.33,1.21-.41.68-.08,1.25-.03,1.27.11.03.14-.52.32-1.21.41-.69.08-1.26.04-1.27-.11Z"/>
        <path class="cls-11" d="m122.83,168.59c.04-.14,1.14.09,2.48.37,1.34.28,2.43.51,2.42.66-.01.14-1.16.14-2.53-.15-1.37-.29-2.42-.75-2.37-.88Z"/>
        <path class="cls-11" d="m113.88,164.16c.08-.12,1.06.43,2.24,1.14,1.18.71,2.13,1.3,2.06,1.43-.06.13-1.13-.26-2.33-.98-1.2-.71-2.05-1.47-1.97-1.58Z"/>
        <path class="cls-11" d="m106.43,157.48c.11-.1.93.67,1.9,1.65.97.98,1.72,1.81,1.63,1.92-.09.11-1.02-.56-2-1.55-.98-.99-1.64-1.92-1.53-2.01Z"/>
        <path class="cls-11" d="m100.55,149.38c.12-.07.84.8,1.59,1.95.75,1.15,1.27,2.15,1.16,2.24-.12.09-.83-.79-1.59-1.95-.76-1.16-1.28-2.17-1.16-2.24Z"/>
        <path class="cls-11" d="m96.23,140.35c.13-.05.68.94,1.22,2.2.54,1.27.87,2.34.74,2.41-.13.06-.68-.92-1.22-2.2-.55-1.28-.88-2.36-.74-2.41Z"/>
        <path class="cls-11" d="m93.36,130.75c.14-.03.54,1.02.89,2.36.35,1.33.52,2.45.38,2.49-.14.04-.54-1.01-.89-2.36-.35-1.34-.52-2.46-.38-2.49Z"/>
        <path class="cls-11" d="m91.62,120.88c.14-.02.43,1.07.63,2.44.21,1.37.26,2.49.12,2.52-.14.03-.42-1.07-.63-2.44-.21-1.37-.26-2.5-.12-2.52Z"/>
        <path class="cls-11" d="m90.66,110.9c.14,0,.35,1.1.46,2.48.11,1.38.09,2.51-.06,2.52-.14.01-.35-1.09-.46-2.48-.11-1.38-.09-2.51.06-2.52Z"/>
        <path class="cls-11" d="m90.24,103.4c.14,0,.29.55.32,1.24.03.69-.06,1.25-.2,1.26-.14,0-.29-.55-.32-1.24-.03-.69.06-1.25.2-1.26Z"/>
      </g>
      <g>
        <g>
          <rect class="cls-3" x="46.02" y="44.7" width="83.24" height="56.11" transform="translate(-3.33 4.21) rotate(-2.7)"/>
          <path class="cls-11" d="m47.36,102.76v-.03s-2.64-56.07-2.64-56.07h.03s83.18-3.92,83.18-3.92v.03s2.64,56.07,2.64,56.07h-.03s-83.18,3.92-83.18,3.92Zm-2.59-56.05l2.64,56,83.1-3.92-2.64-56-83.1,3.92Z"/>
        </g>
        <path class="cls-11" d="m128.19,43.43s-.24.29-.74.78c-.56.54-1.3,1.25-2.22,2.14-2.01,1.89-4.82,4.53-8.26,7.77-7.09,6.56-16.78,15.53-27.53,25.48l-.23.21-.25-.18c-.19-.14-.4-.29-.61-.44-11.97-8.72-22.8-16.61-30.72-22.38-3.86-2.86-7.01-5.19-9.26-6.85-1.04-.79-1.87-1.42-2.49-1.89-.57-.44-.86-.68-.84-.7s.33.18.93.58c.65.45,1.51,1.04,2.58,1.78,2.29,1.62,5.48,3.88,9.4,6.66,7.95,5.72,18.83,13.55,30.85,22.2.21.15.42.3.61.44l-.48.03c10.8-9.88,20.55-18.79,27.68-25.31,3.51-3.17,6.38-5.74,8.43-7.59.96-.84,1.73-1.52,2.31-2.03.53-.46.82-.69.84-.67Z"/>
        <path class="cls-11" d="m47.68,103.39c-.17-.13,5.73-8.1,13.16-17.82,7.43-9.71,13.59-17.48,13.76-17.36.17.13-5.72,8.1-13.16,17.82-7.43,9.71-13.59,17.48-13.76,17.36Z"/>
        <path class="cls-11" d="m102.2,66.22c.16-.14,6.7,7.2,14.6,16.38,7.91,9.19,14.19,16.74,14.03,16.88-.16.14-6.69-7.2-14.6-16.38-7.91-9.18-14.19-16.74-14.03-16.87Z"/>
      </g>
      <g>
        <path class="cls-13" d="m193.56,241.85c.18-1.15-.56-2.24-1.73-2.53l-2.23.15-7.97-2.77c-1.49-.38-2.99.68-3.02,2.17-.04,2.29-.96,8.53-2.82,6.57-.04-.05-.09-.08-.13-.13-2.63-2.93-5.67-4.35-6.85-4.18-1.15.16-1.43,1.6-.57,2.36.13.13.28.25.47.33.08.03.18.1.27.14.97.63,2.16,1.79,3.05,2.72.84.89,1.52,1.92,2.01,3.03.54,1.24.95,2.32,1.28,3.25l.12,7.33-3.18,34.27s-21.09-22.16-20.61-22.38l1.21,34.49,12.78,10.58c5.43,4.49,13.16,4.92,19.05,1.06,4.61-3.02,7.35-8.2,7.26-13.71l-.74-44.31.52-5.81,1.82-12.63Z"/>
        <path class="cls-13" d="m75.09,290.57l-23.08,52.85-18.27,38.12-13.57,4.56s-10.74,3.12-10.74,5.34,2.83,1.72,2.83,1.72c.52,3.32,5.12,1.44,8.33-.05,3.22-1.49,10.36-1.79,10.36-1.79-1.97,1.52-1.34,3.86-.2,4.66,1.14.8,3.12-.17,4.47-1.6,1.34-1.43,4.8-2.1,8.64-3.47,3.85-1.37,4.48-6.54,4.48-6.54l46.23-77.87-19.49-15.92Z"/>
        <g>
          <path class="cls-3" d="m151.73,309.75l5.81,7.68,12.59-27.93s-12.22-14.91-16.69-21.16c-4.43-6.2-7.75-7.28-7.75-7.28,0,0-8.12-2.41-12.17-2.33l-20.06,1.2-20.37,8.89c-5,2.18-9.26,5.77-12.26,10.33l-19.18,30.81,27.16,11.61,9.11,52.07c1.75,7.81,3.27,15.18,10.48,18.78l50.37-48.41-5.9-9.29-1.13-24.96Z"/>
          <path class="cls-11" d="m103.57,300.2c.12.08-2.99,4.91-6.93,10.78-3.95,5.87-7.25,10.57-7.37,10.49-.12-.08,2.98-4.9,6.93-10.78,3.95-5.87,7.25-10.57,7.37-10.49Z"/>
          <path class="cls-11" d="m145.8,349.64s-.46.31-1.34.8c-.88.49-2.16,1.17-3.75,1.99-3.18,1.65-7.61,3.86-12.56,6.19-4.95,2.33-9.47,4.34-12.77,5.74-1.65.7-2.99,1.26-3.92,1.62-.93.37-1.45.56-1.47.52-.01-.03.48-.28,1.39-.71.99-.46,2.29-1.05,3.85-1.77,3.26-1.49,7.75-3.55,12.7-5.88,4.94-2.33,9.39-4.49,12.61-6.05,1.55-.75,2.83-1.37,3.82-1.84.91-.43,1.41-.65,1.43-.62Z"/>
          <path class="cls-11" d="m101.96,288.92c-.06.04-.72-.83-1.77-2.22-1.06-1.39-2.51-3.33-4.47-5.1-1.96-1.77-4.11-2.9-5.77-3.4-1.65-.51-2.75-.5-2.75-.59,0-.03.27-.07.77-.06.5,0,1.22.08,2.08.3,1.73.41,4,1.54,6.01,3.36,2.01,1.82,3.44,3.83,4.43,5.27.98,1.46,1.52,2.4,1.47,2.44Z"/>
          <path class="cls-11" d="m143.4,314.3s.03.19.02.55c0,.36,0,.9-.05,1.58-.07,1.37-.29,3.36-.8,5.77-.99,4.81-3.45,11.37-8.19,17.27-4.74,5.91-10.61,9.74-15.09,11.75-2.24,1.02-4.14,1.67-5.46,2.04-.66.2-1.18.3-1.53.39-.35.08-.54.11-.54.1-.01-.04.72-.25,2.02-.68,1.3-.43,3.16-1.12,5.36-2.18,4.4-2.08,10.16-5.91,14.84-11.74,4.68-5.83,7.16-12.28,8.24-17.03.55-2.38.83-4.35.96-5.71.14-1.36.18-2.12.23-2.12Z"/>
          <g class="cls-18">
            <path class="cls-4" d="m92.32,341.7c-.09-.5,6.46-34.35,6.46-34.35l-9.87,14.82"/>
          </g>
          <path class="cls-11" d="m150.44,277.26s.04.2.07.58c.03.44.06.99.11,1.67.08,1.52.18,3.61.31,6.15.25,5.26.6,12.41.98,20.3.38,7.93.68,15.12.83,20.32.08,2.6.13,4.71.14,6.16,0,.68,0,1.24,0,1.68,0,.38-.01.58-.03.59-.02,0-.04-.2-.07-.58-.03-.44-.06-.99-.11-1.67-.08-1.52-.18-3.61-.31-6.15-.25-5.26-.6-12.41-.98-20.31-.38-7.93-.68-15.11-.83-20.31-.08-2.6-.13-4.71-.14-6.16,0-.68,0-1.24,0-1.68,0-.38.01-.58.03-.59Z"/>
          <g class="cls-17">
            <path class="cls-4" d="m110.24,366.48c-1.61-1.34-1.24-4.08.18-5.62s3.53-2.2,5.53-2.85c9.57-3.1,19.19-7.48,25.51-15.32.87-1.08,1.69-2.24,2.83-3.04,1.14-.8,2.69-1.18,3.93-.54,1.93,1.01,2.01,3.81,1.2,5.83-.99,2.47-2.9,4.56-5.28,5.76"/>
          </g>
          <g class="cls-17">
            <polygon class="cls-4" points="150.65 283.27 156.24 315.7 151.88 309.96 150.65 283.27"/>
          </g>
        </g>
        <g>
          <g>
            <path class="cls-3" d="m203.83,368.48l-9.45,32.42,40.27,11.97c.91-3.92-17.63-17.83-17.63-17.83l6.91-20.52-20.1-6.03Z"/>
            <g class="cls-2">
              <path class="cls-8" d="m205.09,389.58c-.84-.02-1.64.7-1.69,1.54-.05.84.67,1.66,1.51,1.69.84.03,1.83-.8,1.79-1.64-.04-.84-.94-1.76-1.77-1.59"/>
            </g>
            <g class="cls-2">
              <path class="cls-8" d="m194.38,400.89l1.08-3.23,38.21,12.68s1.56,1.31.98,2.52l-40.27-11.97Z"/>
            </g>
            <path class="cls-11" d="m217.73,395.02c-.06.19-1.07,0-2.23.34-1.16.31-1.92,1.02-2.07.89-.17-.09.47-1.18,1.88-1.57,1.4-.41,2.52.18,2.43.35Z"/>
            <path class="cls-11" d="m221.44,398.02c-.01.2-.96.29-1.88.92-.93.61-1.37,1.46-1.56,1.39-.19-.02.01-1.22,1.16-1.98,1.15-.78,2.33-.51,2.28-.33Z"/>
            <path class="cls-11" d="m222.34,403.79c-.19-.01-.17-1.08.65-2,.82-.93,1.87-1.08,1.91-.89.06.19-.71.6-1.37,1.37-.68.76-.99,1.57-1.19,1.53Z"/>
            <path class="cls-11" d="m218.79,390.17c-.14.15-.96-.38-2.09-.64-1.13-.28-2.1-.16-2.16-.36-.07-.18.99-.65,2.32-.33,1.33.31,2.07,1.21,1.93,1.33Z"/>
            <path class="cls-11" d="m219.25,385.1c-.02.08-.84-.03-2.01-.61-.59-.29-1.25-.71-1.92-1.28-.33-.28-.66-.6-.98-.96-.15-.17-.33-.36-.47-.66-.16-.27-.13-.83.22-1.07.3-.25.7-.27,1-.19.3.08.52.21.73.33.42.24.79.52,1.13.8.67.58,1.16,1.21,1.5,1.77.68,1.14.78,1.97.7,1.99-.11.04-.38-.71-1.12-1.71-.37-.5-.87-1.04-1.5-1.55-.32-.25-.67-.49-1.05-.7-.39-.24-.76-.35-.92-.19-.06.06-.07.09-.02.24.06.14.2.31.34.48.29.34.59.65.88.93.6.56,1.2.99,1.73,1.33,1.06.66,1.8.94,1.77,1.05Z"/>
            <path class="cls-11" d="m218.91,385.31c-.08,0-.26-.81.05-2.11.15-.64.45-1.39.93-2.13.24-.37.54-.73.88-1.07.35-.33.8-.78,1.59-.64.4.1.64.51.68.81.05.31,0,.55-.01.8-.07.49-.21.95-.4,1.36-.38.82-.94,1.43-1.48,1.83-1.1.81-1.99.8-1.98.73-.04-.12.76-.29,1.66-1.12.44-.41.9-.98,1.2-1.71.15-.36.26-.76.31-1.18.06-.45,0-.84-.17-.84-.2-.06-.64.16-.9.45-.31.3-.59.62-.82.94-.47.65-.79,1.32-.99,1.9-.41,1.17-.41,1.96-.53,1.96Z"/>
          </g>
          <path class="cls-11" d="m245.18,320.21c1.02,7.48-1.54,15.91-4.24,22.96l-17.66,41.52-19.55-3s-4.08,4.54-9.29,6.27c-2.33.78-10,2.28-16.31-2.26h0s-8.93,12.44-22.98,16.2c-14.05,3.76-35.32,5.84-45.62-10.6l49.03-47.24c1.01.24,42.23-27.55,64.49-33.88,0,0,20.26-3.73,22.13,10.03Z"/>
          <path class="cls-16" d="m202.27,381.53s.09-.06.26-.16c.21-.11.47-.25.8-.42.7-.37,1.75-.91,3.07-1.64,1.32-.73,2.92-1.65,4.67-2.88,1.74-1.23,3.64-2.79,5.29-4.91,1.67-2.09,2.94-4.82,3.43-7.94.51-3.1.34-6.53-.42-9.99-.76-3.43-2.36-7.01-5.39-9.39-3.01-2.38-6.98-3.62-11.04-3.93-2.04-.17-4.07-.14-6.05.05-1.98.21-3.92.57-5.8,1.02-3.76.93-7.27,2.25-10.55,3.65-6.54,2.85-12.21,5.94-17.19,8.06-4.96,2.18-9.18,3.46-12.15,4.06-.74.17-1.4.27-1.98.36-.57.1-1.06.16-1.46.2-.37.04-.67.06-.9.09-.2.02-.31.02-.31.01,0,0,.1-.03.3-.06.23-.04.52-.08.89-.14.39-.05.88-.13,1.45-.24.57-.11,1.23-.22,1.96-.41,2.94-.65,7.12-1.98,12.04-4.2,4.95-2.16,10.59-5.28,17.15-8.17,3.29-1.42,6.82-2.76,10.62-3.7,1.9-.46,3.86-.82,5.87-1.04,2.01-.19,4.08-.22,6.15-.05,4.13.32,8.19,1.58,11.31,4.05,1.55,1.24,2.79,2.79,3.68,4.47.9,1.68,1.47,3.46,1.87,5.21.76,3.52.92,7,.38,10.17-.52,3.17-1.84,5.98-3.57,8.09-1.7,2.14-3.64,3.7-5.42,4.92-1.78,1.22-3.41,2.11-4.74,2.82-1.34.71-2.4,1.21-3.12,1.55-.34.16-.61.28-.82.38-.19.08-.28.12-.29.11Z"/>
          <path class="cls-16" d="m214.53,327.04c.12.08-1.71,3.07-4.1,6.68-2.38,3.61-4.41,6.48-4.53,6.4-.12-.08,1.71-3.07,4.1-6.68,2.38-3.61,4.41-6.48,4.53-6.4Z"/>
          <path class="cls-16" d="m200.43,378.23c.01.08-1.36.37-3.55.92-2.19.54-5.21,1.38-8.46,2.51-3.25,1.14-6.13,2.37-8.18,3.31-2.06.94-3.31,1.57-3.35,1.5-.02-.03.28-.23.82-.55.55-.33,1.35-.77,2.36-1.28,2.02-1.03,4.89-2.32,8.17-3.47,3.28-1.14,6.32-1.93,8.55-2.38,1.11-.23,2.02-.39,2.65-.47.63-.09.98-.12.99-.08Z"/>
          <path class="cls-16" d="m222.92,381.97c-.09.03-.32-.89-1.15-2.11-.81-1.21-2.33-2.7-4.46-3.4-2.13-.69-4.24-.37-5.61.13-1.39.5-2.12,1.11-2.17,1.03-.02-.02.14-.2.47-.47.33-.27.86-.6,1.56-.91,1.39-.62,3.62-1.02,5.9-.29,2.28.74,3.85,2.38,4.61,3.7.39.66.62,1.24.73,1.65.12.41.14.65.11.65Z"/>
          <path class="cls-16" d="m138.34,366.48s.13.32.25.93c.11.61.22,1.51.23,2.63,0,2.22-.49,5.4-2.31,8.35-1.8,2.97-4.57,4.77-6.7,5.44-1.07.36-1.98.47-2.6.5-.62.03-.97-.02-.97-.05-.01-.11,1.4-.03,3.45-.8,2.03-.74,4.64-2.51,6.38-5.37,1.75-2.84,2.29-5.92,2.38-8.09.09-2.19-.21-3.54-.11-3.56Z"/>
          <g>
            <path class="cls-16" d="m116.29,388.91c-.11.09-.63-.36-1.11-1.04-.49-.68-.75-1.32-.62-1.4.12-.07.57.43,1.05,1.09.48.67.8,1.26.69,1.35Z"/>
            <path class="cls-16" d="m120.41,393.25c-.09.11-.66-.27-1.26-.85-.6-.58-1-1.13-.9-1.23s.67.28,1.26.85c.59.57.99,1.12.9,1.23Z"/>
            <path class="cls-16" d="m125.26,396.76c-.07.13-.7-.14-1.4-.6-.7-.46-1.2-.92-1.12-1.04.09-.12.71.15,1.4.6.69.45,1.19.91,1.12,1.04Z"/>
            <path class="cls-16" d="m130.76,399.13c-.04.14-.71.02-1.5-.26-.79-.28-1.38-.62-1.32-.75s.73-.01,1.5.26c.77.28,1.36.62,1.32.75Z"/>
            <path class="cls-16" d="m136.67,400.06c0,.14-.68.2-1.52.12-.84-.08-1.49-.25-1.47-.4.02-.14.7-.2,1.52-.12.81.07,1.47.25,1.47.4Z"/>
            <path class="cls-16" d="m142.65,399.73c.02.14-.65.3-1.48.36-.45.03-.85.02-1.12-.01h.02c-.25-.02-.4-.07-.4-.13s.13-.14.36-.21h.02c.27-.07.66-.13,1.1-.16.81-.06,1.49.02,1.51.16Z"/>
            <path class="cls-16" d="m148.54,398.67c.03.14-.6.39-1.41.57-.81.17-1.49.2-1.52.06-.02-.14.61-.4,1.41-.57.8-.17,1.48-.2,1.52-.06Z"/>
            <path class="cls-16" d="m154.28,396.92c.05.13-.55.46-1.34.72-.79.26-1.46.37-1.5.23s.56-.46,1.34-.72c.78-.26,1.45-.36,1.5-.23Z"/>
            <path class="cls-16" d="m159.79,394.58c.06.13-.5.51-1.26.86-.76.34-1.42.52-1.47.38-.06-.13.51-.52,1.26-.86.75-.34,1.41-.51,1.47-.38Z"/>
            <path class="cls-16" d="m165.05,391.7c.08.12-.45.56-1.16.98-.72.42-1.36.65-1.43.53-.07-.13.45-.56,1.16-.98.71-.41,1.35-.65,1.43-.53Z"/>
            <path class="cls-16" d="m170,388.32c.09.11-.39.6-1.07,1.09-.68.49-1.29.78-1.37.66-.08-.12.4-.61,1.07-1.09.67-.48,1.28-.78,1.37-.66Z"/>
            <path class="cls-16" d="m174.62,384.5c.1.11-.33.63-.96,1.18-.63.54-1.21.9-1.3.78-.09-.11.34-.64.96-1.18.62-.54,1.21-.89,1.3-.78Z"/>
            <path class="cls-16" d="m178.98,380.38c.09.11-.32.65-.92,1.22-.6.57-1.17.94-1.27.84-.11-.11.31-.65.91-1.22.61-.57,1.18-.95,1.27-.84Z"/>
            <path class="cls-16" d="m183.72,376.69c.08.12-.4.61-1.06,1.09-.67.48-1.28.78-1.37.67-.09-.11.39-.6,1.06-1.09.68-.49,1.29-.79,1.37-.67Z"/>
            <path class="cls-16" d="m188.98,373.8c.06.13-.49.54-1.23.9-.74.36-1.39.56-1.46.43-.07-.13.48-.53,1.23-.9.75-.37,1.41-.57,1.46-.43Z"/>
            <path class="cls-16" d="m194.7,372.01c.02.14-.6.42-1.39.62-.79.2-1.47.25-1.52.11-.04-.14.58-.41,1.39-.62.81-.2,1.49-.25,1.52-.11Z"/>
            <path class="cls-16" d="m200.68,371.71c-.01.14-.69.19-1.5.18-.82-.02-1.49-.09-1.5-.23,0-.14.66-.3,1.5-.29.84.01,1.51.2,1.49.34Z"/>
            <path class="cls-16" d="m206.46,373.23c-.07.13-.71-.06-1.47-.33-.77-.27-1.38-.54-1.35-.68.03-.14.73-.09,1.52.19.8.28,1.37.7,1.3.82Z"/>
            <path class="cls-16" d="m205.19,377.58c-.09-.12.36-.61.89-1.21.53-.6.96-1.1,1.09-1.03.12.07-.13.73-.7,1.37-.57.64-1.19.97-1.28.86Z"/>
            <path class="cls-16" d="m199.9,380.33c-.04-.14.53-.5,1.29-.81.75-.31,1.42-.46,1.49-.33.07.13-.51.49-1.29.81-.78.32-1.44.47-1.49.33Z"/>
            <path class="cls-16" d="m194.18,382.16c-.05-.14.55-.46,1.34-.72.79-.26,1.46-.37,1.5-.23.04.14-.56.46-1.34.72-.78.26-1.46.37-1.5.23Z"/>
            <path class="cls-16" d="m188.58,384.3c-.05-.13.53-.49,1.3-.79.77-.3,1.44-.44,1.49-.31.05.13-.53.49-1.3.79-.77.3-1.44.44-1.49.31Z"/>
            <path class="cls-16" d="m183.05,386.64c-.06-.13.51-.5,1.28-.83.76-.33,1.43-.49,1.48-.36.06.13-.52.51-1.28.83-.76.33-1.42.49-1.48.36Z"/>
          </g>
        </g>
        <g>
          <g>
            <g>
              <g>
                <path class="cls-16" d="m171.87,215.16s6.54-1.97,15.23-11.66c8.69-9.69,12.2-21.97,13.35-22,1.15-.03,5.98-2.72,17.03,17.26,11.05,19.98,7.66,25.07,5.76,25.17-1.9.1-15.01-2.52-22.97-1.01-7.96,1.51-17.97,6.46-17.97,6.46l-10.43-14.22Z"/>
                <path class="cls-11" d="m158.58,227.49l2.59,4.14,1.16,1.86c1.59,2.55,4.9,3.4,7.52,1.95l13.88-6.03-9.71-18.33-13.67,8.65c-2.62,1.66-3.42,5.13-1.77,7.76Z"/>
                <path class="cls-11" d="m167.31,233.78l5.2,8.56,2.22-.8,15.73,10.96,3.54-8.42s-9.05-3.12-10.9-6.13c-1.85-3-.03-3.85-.03-3.85l-4.47-4.38-11.29,4.06Z"/>
                <path class="cls-11" d="m216.73,199.2c5.9,10.83,8.74,20.66,6.36,21.96-2.38,1.3-9.09-6.44-14.98-17.27-5.89-10.83-8.74-20.66-6.36-21.96,2.38-1.3,9.09,6.43,14.98,17.27Z"/>
              </g>
              <polygon class="cls-16" points="157.82 233.81 161.6 232.31 158.87 227.94 156.11 229.96 157.82 233.81"/>
              <polygon class="cls-16" points="180.14 231.22 170.25 238.62 168.77 236.18 180.14 231.22"/>
              <polygon class="cls-16" points="158.87 227.94 161.6 232.31 160.82 232.62 158.54 228.19 158.87 227.94"/>
              <path class="cls-16" d="m161.61,228.79c.07.12,1.94-.77,4.18-1.99,2.24-1.22,4.01-2.31,3.94-2.43-.07-.12-1.94.77-4.18,1.99-2.24,1.22-4.01,2.31-3.94,2.43Z"/>
              <path class="cls-16" d="m160.22,226.18c.07.12,1.76-.75,3.77-1.93,2.02-1.19,3.59-2.24,3.52-2.36-.07-.12-1.76.75-3.77,1.93-2.01,1.19-3.59,2.24-3.52,2.36Z"/>
              <path class="cls-16" d="m163.32,231.52c.03.06.48-.08,1.19-.36.36-.14.78-.32,1.25-.52.46-.21.94-.49,1.45-.77,2.04-1.14,3.58-2.22,3.52-2.33-.07-.13-1.74.77-3.76,1.89-.51.28-.97.58-1.42.8-.45.22-.85.43-1.18.6-.67.36-1.07.61-1.05.68Z"/>
              <path class="cls-16" d="m206.22,197.48s5.51-4.01,9.25,3.56c3.74,7.57-2.24,9.31-2.24,9.31-2.78-3.67-5.13-7.95-7.01-12.87Z"/>
              <path class="cls-11" d="m199.39,188.63s.09.53.34,1.47c.25.94.62,2.31,1.11,3.98.31.82.64,1.71,1,2.67.18.48.37.98.56,1.49.1.26.2.52.3.78.11.26.24.51.36.78.5,1.04,1.02,2.14,1.56,3.27.14.28.27.57.41.86.13.29.31.56.47.84.33.56.66,1.13.99,1.71.34.58.67,1.15.99,1.71.17.28.31.57.5.83.18.26.36.52.54.78.72,1.03,1.41,2.02,2.07,2.97.17.23.32.47.5.7.18.22.36.43.53.64.35.42.69.83,1.02,1.23.66.79,1.27,1.52,1.83,2.2,1.2,1.26,2.21,2.24,2.9,2.93.69.68,1.09,1.05,1.12,1.02.02-.02-.32-.43-.98-1.16-.67-.74-1.62-1.77-2.79-3.04-.54-.68-1.13-1.42-1.77-2.22-.32-.4-.65-.81-.99-1.23-.17-.21-.34-.43-.52-.64-.17-.22-.32-.46-.48-.7-.65-.95-1.33-1.94-2.04-2.97-.18-.26-.36-.52-.54-.78-.18-.26-.33-.55-.49-.82-.32-.56-.65-1.12-.98-1.7-.33-.57-.66-1.14-.99-1.69-.16-.28-.34-.55-.47-.84-.14-.29-.27-.57-.41-.85-.54-1.12-1.07-2.21-1.57-3.24-.12-.26-.26-.51-.37-.77-.1-.26-.2-.52-.3-.77-.2-.5-.39-1-.58-1.47-.38-.95-.73-1.83-1.05-2.64-.53-1.64-.95-2.97-1.26-3.92-.31-.92-.49-1.43-.52-1.42Z"/>
            </g>
            <g>
              <path class="cls-13" d="m184.52,234.13c.88.26,1.4,1.16,1.17,2.05-.43,1.7-1.13,4.37-1.7,6-.18.53-.38,1.06-.75,1.48-.37.42-.94.7-1.48.56-.57-.14-.96-.71-1.06-1.29-.1-.58.02-1.17.14-1.74.35-1.58,1-3.97,1.56-5.91.26-.91,1.21-1.43,2.12-1.16h0Z"/>
              <path class="cls-13" d="m187.23,236.89c.88.26,1.4,1.16,1.17,2.05-.43,1.7-1.13,4.37-1.7,6-.18.53-.38,1.06-.75,1.48-.37.42-.94.7-1.48.56-.57-.14-.96-.71-1.06-1.29s.02-1.17.14-1.74c.35-1.58,1-3.97,1.56-5.91.26-.91,1.21-1.43,2.12-1.16h0Z"/>
              <path class="cls-13" d="m189.84,238.55c.76.22,1.21,1.01,1.01,1.78-.37,1.47-.98,3.78-1.47,5.2-.16.46-.33.92-.65,1.28-.32.36-.82.6-1.29.49-.49-.12-.83-.61-.92-1.11-.09-.5.02-1.01.13-1.51.31-1.37.86-3.43,1.35-5.12.23-.79,1.05-1.23,1.83-1h0Z"/>
              <path class="cls-13" d="m192.81,238.88c.76.22,1.21,1.01,1.02,1.78-.37,1.48-.99,3.8-1.48,5.22-.16.46-.33.92-.65,1.29-.32.36-.82.61-1.29.49-.5-.12-.83-.62-.92-1.12-.09-.5.02-1.02.13-1.52.31-1.38.87-3.45,1.36-5.14.23-.79,1.05-1.24,1.84-1.01h0Z"/>
              <path class="cls-14" d="m183.58,243.69c-.14-.04.19-1.48.74-3.2.54-1.72,1.1-3.09,1.23-3.04.14.04-.19,1.48-.74,3.2-.54,1.72-1.1,3.09-1.23,3.04Z"/>
              <path class="cls-14" d="m189.21,245.96c-.14-.05.3-1.45.81-3.18.52-1.73.92-3.13,1.06-3.11.14.03-.04,1.5-.56,3.25-.52,1.75-1.18,3.09-1.31,3.03Z"/>
              <path class="cls-14" d="m186.42,245.6c-.14-.05.3-1.45.81-3.18.52-1.73.92-3.13,1.06-3.11.14.03-.04,1.5-.56,3.25-.52,1.75-1.18,3.09-1.31,3.03Z"/>
            </g>
          </g>
          <g>
            <path class="cls-11" d="m237.23,161.03c.11.09-3.99,5.66-9.16,12.44-5.17,6.78-9.46,12.21-9.57,12.12-.11-.09,3.99-5.65,9.16-12.44,5.17-6.78,9.46-12.21,9.57-12.12Z"/>
            <path class="cls-11" d="m264.06,176.9c.06.13-8.56,4.26-19.26,9.22-10.7,4.97-19.42,8.88-19.48,8.75-.06-.13,8.56-4.26,19.26-9.23,10.69-4.96,19.42-8.88,19.48-8.75Z"/>
            <path class="cls-11" d="m260.06,209.93c-.01.14-6.16-.33-13.73-1.06-7.57-.73-13.69-1.44-13.68-1.58.01-.14,6.16.33,13.73,1.06,7.57.73,13.69,1.44,13.68,1.58Z"/>
          </g>
        </g>
        <g>
          <g>
            <path class="cls-13" d="m102.4,228.45l6.79,38.6c1.17,6.67,7.5,11.22,14.31,10.28h0c7.08-.98,11.95-7.5,10.8-14.44l-1.1-6.64s9.5-2.58,8.51-12.11c-.48-4.6-2.24-13.98-3.94-22.46-1.9-9.49-11.11-15.79-20.8-14.23h0c-9.99,1.72-16.58,11.22-14.56,21.01Z"/>
            <g>
              <path class="cls-14" d="m133.21,256.26s-6.05,1.18-13.02-2.1c0,0,3.78,6.52,13.33,4.57l-.31-2.47Z"/>
              <g>
                <g>
                  <g>
                    <path class="cls-11" d="m135.69,228.11c.11.72-.42,1.4-1.17,1.52-.75.13-1.46-.35-1.57-1.07-.11-.72.41-1.4,1.17-1.52.76-.13,1.46.35,1.57,1.07Z"/>
                    <path class="cls-11" d="m136.01,225.8c-.15.2-1.29-.45-2.77-.28-1.49.15-2.49,1.03-2.67.87-.09-.07.05-.41.48-.8.43-.39,1.19-.81,2.11-.91.93-.1,1.74.15,2.23.44.5.29.69.6.61.69Z"/>
                  </g>
                  <g>
                    <path class="cls-11" d="m121.72,229.79c.11.72-.42,1.4-1.17,1.52-.75.13-1.46-.35-1.57-1.07-.11-.72.42-1.4,1.17-1.52.76-.13,1.46.35,1.57,1.07Z"/>
                    <path class="cls-11" d="m121.65,227.72c-.15.2-1.29-.45-2.77-.28-1.49.15-2.49,1.03-2.67.87-.09-.07.05-.41.48-.8.43-.39,1.19-.81,2.11-.91.93-.1,1.74.15,2.23.44.5.29.69.6.61.69Z"/>
                  </g>
                  <path class="cls-11" d="m128.31,238.85c-.02-.08.89-.34,2.36-.7.37-.08.73-.2.76-.46.06-.28-.15-.67-.38-1.08-.46-.86-.95-1.77-1.45-2.72-2.03-3.88-3.55-7.08-3.39-7.16.16-.08,1.93,3,3.97,6.87.49.96.96,1.87,1.41,2.74.19.41.5.86.37,1.44-.07.29-.32.52-.56.62-.23.1-.45.13-.63.16-1.5.25-2.43.36-2.45.28Z"/>
                  <path class="cls-11" d="m124.06,240.35c.24-.04.43,1.55,1.94,2.52,1.51.98,3.21.6,3.25.82.03.1-.35.35-1.07.45-.71.1-1.77,0-2.7-.6-.92-.6-1.39-1.48-1.52-2.12-.14-.66,0-1.07.11-1.07Z"/>
                </g>
                <path class="cls-11" d="m121.37,222.82c-.1.41-1.61.39-3.32.8-1.73.37-3.07,1.03-3.35.7-.12-.16.08-.56.6-1.01.52-.45,1.37-.92,2.41-1.15,1.03-.23,2.01-.18,2.68,0,.67.18,1.03.46.99.65Z"/>
                <path class="cls-11" d="m135.19,222.5c-.22.36-1.29.13-2.52.26-1.24.08-2.25.48-2.53.16-.12-.16,0-.51.42-.87.41-.36,1.13-.71,1.98-.78.85-.07,1.62.15,2.08.44.47.29.66.62.56.79Z"/>
              </g>
            </g>
          </g>
          <path class="cls-11" d="m137.81,205.36c-1.28-.97-3.33-.92-4.39.28.87-1.23.36-3.08-.85-4-1.21-.92-2.9-1.02-4.38-.63s-2.79,1.2-4.08,2.01c.15-.58-.19-1.2-.68-1.55-.49-.35-1.11-.48-1.72-.54-2.49-.25-5,.47-7.21,1.62-2.21,1.15-4.73,2.98-6.67,4.53h0c-2.03,1.58-4.05,3.71-6.1,6.52-.03.02-.05.04-.08.07-1.41,1.26-2.6,5.06-2.39,6.92.79,6.86,3.06,10.83,4.34,17.34.09.43.18.89.49,1.21.79.82,2.21.13,2.96-.74,1.82-2.1,2.45-4.97,2.54-7.73.09-2.76-.3-5.51-.24-8.27,0-.06,0-.13,0-.2.02-.67.08-1.39.2-2.11.12-.45,1.29-4.39,5.08-5.03,4.02-.68,11.95,3.22,15.88,2.6,3.93-.62,4.13-3.39,4.13-3.39l2.31,4.7s.88-2.76.37-5.87c.96-.95,1.7-2.12,1.95-3.43.29-1.56-.22-3.32-1.5-4.29Z"/>
          <g>
            <path class="cls-13" d="m106.17,232.55c-.17-.05-6.87-1.18-5.9,5.3s7.38,4.19,7.37,4c-.02-.19-1.47-9.31-1.47-9.31Z"/>
            <path class="cls-14" d="m105.26,239.69s-.1.1-.28.21c-.18.11-.49.22-.85.14-.73-.15-1.48-1.15-1.69-2.32-.11-.59-.06-1.17.08-1.66.13-.5.39-.88.73-.99.34-.13.62.04.72.21.12.17.09.3.13.31.02.01.13-.13.03-.39-.05-.12-.15-.27-.32-.37-.18-.1-.42-.13-.66-.07-.5.11-.89.63-1.05,1.18-.18.55-.25,1.21-.13,1.87.24,1.3,1.1,2.43,2.09,2.56.48.05.85-.14,1.02-.32.18-.19.19-.34.17-.35Z"/>
          </g>
        </g>
        <path class="cls-10" d="m91.38,279.54s.18-.1.57-.09c.38,0,.96.2,1.48.73.53.51.92,1.42.86,2.46-.02,1.04-.42,2.16-.76,3.37-.34,1.19-.57,2.63.23,3.85.71,1.24,2.16,2.19,2.76,3.92.57,1.67.1,3.81-1.45,5.02-.75.61-1.7,1-2.7,1.05-1.01.04-1.97-.24-2.89-.47-.92-.23-1.86-.42-2.69-.17-.84.23-1.46.91-1.99,1.62-.54.72-1.01,1.51-1.71,2.13-.68.64-1.63,1-2.53.93-1.8-.12-3.26-1.3-3.99-2.65-.74-1.37-.93-2.81-1.02-4.08-.08-1.28-.03-2.43-.06-3.43-.02-1-.09-1.86-.22-2.55-.25-1.39-.66-2.08-.61-2.1.01,0,.13.16.29.5.16.34.36.86.52,1.56.16.7.26,1.57.31,2.58.05,1.01.04,2.16.13,3.41.1,1.24.32,2.63,1.03,3.9.68,1.23,2.05,2.29,3.64,2.38.79.05,1.57-.25,2.17-.82.62-.56,1.08-1.33,1.63-2.07.54-.73,1.24-1.53,2.26-1.81,1-.29,2.03-.07,2.96.16.94.24,1.85.5,2.74.46.88-.04,1.74-.39,2.41-.93,1.38-1.07,1.81-2.98,1.32-4.48-.49-1.53-1.89-2.5-2.67-3.84-.4-.67-.6-1.45-.57-2.17.02-.72.18-1.39.36-2,.38-1.22.78-2.29.82-3.28.08-.98-.25-1.81-.72-2.31-.46-.52-.98-.73-1.34-.77-.36-.04-.56.01-.56-.01Z"/>
        <path class="cls-10" d="m94.13,349.53s.06.24.3.62c.23.37.73.86,1.55,1.08.8.23,1.93.18,2.85-.6.94-.74,1.61-2.01,1.91-3.49.32-1.49.26-3.19.55-5.02.15-.91.42-1.86.92-2.73.49-.87,1.28-1.67,2.3-2.06,1.01-.41,2.14-.42,3.21-.29,1.08.12,2.15.36,3.24.5,1.09.15,2.19.16,3.26-.16,1.07-.3,2.08-.86,2.92-1.62.84-.77,1.48-1.74,1.8-2.79.31-1.05.28-2.17-.06-3.19-.65-2.02-2.39-3.66-4.35-3.87-1.96-.22-3.8.75-5.69.79-.95.04-1.87-.21-2.64-.59-.78-.38-1.45-.87-2.07-1.33-1.23-.94-2.35-1.77-3.5-2.14-1.14-.4-2.22-.22-2.95.19-.75.4-1.14.98-1.28,1.39-.15.42-.13.67-.16.67,0,0-.06-.25.06-.7.12-.45.51-1.08,1.28-1.54.38-.22.85-.41,1.4-.48.55-.07,1.14,0,1.75.19,1.22.36,2.4,1.21,3.63,2.12,1.23.88,2.7,1.89,4.48,1.79.88-.03,1.78-.28,2.73-.5.94-.22,1.96-.46,3.04-.33,2.18.23,4.06,2,4.78,4.19.37,1.1.41,2.34.07,3.5-.35,1.15-1.04,2.2-1.94,3.02-.91.82-1.99,1.42-3.14,1.74-1.15.34-2.36.33-3.47.16-1.12-.15-2.19-.39-3.23-.51-1.04-.12-2.08-.12-2.98.25-.91.34-1.61,1.04-2.08,1.84-.47.81-.74,1.7-.89,2.57-.3,1.76-.26,3.49-.61,5.03-.34,1.54-1.07,2.87-2.09,3.65-1.01.82-2.26.85-3.09.57-.86-.26-1.37-.81-1.59-1.22-.22-.42-.21-.67-.21-.67Z"/>
        <path class="cls-10" d="m128.1,288.94s.16-.38.69-.93c.53-.54,1.49-1.26,2.96-1.5,1.43-.26,3.43.25,4.78,1.9.68.8,1.11,1.92,1.2,3.09.15,1.15.1,2.44.76,3.48.32.51.86.88,1.46,1.08.61.21,1.29.27,1.98.31.7.04,1.42.03,2.16.11.73.08,1.54.24,2.19.77.33.25.57.6.76.97.17.39.23.82.2,1.25-.08.85-.5,1.62-1.04,2.26-.54.64-1.22,1.18-1.99,1.57-.75.38-1.54.69-2.31,1.05-.77.35-1.52.75-2.13,1.31-.62.56-1.04,1.3-1.25,2.13-.41,1.69-.03,3.5-.12,5.41-.08.95-.28,1.92-.76,2.8-.46.87-1.32,1.65-2.38,1.79-1.06.17-2.1-.3-2.87-.95-.78-.65-1.4-1.46-1.91-2.33-.5-.85-.97-1.71-1.54-2.46-.57-.75-1.27-1.39-2.13-1.66-.85-.29-1.78-.16-2.62.17-.85.33-1.64.82-2.43,1.3-.8.48-1.59.98-2.49,1.3-.89.33-1.83.47-2.75.45-1.85-.03-3.61-.7-5.01-1.76-1.4-1.05-2.42-2.58-2.74-4.23-.33-1.62-.02-3.45,1.19-4.56.59-.56,1.33-.88,2.06-1.06.73-.19,1.45-.28,2.15-.37,1.38-.17,2.72-.44,3.68-1.25.96-.8,1.53-1.91,1.96-2.97.42-1.07.71-2.13,1.07-3.1.36-.97.79-1.85,1.35-2.55.57-.7,1.18-1.23,1.75-1.68,1.15-.89,2.2-1.4,2.99-1.45.8-.08,1.12.34,1.11.31-.01.06-.34-.32-1.1-.21-.74.07-1.77.6-2.87,1.5-.55.46-1.15,1-1.68,1.67-.53.68-.93,1.54-1.27,2.5-.35.96-.62,2.02-1.04,3.12-.43,1.08-1,2.25-2.03,3.13-1.04.89-2.48,1.18-3.86,1.36-1.37.2-2.9.35-3.96,1.35-1.06.98-1.36,2.65-1.04,4.16.31,1.53,1.26,2.95,2.59,3.94,1.32.99,2.99,1.62,4.73,1.64.86.01,1.74-.12,2.56-.43.83-.3,1.6-.78,2.4-1.26.79-.48,1.6-.99,2.51-1.35.9-.36,1.98-.51,2.96-.18.99.31,1.78,1.05,2.38,1.83.61.79,1.09,1.67,1.58,2.51.49.83,1.08,1.6,1.79,2.19.71.59,1.59.98,2.46.84.87-.12,1.59-.74,2.01-1.52.43-.78.63-1.69.7-2.59.1-1.79-.29-3.66.15-5.49.22-.91.71-1.76,1.4-2.37.68-.62,1.48-1.03,2.26-1.39.78-.36,1.57-.66,2.3-1.03.72-.36,1.35-.86,1.85-1.45.5-.59.88-1.28.95-2,.03-.36-.03-.71-.16-1.03-.16-.31-.36-.61-.63-.82-.54-.44-1.26-.61-1.96-.69-.71-.08-1.43-.08-2.14-.12-.71-.04-1.42-.11-2.09-.35-.66-.23-1.28-.66-1.64-1.25-.73-1.2-.64-2.52-.78-3.64-.08-1.15-.47-2.17-1.1-2.95-1.26-1.59-3.14-2.11-4.53-1.89-1.41.2-2.37.87-2.91,1.38-.55.52-.74.88-.77.86Z"/>
        <path class="cls-10" d="m111.27,272.06s-.63.72-2.07,1.02c-.71.15-1.59.2-2.55.02-.93-.2-2.02-.61-2.73-1.57-.68-.95-.9-2.03-.98-2.98-.08-.96.02-1.82.18-2.53.32-1.43,1.04-2.1,1.06-2.05.07.05-.49.75-.7,2.12-.11.68-.17,1.51-.06,2.41.1.89.34,1.9.92,2.71.59.81,1.55,1.2,2.41,1.41.88.19,1.71.18,2.38.09,1.37-.19,2.09-.74,2.14-.66Z"/>
        <path class="cls-10" d="m154.32,269.51s0,.1-.07.28c-.06.18-.18.43-.39.72-.4.58-1.22,1.32-2.49,1.66-.62.16-1.36.21-2.11.05-.77-.16-1.48-.64-2.13-1.14-.66-.49-1.32-1.07-2.11-1.29-.78-.24-1.64.1-2.13.84-.52.73-.81,1.62-1.23,2.43-.4.84-1.04,1.55-1.77,2.01-1.46.96-3.19.98-4.38.48-1.21-.49-1.93-1.32-2.3-1.92-.37-.61-.43-1.01-.41-1.02.04-.02.17.35.58.9.4.54,1.12,1.27,2.26,1.69,1.11.42,2.67.36,3.98-.53.66-.44,1.2-1.06,1.57-1.84.4-.78.68-1.68,1.26-2.51.29-.41.69-.79,1.19-.97.49-.19,1.03-.2,1.5-.06.95.29,1.61.91,2.26,1.4.64.51,1.26.94,1.94,1.1.67.17,1.34.14,1.92.01,1.18-.27,1.98-.91,2.41-1.43.44-.52.58-.89.62-.87Z"/>
        <path class="cls-10" d="m161.45,308.77s-.42-.22-1.11-.72c-.68-.51-1.66-1.28-2.73-2.37-.53-.55-1.09-1.19-1.59-1.96-.49-.78-.87-1.72-1-2.75-.13-1.03-.04-2.18.51-3.21.27-.51.66-.98,1.13-1.35.47-.37.98-.65,1.48-.94.49-.29.97-.58,1.33-.96.37-.37.62-.83.77-1.32.29-.99.21-2.04.1-3.02-.12-.99-.26-1.96-.21-2.88.07-.9.29-1.83.93-2.39,1.21-1.05,2.5-1.34,3.37-1.35.91,0,1.27.47,1.24.46-.03.04-.39-.33-1.23-.26-.8.06-2.05.42-3.12,1.41-.52.48-.71,1.3-.75,2.15-.04.86.11,1.8.25,2.8.13,1,.23,2.11-.09,3.23-.16.56-.46,1.1-.88,1.54-.42.44-.94.75-1.44,1.05-1.02.57-1.95,1.14-2.42,2.08-.49.91-.59,1.96-.48,2.91.2,1.96,1.38,3.41,2.37,4.52,2.07,2.2,3.64,3.27,3.57,3.35Z"/>
        <path class="cls-10" d="m140.54,328.61s.16-.03.47-.03c.31,0,.76.01,1.34.08,1.15.13,2.86.4,4.74,1.38,1.85.95,3.86,2.87,4.48,5.67.3,1.37.18,2.98-.62,4.33-.78,1.34-2.11,2.46-3.76,2.81-.82.17-1.69.07-2.43-.13-.74-.19-1.44-.3-2.08-.04-.64.24-1.18.71-1.61,1.24-.44.53-.78,1.13-1.12,1.73-.65,1.19-1.43,2.39-2.61,2.98-1.14.59-2.39.67-3.43.41-1.06-.26-1.87-.89-2.39-1.56-.53-.67-.79-1.37-.92-1.94-.13-.58-.11-1.05-.07-1.35.04-.31.09-.46.1-.46.06,0-.12.65.17,1.76.15.54.43,1.19.95,1.81.51.61,1.27,1.17,2.25,1.38.96.22,2.12.12,3.14-.43,1.04-.54,1.75-1.63,2.39-2.83.65-1.17,1.43-2.59,2.97-3.22.77-.32,1.65-.18,2.38.01.75.2,1.46.27,2.2.13,1.47-.31,2.71-1.33,3.42-2.56.74-1.23.86-2.69.59-3.98-.56-2.63-2.43-4.49-4.19-5.45-1.79-.99-3.46-1.31-4.59-1.5-1.14-.18-1.78-.2-1.78-.25Z"/>
        <path class="cls-10" d="m121.81,361.64c-.11.02-.09-.93-.94-2.06-.41-.56-1.05-1.12-1.87-1.51-.82-.39-1.85-.57-2.85-.31-.99.28-1.8.95-2.31,1.7-.52.75-.78,1.56-.86,2.24-.17,1.4.32,2.22.22,2.25-.03.01-.17-.17-.33-.55-.16-.38-.3-.99-.26-1.74.04-.75.28-1.64.83-2.48.54-.84,1.43-1.61,2.57-1.93,1.15-.3,2.31-.07,3.19.38.89.45,1.56,1.1,1.96,1.73.41.63.6,1.22.64,1.63.05.41.02.64,0,.64Z"/>
        <path class="cls-10" d="m125.02,376.19c-.05,0-.09-.47-.45-1.23-.35-.74-1.07-1.8-2.4-2.46-1.29-.67-3.26-.7-4.88.37-.82.51-1.38,1.37-2.02,2.28-.33.45-.67.92-1.14,1.3-.46.39-1.09.66-1.74.65-1.34-.06-2.29-.97-3-1.8-.71-.85-1.31-1.72-2.12-2.21-.8-.51-1.75-.6-2.59-.47-.85.13-1.59.48-2.19.91-1.2.88-1.86,1.94-2.31,2.65-.43.73-.65,1.15-.68,1.13-.03-.01.12-.46.51-1.23.4-.75,1.02-1.88,2.27-2.85.62-.48,1.42-.88,2.34-1.04.91-.16,1.99-.09,2.91.48.93.56,1.56,1.48,2.26,2.29.67.79,1.57,1.58,2.62,1.61,1.07.03,1.85-.86,2.46-1.73.62-.87,1.25-1.82,2.17-2.38,1.79-1.15,3.93-1.07,5.31-.29,1.41.76,2.11,1.91,2.42,2.71.16.4.22.74.26.96.02.23.03.34,0,.35Z"/>
        <path class="cls-10" d="m132.69,339.91c-.06.09-.98-.8-2.88-1.27-.94-.23-2.1-.35-3.37-.18-1.26.16-2.63.61-3.8,1.48-1.18.86-1.97,2.07-2.4,3.25-.42,1.19-.49,2.37-.36,3.32.27,1.93,1.17,2.88,1.06,2.94-.02.02-.25-.2-.56-.67-.32-.46-.67-1.22-.86-2.22-.18-1-.15-2.25.27-3.53.43-1.27,1.27-2.59,2.54-3.51,1.26-.94,2.72-1.39,4.05-1.54,1.34-.15,2.55.01,3.52.3.97.29,1.69.69,2.14,1.03.45.34.66.57.64.59Z"/>
      </g>
    </g>
  </g>
</svg>