<svg width="486" height="132" viewBox="0 0 486 132" fill="none" xmlns="http://www.w3.org/2000/svg">
<path fill-rule="evenodd" clip-rule="evenodd" d="M9.78257 4.56704C3.65717 4.97165 1.4766 6.45453 0.49039 10.886C0.218428 12.1078 0.203003 15.1908 0.203003 68.0312V123.885L0.567838 125.253C1.04048 127.026 1.48829 127.934 2.34184 128.849C3.50682 130.097 5.25484 130.786 8.07773 131.111C9.93552 131.325 56.7898 131.325 59.71 131.111C75.5312 129.954 84.71 125.086 89.5243 115.301C92.3795 109.497 93.677 101.047 93.1859 91.4516C92.7265 82.4731 91.1012 76.7228 87.6792 71.9689C85.9823 69.6112 83.1536 67.0388 80.8118 65.7235C80.3686 65.4746 80.0076 65.2344 80.0097 65.1898C80.0117 65.1451 80.3116 64.8894 80.6761 64.6215C81.7951 63.799 83.9802 61.3885 85.0312 59.8173C86.8796 57.054 88.248 53.6873 89.0369 49.962C90.4609 43.2396 90.3722 33.6961 88.825 27.1151C85.8385 14.4126 77.2203 7.44545 61.8207 5.28437C56.8705 4.58977 56.5016 4.58019 33.1632 4.54625C20.7504 4.52823 10.2291 4.53765 9.78257 4.56704ZM297.585 4.64107C292.382 5.03968 290.129 6.61787 289.218 10.5012C288.643 12.9527 288.627 14.7535 288.682 69.4113L288.736 123.235L289.086 124.747C289.961 128.525 291.531 130.12 295.14 130.895C296.443 131.175 297.962 131.191 322.499 131.191C351.008 131.191 350.199 131.216 355.865 130.195C366.55 128.272 373.512 123.846 377.668 116.335C379.672 112.715 381.152 107.178 381.677 101.344C381.896 98.9152 381.897 91.0057 381.68 88.6516C381.034 81.6559 379.617 76.9691 376.88 72.7719C375.433 70.5526 372.786 67.9217 370.478 66.408C369.54 65.7931 368.747 65.2719 368.715 65.2499C368.683 65.2278 368.939 64.9742 369.283 64.6861C370.665 63.5301 372.68 61.2894 373.659 59.8192C375.444 57.1399 376.674 54.2038 377.53 50.5769C379.125 43.8225 379.021 33.151 377.295 26.4594C373.662 12.3687 363.226 5.65505 343.363 4.63133C339.638 4.43942 300.109 4.44786 297.585 4.64107ZM462.133 4.5633C461.776 4.59853 460.753 4.70472 459.86 4.79938C452.7 5.55812 446.509 8.34561 443.606 12.1185C440.242 16.4902 438.128 26.3224 437.65 39.8158C437.621 40.6395 437.565 41.3456 437.525 41.3849C437.486 41.4242 436.284 41.5336 434.856 41.6279C429.759 41.9645 427.628 43.0004 426.441 45.7184C425.893 46.9746 425.708 47.8446 425.513 50.0883C425.22 53.4611 425.659 56.638 426.684 58.5606C428.015 61.0581 430.275 62.037 435.14 62.2229L437.535 62.3144L437.536 92.0442C437.537 111.078 437.597 122.3 437.702 123.235C438.233 127.944 439.765 129.993 443.408 130.868C445.291 131.32 449.41 131.522 452.35 131.307C455.311 131.091 456.625 130.826 457.948 130.178C459.787 129.277 460.894 127.699 461.508 125.103C461.777 123.964 461.799 121.898 461.846 93.0894L461.897 62.2938L468.103 62.2204C474.835 62.1407 475.596 62.0563 477.441 61.1833C478.5 60.6822 479.731 59.5242 480.217 58.5719C480.976 57.084 481.242 55.6726 481.327 52.6876C481.426 49.2328 481.164 47.3677 480.334 45.6096C478.729 42.2118 476.243 41.4964 466.006 41.4878L462.086 41.4844L461.963 39.0895C461.803 35.9771 462.064 32.1609 462.526 30.8465C463.421 28.3013 465.507 27.1971 469.425 27.1956C476.224 27.1932 480.162 26.122 482.748 23.5714C484.73 21.6175 485.543 19.599 485.702 16.2366C485.915 11.7619 484.708 8.77182 481.944 6.92312C480.555 5.9939 478.807 5.36717 476.356 4.92002C474.905 4.65504 473.706 4.5974 468.709 4.55242C465.449 4.5232 462.49 4.52807 462.133 4.5633ZM53.412 27.0514C57.7845 27.5223 60.5712 28.8314 62.0151 31.093C62.6252 32.0489 63.2262 33.9783 63.4395 35.6672C63.6986 37.7179 63.6543 44.5073 63.3695 46.384C63.1021 48.1469 62.633 49.6728 62.056 50.6574C60.7631 52.8638 58.2336 54.1882 54.1084 54.8185C53.404 54.9262 47.8016 55.0216 39.3737 55.0699L25.7756 55.1475V41.0095V26.8715H38.7585C47.1435 26.8715 52.3329 26.9352 53.412 27.0514ZM342.029 27.0425C347.86 27.6747 350.665 29.6231 351.717 33.7721C352.101 35.2876 352.287 37.5634 352.29 40.8007C352.296 47.0769 351.576 50.0205 349.537 52.0599C348.455 53.1416 347.453 53.6821 345.517 54.2282C342.885 54.9703 342.202 55.0035 327.978 55.0767L314.462 55.1462V41.0088V26.8715H327.457C335.45 26.8715 341.06 26.9373 342.029 27.0425ZM126.036 40.7801C117.768 41.7775 112.916 45.0292 109.47 51.8839C106.747 57.3009 105.247 64.4007 104.497 75.4188C104.228 79.3761 104.228 93.3813 104.497 97.3382C105.369 110.15 107.342 118.122 110.991 123.575C113.925 127.96 117.643 130.404 123.246 131.633C124.732 131.96 125.353 131.997 129.365 132C133.249 132.003 134.131 131.955 136.142 131.631C141.981 130.692 148.703 128.563 156.155 125.293L158.022 124.474L158.235 125.235C159.404 129.418 161.688 130.788 167.927 131.05C172.843 131.257 175.395 130.375 178.323 127.457C179.947 125.839 180.837 124.365 181.513 122.176L181.888 120.962L181.938 86.9468C181.972 64.3137 181.932 52.1669 181.819 50.6474C181.388 44.8615 179.904 42.7841 175.558 41.8845C172.886 41.3315 165.951 41.3998 163.462 42.0037C162.205 42.3086 160.765 43.0441 160.076 43.7333C159.121 44.6885 158.111 46.8409 158.105 47.9323C158.103 48.2853 158.08 48.2815 156.764 47.7124C147.52 43.7161 139.77 41.4576 133.18 40.8401C131.515 40.6841 127.137 40.6473 126.036 40.7801ZM245.294 40.8468C238.887 41.5508 231.806 43.5991 223.24 47.2261L220.83 48.2466L220.64 47.3416C220.215 45.3086 218.885 43.4658 217.306 42.7192C215.301 41.7713 212.171 41.3896 207.625 41.5383C199.876 41.7921 197.715 43.4727 197.079 49.7417C196.966 50.8589 196.909 62.9616 196.909 85.8131C196.909 123.072 196.871 121.398 197.776 123.64C198.423 125.242 199.188 126.392 200.481 127.709C201.865 129.118 203.37 130.069 205.271 130.735C206.535 131.178 206.662 131.19 209.979 131.191C212.633 131.191 213.695 131.127 214.769 130.901C218.215 130.176 219.981 128.47 220.703 125.17C221.166 123.052 221.253 118.158 221.258 93.7653L221.264 69.3285L223.74 68.2098C232.021 64.4679 238.045 62.5767 242.493 62.3221C246.494 62.0932 247.859 63.4322 248.727 68.4371C248.855 69.1733 248.943 77.6957 249.02 96.6075C249.121 121.616 249.152 123.817 249.413 124.94C250.039 127.624 251.092 129.131 252.985 130.051C254.976 131.018 256.263 131.191 261.449 131.191C264.557 131.191 266.304 131.125 266.97 130.981C271.669 129.968 273.242 127.923 273.704 122.225C273.922 119.551 273.922 76.3943 273.705 71.6032C273.431 65.551 273.023 62.9227 271.65 58.3759C268.478 47.8719 263.43 42.6465 254.934 41.0731C253.217 40.7552 247.376 40.618 245.294 40.8468ZM400.678 41.6671C397.815 41.9977 395.649 43.0534 394.628 44.6152C393.916 45.7048 393.598 46.5335 393.259 48.1857C393.007 49.4106 392.979 52.4608 392.925 84.9172C392.864 120.824 392.893 122.994 393.457 125.399C394.004 127.732 395.166 129.291 396.992 130.143C398.589 130.889 399.952 131.116 403.44 131.221C406.329 131.307 406.729 131.285 407.986 130.967C412.417 129.849 415.699 126.651 416.96 122.227L417.32 120.962L417.368 87.1091C417.4 65.0292 417.359 52.4361 417.25 50.8987C416.795 44.484 414.994 42.331 409.527 41.6637C407.842 41.4581 402.47 41.4602 400.678 41.6671ZM140.165 62.8326C143.724 63.5527 149.065 65.478 155.3 68.2884L157.611 69.3301L157.614 86.3975L157.616 103.465L154.166 104.941C145.323 108.726 140.569 110.142 136.221 110.29C133.505 110.382 132.819 110.207 131.899 109.189C129.467 106.497 128.609 99.7262 128.761 84.4273C128.859 74.561 129.158 70.9476 130.192 67.1382C130.881 64.5962 132.129 62.8553 133.552 62.4494C134.539 62.1678 137.819 62.358 140.165 62.8326ZM57.924 77.7517C63.3104 78.6824 65.5215 80.7697 66.4605 85.8102C66.8083 87.6777 66.9666 95.9829 66.7026 98.5182C66.0145 105.126 63.9368 107.512 57.8715 108.66C56.7492 108.873 54.1641 108.922 41.1597 108.98L25.7756 109.048V93.1972V77.3464L41.0785 77.4157C54.3159 77.4758 56.5896 77.5213 57.924 77.7517ZM346.566 77.7465C352.048 78.6968 354.185 80.7647 355.151 86.0537C355.578 88.3925 355.587 97.771 355.164 100.17C354.216 105.555 352.14 107.603 346.557 108.66C345.435 108.873 342.85 108.922 329.846 108.98L314.462 109.048V93.1965V77.3451L329.764 77.4159C342.833 77.4765 345.286 77.5247 346.566 77.7465Z" fill="#20A6FF"/>
<path fill-rule="evenodd" clip-rule="evenodd" d="M402.707 0.0910479C397.317 0.80367 392.764 4.36077 390.295 9.78703C389.254 12.0744 388.935 13.8809 389.042 16.8861C389.171 20.5361 389.956 23.5202 391.662 26.8432C394.928 33.2053 400.355 36.6576 405.995 35.9599C411.363 35.2956 416.389 31.6091 419.011 26.4123C419.792 24.8653 420.623 22.2244 420.893 20.4324C422.364 10.6726 417.018 2.20148 408.246 0.394834C406.428 0.0202566 404.177 -0.103141 402.707 0.0910479ZM410.582 16.0743C410.582 12.3086 408.551 9.29003 405.305 8.23206C402.448 7.30057 399.638 7.94012 397.59 9.98804C395.82 11.758 394.997 14.1818 395.315 16.6882C395.98 21.9357 399.759 25.6527 403.7 24.9365C405.281 24.6493 406.819 23.7846 408.026 22.5056C409.74 20.6889 410.582 18.5697 410.582 16.0743Z" fill="#C4D600"/>
</svg>
