<svg width="437" height="132" viewBox="0 0 437 132" fill="none" xmlns="http://www.w3.org/2000/svg">
<path fill-rule="evenodd" clip-rule="evenodd" d="M373.69 0.345769C373.396 0.518642 371.362 4.02727 369.171 8.14272C360.821 23.8268 350.805 42.6901 344.26 55.0606C342.153 59.0444 339.777 63.5352 338.98 65.0402C338.184 66.5452 336.642 69.4425 335.554 71.4786C334.466 73.5148 332.924 76.4121 332.127 77.9171C324.29 92.7104 320.237 100.353 317.223 106.017C313.747 112.551 313.214 114.036 314.046 114.874C314.328 115.158 317.084 115.26 324.457 115.26C334.453 115.26 334.486 115.258 335.122 114.536C335.473 114.138 337.305 110.842 339.191 107.212C350.252 85.9342 354.453 77.8659 355.368 76.1465C356.774 73.5042 359.189 68.8872 361.684 64.0744C368.196 51.5089 373.214 41.9729 373.498 41.6204C373.978 41.0264 375.805 41.1285 376.378 41.7813C376.65 42.091 377.745 44.0831 378.813 46.2078C379.88 48.3324 381.522 51.5195 382.461 53.29C383.4 55.0606 385.295 58.6822 386.673 61.3381C388.05 63.994 389.639 67.0361 390.204 68.0985C391.366 70.2811 393.843 75.0208 396.68 80.4925C398.723 84.4318 410.564 107.13 412.969 111.719C413.758 113.224 414.631 114.636 414.909 114.858C415.289 115.16 417.89 115.26 425.381 115.26C436.171 115.26 436.145 115.264 436.145 113.515C436.145 113.087 435.458 111.457 434.618 109.894C432.192 105.379 431.21 103.531 428.231 97.8763C426.692 94.9548 425.042 91.8402 424.564 90.9549C423.589 89.1512 422.305 86.7355 418.572 79.6877C417.166 77.0318 413.782 70.6577 411.054 65.5231C408.325 60.3884 399.804 44.3084 392.118 29.7897C384.432 15.271 377.785 2.77306 377.348 2.01655C376.248 0.115274 375.029 -0.44133 373.69 0.345769ZM0.684483 17.3291C0.182727 17.8876 0.14502 21.8682 0.14502 74.4635V130.998L0.855464 131.499C1.48538 131.943 4.82892 132 30.4974 132C47.4053 132 60.8897 131.864 62.9444 131.675C72.3684 130.805 79.7663 128.404 85.3271 124.413C93.5195 118.532 97.7656 108.233 97.197 95.6228C96.8384 87.67 94.5262 81.7595 89.7899 76.6873C87.383 74.11 85.2207 72.4898 82.013 70.8606L79.9884 69.8323L81.8532 68.5302C93.1114 60.6672 95.5441 42.0511 86.9152 29.7884C82.7934 23.9304 76.1354 19.6685 67.9184 17.6275C65.2419 16.9627 64.4765 16.9454 33.2027 16.8382C2.32685 16.7323 1.20509 16.7493 0.684483 17.3291ZM115.86 17.6002L115.197 18.4484V74.4339V130.42L115.982 131.21L116.766 132L145.784 131.999C163.558 131.998 176.225 131.866 178.476 131.659C199.438 129.725 210.594 119.879 212.375 101.739C213.27 92.616 211.35 84.6102 206.831 78.6295C204.416 75.4325 200.081 71.9619 196.813 70.6082C195.226 69.9511 195.118 69.7261 196.133 69.1898C199.051 67.6491 202.568 63.7544 204.387 60.0504C206.483 55.784 206.972 53.6451 207.144 47.9783C207.273 43.7499 207.196 42.5337 206.641 40.0059C203.918 27.5939 193.845 19.043 179.651 17.0951C178.028 16.8723 166.517 16.7519 146.837 16.7519H116.522L115.86 17.6002ZM213.84 17.3407C213.098 18.1661 213.175 18.8437 214.227 20.7366C214.731 21.6435 215.794 23.6169 216.589 25.1219C217.385 26.6269 219.183 30.0312 220.586 32.687C225.383 41.7707 233.189 56.5073 234.398 58.7627C235.062 60.0021 237.869 65.2897 240.635 70.5129C243.401 75.7361 246.131 80.8788 246.703 81.9411C247.619 83.6447 252.875 93.5741 257.013 101.417C257.807 102.922 259.354 105.82 260.452 107.856C261.55 109.892 264.433 115.324 266.86 119.928C273.13 131.819 272.935 131.486 273.801 131.805C274.231 131.963 274.956 131.998 275.412 131.883C276.255 131.67 276.548 131.216 279.698 125.24C282.171 120.549 288.825 107.991 289.849 106.085C290.419 105.023 293.149 99.8802 295.916 94.657C298.682 89.4338 302.174 82.8425 303.676 80.0096C305.178 77.1767 306.981 73.7723 307.682 72.4444C308.383 71.1165 309.923 68.2192 311.102 66.006C312.283 63.7928 314.008 60.5333 314.938 58.7627C315.867 56.9922 317.018 54.8192 317.496 53.9339C317.973 53.0486 318.939 51.2378 319.644 49.9099C320.348 48.5819 322.003 45.4673 323.32 42.9885C324.638 40.5097 326.401 37.1778 327.238 35.5843C328.075 33.9908 329.158 31.9627 329.645 31.0774C332.683 25.5565 336.034 18.8946 336.034 18.3744C336.034 18.0386 335.808 17.5361 335.532 17.2576C335.096 16.8195 333.691 16.7519 325.001 16.7519H314.973L314.208 17.7981C313.786 18.3737 311.529 22.5384 309.192 27.0534C306.855 31.5684 304.335 36.4213 303.591 37.8378C302.848 39.2542 301.448 41.9342 300.48 43.7933C299.513 45.6524 297.358 49.7811 295.692 52.9681C294.026 56.1552 291.689 60.646 290.498 62.9477C289.306 65.2495 287.568 68.5813 286.634 70.3519C285.7 72.1225 283.957 75.4563 282.76 77.7603C281.564 80.064 279.585 83.8714 278.363 86.2207C276.693 89.4335 275.96 90.5384 275.407 90.6781C273.817 91.0802 273.296 90.6124 271.512 87.1836C270.565 85.3625 269.254 82.8586 268.599 81.6192C267.944 80.3798 266.431 77.4825 265.237 75.1807C264.043 72.879 261.776 68.5331 260.2 65.5231C258.624 62.5131 256.542 58.5293 255.573 56.6702C254.604 54.8111 252.485 50.7549 250.864 47.6564C249.242 44.5579 246.941 40.1395 245.751 37.8378C244.56 35.536 242.977 32.4939 242.234 31.0774C241.491 29.661 239.979 26.7637 238.873 24.639C237.767 22.5143 236.511 20.124 236.081 19.3273C234.58 16.5439 235.527 16.7519 224.337 16.7519C215.086 16.7519 214.331 16.7944 213.84 17.3407ZM61.0176 34.2522C64.101 34.9765 67.4816 36.6737 69.0936 38.3059C73.9133 43.1862 74.1834 52.9691 69.642 58.1936C67.6736 60.4583 64.0306 62.2733 60.1061 62.9448C55.8178 63.6788 21.0737 63.6653 20.0308 62.9294L19.3204 62.4285V48.6537C19.3204 35.9368 19.3632 34.8417 19.8797 34.3884C20.1871 34.1186 20.6547 33.8109 20.9183 33.7046C21.182 33.5984 29.8109 33.5601 40.0937 33.62C55.9629 33.7124 59.1265 33.8076 61.0176 34.2522ZM176.399 34.2616C182.537 35.6954 186.544 39.3167 187.732 44.5045C188.184 46.4811 188.129 51.0823 187.63 52.9681C186.34 57.8443 183.061 60.9273 177.407 62.5785C175.223 63.2162 174.233 63.251 155.421 63.3543L135.722 63.4622L135.047 62.5981C134.386 61.7508 134.373 61.4794 134.373 48.4792C134.373 34.5577 134.36 34.6839 135.811 33.8469C136.279 33.5768 141.507 33.5128 155.306 33.6084C171.246 33.7188 174.507 33.8199 176.399 34.2616ZM62.3052 80.8269C67.496 81.5732 71.1147 82.9986 73.7481 85.3335C79.2629 90.2232 79.6362 103.66 74.416 109.381C71.8778 112.163 67.7682 113.869 61.8341 114.603C60.2298 114.802 51.2301 114.938 39.7521 114.938C20.4645 114.938 20.3754 114.935 19.7694 114.261C19.1919 113.618 19.1558 112.808 19.0657 98.5671C19.0136 90.3082 19.0555 83.0846 19.1584 82.5148C19.5457 80.3704 18.2798 80.4918 40.1963 80.4989C51.691 80.5024 61.0112 80.6409 62.3052 80.8269ZM181.001 81.4025C186.486 82.8589 189.723 85.1404 191.563 88.846C192.887 91.5135 193.322 93.7537 193.314 97.8763C193.301 105.234 190.927 109.74 185.706 112.314C180.848 114.709 178.177 114.938 155.098 114.938H135.697L135.035 114.09C134.386 113.259 134.373 112.934 134.373 97.8116C134.373 82.4324 134.435 81.4457 135.459 80.7291C135.653 80.5939 145.374 80.5295 157.063 80.5865C177.812 80.6872 178.38 80.7066 181.001 81.4025Z" fill="#004481"/>
</svg>
