<svg width="526" height="132" viewBox="0 0 526 132" fill="none" xmlns="http://www.w3.org/2000/svg">
<mask id="mask0_119_186" style="mask-type:luminance" maskUnits="userSpaceOnUse" x="99" y="2" width="111" height="129">
<path d="M130.1 103.835L137.279 72.7542H146.909C160.48 72.7542 171.774 76.5189 171.511 89.2137C171.161 103.397 156.627 109.175 140.781 109.175H133.514C129.137 108.475 130.1 103.835 130.1 103.835ZM202.153 89.739C203.029 75.6434 192.348 63.3864 178.252 62.2482C191.823 60.0595 209.595 50.0787 209.595 31.8683C209.595 12.4321 189.984 2.01367 160.48 2.01367C147.785 2.01367 135.002 2.97672 122.395 5.07793L101.208 98.7567C101.208 98.7567 93.9414 123.008 114.691 127.998C120.031 129.399 125.635 130.187 131.15 130.275C186.132 133.339 202.153 108.562 202.153 89.739ZM148.31 23.6386C152.512 23.1133 156.715 22.9382 161.005 22.9382C172.036 22.9382 179.916 26.8779 179.741 35.8956C179.478 46.9269 168.359 53.0554 152.25 53.0554H146.034C141.481 53.0554 142.794 47.8024 142.794 47.8024L148.31 23.6386Z" fill="white"/>
</mask>
<g mask="url(#mask0_119_186)">
<path d="M230.17 -18.6479H79.4956V151.112H230.17V-18.6479Z" fill="#00498C"/>
</g>
<mask id="mask1_119_186" style="mask-type:luminance" maskUnits="userSpaceOnUse" x="319" y="2" width="116" height="129">
<path d="M337.068 130.625C341.533 130.625 349.938 128.874 352.915 116.004C355.191 105.761 359.043 88.5135 359.043 88.5135C362.02 88.5135 366.223 89.3014 371.038 89.3014C418.315 89.3014 434.687 58.9215 434.687 38.3472C434.687 15.8468 419.015 2.88934 384.871 2.71424C372.263 2.10138 359.656 3.06444 347.224 5.4283L319.471 130.625H337.068ZM374.978 24.5143C379.005 24.0765 383.12 23.8139 387.235 23.9014C398.266 23.9014 407.371 27.1408 407.371 40.3608C407.371 53.5809 397.128 66.7135 377.341 66.8886H373.577C364.647 66.8886 367.186 59.4468 367.186 59.4468L374.978 24.5143Z" fill="white"/>
</mask>
<g mask="url(#mask1_119_186)">
<path d="M455.261 -18.0352H298.984V151.199H455.261V-18.0352Z" fill="#00498C"/>
</g>
<mask id="mask2_119_186" style="mask-type:luminance" maskUnits="userSpaceOnUse" x="218" y="0" width="111" height="132">
<path d="M250.219 75.3807C250.219 55.0691 263.439 24.6892 293.644 24.6892C301.611 24.6892 315.619 26.7028 323.936 34.057C323.936 34.057 327 23.6386 327.876 19.4361C328.751 15.1462 327.175 8.40481 314.13 4.0273C306.338 1.31325 298.109 0 289.879 0C242.602 0 218 38.8723 218 76.9567C218 117.843 245.491 131.938 273.419 131.938C281.299 132.288 289.178 131.15 296.62 128.524C301.085 127.035 304.5 123.358 305.725 118.806L310.366 97.7936C302.223 104.447 291.98 108.037 281.562 107.862C261.863 107.862 250.394 95.1671 250.394 75.4683" fill="white"/>
</mask>
<g mask="url(#mask2_119_186)">
<path d="M348.625 -20.6621H197.514V152.337H348.625V-20.6621Z" fill="#00498C"/>
</g>
<mask id="mask3_119_186" style="mask-type:luminance" maskUnits="userSpaceOnUse" x="14" y="10" width="41" height="50">
<path d="M44.6506 11.732C33.8819 6.65407 21.8875 21.0123 21.1871 21.8003C18.3855 25.3898 16.0217 29.3296 14.0956 33.532L20.2241 36.6838C31.5181 42.1995 41.7615 49.8163 50.2538 59.0967C57.5205 41.1489 56.3823 16.985 44.6506 11.732Z" fill="white"/>
</mask>
<g mask="url(#mask3_119_186)">
<path d="M75.3806 -9.89307H-6.39136V79.5833H75.3806V-9.89307Z" fill="#00498C"/>
</g>
<mask id="mask4_119_186" style="mask-type:luminance" maskUnits="userSpaceOnUse" x="0" y="11" width="91" height="111">
<path d="M86.5872 77.3069C75.2057 95.6049 44.0378 116.354 35.2827 119.419C24.7767 123.884 12.6072 120.819 5.51567 111.889C3.32691 109.438 1.5759 106.811 0 103.922C69.8651 72.3165 58.0458 17.9479 44.8257 11.8193C53.2305 16.1968 61.0225 21.5374 68.1141 27.7535C74.155 33.094 79.6707 38.9599 84.5735 45.2635C92.0153 54.3687 92.8033 67.3262 86.5872 77.3069Z" fill="white"/>
</mask>
<g mask="url(#mask4_119_186)">
<path d="M111.539 -8.75488H-20.5743V142.094H111.539V-8.75488Z" fill="#FF7800"/>
</g>
<mask id="mask5_119_186" style="mask-type:luminance" maskUnits="userSpaceOnUse" x="448" y="10" width="42" height="50">
<path d="M484.853 59.0965C492.208 41.1487 490.982 17.0724 479.338 11.8194C468.569 6.74147 456.399 21.0997 455.962 21.8877C453.16 25.4772 450.709 29.417 448.783 33.6194L454.911 36.7712C466.293 42.1993 476.448 49.8162 484.853 59.0965Z" fill="white"/>
</mask>
<g mask="url(#mask5_119_186)">
<path d="M509.98 -9.89307H428.208V79.5833H509.98V-9.89307Z" fill="#00498C"/>
</g>
<mask id="mask6_119_186" style="mask-type:luminance" maskUnits="userSpaceOnUse" x="434" y="11" width="92" height="111">
<path d="M469.882 119.419C459.376 123.796 447.294 120.732 440.115 111.889C438.014 109.438 436.175 106.811 434.599 103.922C504.464 72.3165 492.558 17.9479 479.338 11.8193C487.742 16.1968 495.534 21.5374 502.626 27.7535C508.667 33.094 514.183 38.9599 519.085 45.2635C526.527 54.4563 527.228 67.3262 520.924 77.3069C509.805 95.5174 478.725 116.354 469.882 119.419Z" fill="white"/>
</mask>
<g mask="url(#mask6_119_186)">
<path d="M546.139 -8.75488H414.025V142.094H546.139V-8.75488Z" fill="#FF7800"/>
</g>
</svg>
