<svg width="726" height="132" viewBox="0 0 726 132" fill="none" xmlns="http://www.w3.org/2000/svg">
<path d="M17.6711 0C13.0118 0.0319776 8.55424 1.90887 5.27089 5.22119C1.98754 8.53351 0.14491 13.0124 0.14502 17.6807V132H114.367C119.045 131.994 123.53 130.129 126.838 126.814C130.146 123.5 132.008 119.007 132.014 114.319V0H17.6711ZM101.192 95.3064L30.9668 108.022V37.0569L101.192 24.3413V95.3064Z" fill="#0060A9"/>
<path d="M357.557 38.3888C336.767 38.3888 322.142 53.4053 322.021 77.6255C322.021 99.787 339.668 113.471 357.678 113.471C368.435 113.471 375.083 111.776 378.951 108.627V96.3961C373.361 98.8837 367.298 100.123 361.183 100.029C350.063 100.029 341.119 93.9741 339.668 84.286L339.547 83.4383H352.48C364.688 83.4383 373.27 82.3485 378.709 79.6841C384.148 77.0199 386.445 72.9025 386.445 66.363C386.445 49.0456 372.545 38.3888 357.557 38.3888ZM366.018 70.2383C362.633 71.4493 357.315 71.9337 348.492 71.9337H339.426V71.0859L339.547 68.6639C339.91 59.9446 346.437 52.1942 355.865 52.1942C359.627 52.0152 363.35 53.0324 366.501 55.1006C367.846 56.134 368.921 57.4773 369.637 59.0163C370.352 60.5554 370.686 62.2448 370.611 63.941C370.732 66.8474 369.402 69.0273 366.018 70.2383ZM395.389 66.363V112.26H412.432V69.7538C412.432 64.0621 413.519 59.9446 415.937 57.1593C418.354 54.374 421.739 53.2841 425.969 53.2841C427.508 53.2699 429.045 53.3915 430.562 53.6473V40.084C427.884 38.8115 424.944 38.1892 421.981 38.2675C402.883 38.3884 395.389 51.952 395.389 66.363ZM188.581 112.26V19.8604H171.659V112.26H188.581ZM234.391 38.3888C211.667 38.3888 201.877 53.8897 201.756 69.1484V112.26H218.678V70.3594C218.493 65.8045 219.857 61.3216 222.545 57.6438C223.807 56.1576 225.384 54.973 227.162 54.1767C228.94 53.3804 230.873 52.9927 232.819 53.042C237.654 53.042 241.643 54.4952 244.423 57.5227C247.203 60.5503 248.532 65.3943 248.532 71.6915V112.26H265.454V70.1172C265.454 49.6512 251.433 38.3888 234.391 38.3888ZM295.309 19.8604H278.508V86.587C278.629 103.541 287.09 113.471 305.462 113.592C313.319 113.592 317.912 111.049 319.846 106.932V96.3961C316.824 97.7283 312.714 98.3337 307.638 98.3337C303.77 98.3337 300.627 97.3649 298.452 95.064C296.276 92.7631 295.188 89.2512 295.188 84.286V53.042H309.934C317.186 53.042 320.208 48.4402 320.208 45.0493V38.2677H295.309V19.8604ZM616.218 38.3888C593.495 38.3888 583.704 53.8897 583.583 69.1484L583.704 112.26H600.506V70.3594C600.506 64.9099 601.956 60.6714 604.373 57.6438C605.635 56.1576 607.212 54.9729 608.99 54.1767C610.768 53.3804 612.701 52.9927 614.647 53.042C619.482 53.042 623.471 54.4952 626.251 57.6438C629.031 60.7925 630.36 65.3943 630.36 71.6915V112.26H647.161V70.1172C647.285 49.6512 633.382 38.3888 616.218 38.3888ZM475.406 38.3888C465.858 38.3888 459.935 44.0805 456.43 49.2879L455.1 51.2255V19.8604H438.298V77.1411C438.298 101.482 452.923 113.592 471.9 113.592C493.536 113.592 507.194 96.5172 507.194 74.7191C507.194 53.2842 493.416 38.3888 475.406 38.3888ZM473.834 99.1815C468.274 99.1815 463.318 97.6072 460.055 93.4897C456.791 89.3723 455.22 83.075 455.22 74.4769C455.22 62.7301 462.351 53.1631 472.021 53.042C477.702 53.042 482.295 54.6163 485.437 58.6126C488.58 62.609 490.151 68.664 490.151 77.7466C490.03 89.9778 483.383 99.1815 473.834 99.1815ZM541.883 38.3888C531.609 38.3888 524.841 41.1741 520.127 44.8071V56.675C526.051 53.8542 532.546 52.445 539.103 52.5576C544.663 52.5576 549.498 53.4053 552.278 55.5851C555.058 57.7649 556.388 61.5191 556.388 66.8475V68.5429H549.136C522.061 68.6638 513.116 78.231 513.116 90.9466C513.116 104.026 524.72 113.592 542.004 113.592H545.751C561.827 113.592 572.947 103.178 572.947 87.9191V70.9649C573.068 45.1704 558.201 38.5099 541.883 38.3888ZM556.63 88.0402C556.63 91.9154 555.663 94.9429 553.487 97.1227C551.311 99.3026 548.169 100.15 544.059 100.15C540.574 100.329 537.118 99.4425 534.148 97.6071C532.972 96.781 532.023 95.6709 531.389 94.3796C530.755 93.0883 530.457 91.6575 530.522 90.22C530.415 88.6889 530.745 87.1589 531.472 85.8082C532.2 84.4575 533.295 83.3417 534.631 82.5906C537.532 80.8952 542.246 80.1686 549.257 80.1686H556.63V88.0402ZM695.509 73.9925L695.147 73.5081L695.509 73.0237C702.882 63.6989 718.958 45.5338 724.88 40.0842H715.573C709.651 40.0842 705.662 40.6897 701.432 44.6861C692.971 52.6787 685.96 62.1246 678.829 71.3283L677.499 73.1448L677.62 19.8604H660.577V112.139H677.619V74.7191L678.949 76.5356C687.047 87.3136 695.266 98.2127 704.694 107.901C707.847 110.872 711.971 112.594 716.298 112.745C721.011 112.745 723.671 111.534 725.484 109.354C720.65 103.662 701.311 81.0163 695.509 73.9925Z" fill="#00A24F"/>
</svg>
