<svg width="741" height="132" viewBox="0 0 741 132" fill="none" xmlns="http://www.w3.org/2000/svg">
<path d="M305.432 89.0898C312.823 89.0898 317.167 82.6096 317.167 74.8971C317.167 67.0784 313.031 60.6051 305.432 60.6051C297.51 60.6051 293.711 67.0784 293.711 74.8971C293.711 82.6096 298.068 89.0898 305.432 89.0898ZM305.432 102.163C287.737 102.163 275.064 91.534 275.064 74.8971C275.064 58.4656 288.192 47.5283 305.432 47.5283C322.675 47.5283 335.81 58.3971 335.81 74.8971C335.81 91.534 323.031 102.163 305.432 102.163Z" fill="#EE3224"/>
<path d="M523.331 74.9106C523.331 67.9272 519.35 61.7174 512.407 61.7174C506.3 61.7174 501.378 66.9379 501.378 74.9106C501.378 82.6471 505.407 88.1517 512.407 88.1517C518.72 88.1517 523.331 82.9038 523.331 74.9106ZM483.512 101.047V27.355H501.659V52.6082H501.864C503.141 51.8072 509.008 47.5897 517.638 47.5897C531.769 47.5897 542.155 58.9515 542.155 73.9795C542.155 92.7593 530.64 102.214 517.525 102.214C507.608 102.214 502.569 97.5964 501.33 96.2613H501.046L500.782 101.047H483.512Z" fill="#EE3224"/>
<path d="M395.117 22.3945C389.513 22.3945 384.909 27.0022 384.909 32.5992C384.909 38.2065 389.517 42.8107 395.117 42.8107C400.725 42.8107 405.325 38.2065 405.325 32.5992C405.325 27.0022 400.725 22.3945 395.117 22.3945ZM386.008 48.8596H404.226V101.167H386.008V48.8596Z" fill="#EE3224"/>
<path d="M619.842 101.092H637.523V74.0959C637.523 67.7663 641.72 63.4393 647.078 63.4393C653.205 63.4393 656.683 67.424 656.683 74.0959V101.092H674.371V69.6251C674.371 57.7842 666.744 47.6445 652.757 47.6445C643.408 47.6445 638.55 52.7212 636.329 54.7204H635.955L635.777 48.9317H619.846L619.842 101.092Z" fill="#EE3224"/>
<path d="M685.544 101.099H703.67V76.8999H703.862L719.968 101.099H740.145L720.708 73.3979L739.645 48.9012H719.496L703.862 70.4471H703.67V27.417H685.544V101.099Z" fill="#EE3224"/>
<path d="M270.436 49.6297C269.07 49.2531 264.082 47.5381 257.465 47.5381C241.085 47.5381 228.809 57.7907 228.809 74.8589C228.809 90.3765 239.836 102.173 256.733 102.173C263.928 102.173 269.227 100.253 270.436 99.8965L269.549 84.6562C268.146 85.293 264.524 87.3606 260.344 87.3606C253.008 87.3606 247.651 82.1675 247.651 74.8589C247.651 67.1875 253.385 62.2409 260.556 62.2409C264.599 62.2409 268.204 64.1202 269.553 64.7878L270.436 49.6297Z" fill="#EE3224"/>
<path d="M431.612 74.4314C431.612 83.0716 436.439 88.4735 442.683 88.4735C448.341 88.4735 453.856 83.1743 453.856 75.14C453.856 67.0441 448.968 61.5018 442.683 61.5018C436.182 61.5053 431.612 67.3076 431.612 74.4314ZM471.78 48.829V101.088H454.127L453.863 95.8198H453.48C451.522 97.5862 447.445 102.242 436.055 102.242C423.431 102.242 412.37 91.2669 412.37 74.9107C412.37 59.7389 422.178 47.6172 437.223 47.6172C447.455 47.6172 451.635 52.1256 453.199 53.5565H453.671L453.849 48.829H471.78Z" fill="#EE3224"/>
<path d="M567.908 74.4006C567.908 83.0443 572.732 88.4496 578.979 88.4496C584.634 88.4496 590.152 83.147 590.152 75.1127C590.152 67.0167 585.261 61.4779 578.979 61.4779C572.471 61.4779 567.908 67.2803 567.908 74.4006ZM608.08 48.8051V101.068H590.419L590.156 95.7924H589.779C587.821 97.5588 583.737 102.225 572.355 102.225C559.727 102.225 548.666 91.243 548.666 74.8902C548.666 59.7081 558.474 47.5898 573.519 47.5898C583.754 47.5898 587.927 52.1017 589.499 53.5326H589.968L590.146 48.8051H608.08Z" fill="#EE3224"/>
<path d="M170.46 99.1537C175.541 100.691 183.267 102.101 191.459 102.101C206.973 102.101 222.449 96.6069 222.449 79.5763C222.449 56.1955 190.219 59.4339 190.219 50.1159C190.219 45.3507 195.173 44.3203 200.027 44.3203C206.764 44.3203 215.288 47.5553 217.181 48.3221L218.642 32.2192C213.939 30.6205 206.805 29.7065 200.095 29.7065C184.776 29.7065 169.67 35.6938 169.67 50.8621C169.67 73.8286 201.81 69.0429 201.81 81.0893C201.81 85.7278 197.189 87.4874 191.281 87.4874C183.167 87.4874 175.537 83.4274 172.237 81.9622L170.46 99.1537Z" fill="#EE3224"/>
<path d="M377.193 86.8442C376.296 87.0907 373.845 87.7205 372.161 87.7205C368.478 87.7205 364.452 85.9952 364.452 79.6143V61.947H375.875V48.812H364.452V31.98H346.268V48.812H338.319V61.947H346.268V82.6165C346.268 93.9885 351.546 102.136 364.996 102.136C368.902 102.136 372.486 101.615 374.947 101.146L377.193 86.8442Z" fill="#EE3224"/>
<path d="M106.292 66.0514C106.751 88.6208 86.3515 105.662 69.3038 105.662H27.1637L0.726074 132H68.8451C90.5929 132 111.454 112.436 111.454 89.0795C111.454 82.2193 110.626 73.2846 106.295 66.5101L106.292 66.0514ZM99.062 82.678C101.691 77.9813 102.982 72.8191 103.3 67.7972H84.1812C84.1812 72.4528 83.4041 77.5192 81.6548 82.678H99.062ZM80.4088 85.6288C78.2384 91.1505 73.083 98.3325 68.068 102.252C77.7797 102.252 88.8813 98.0141 96.9943 85.6288H80.4088ZM78.2384 82.678C79.9466 77.9813 80.7271 72.8191 81.1893 67.7972H52.2629C52.725 72.8191 53.5055 77.9813 55.2103 82.678H78.2384ZM51.9 82.678C50.1953 77.5192 49.271 72.4562 49.271 67.7972H30.1591C30.6178 72.8191 31.8638 77.9813 34.3902 82.678H51.9ZM66.774 99.2602C70.5498 95.8472 74.7878 90.3255 76.9513 85.6288H56.5009C58.6712 90.3255 62.9057 95.8472 66.774 99.2602ZM36.0984 85.6288C44.5709 98.0141 55.669 102.252 65.5314 102.252C60.3657 98.329 54.8919 91.1505 53.1358 85.6288H36.0984ZM81.6548 49.9279C83.4041 54.4877 84.1812 59.6465 84.1812 64.8019H103.3C102.982 59.6465 101.688 54.4877 99.062 49.9279H81.6548ZM96.9943 46.4704C88.8813 34.5884 77.7831 29.8917 68.068 29.8917C73.083 33.671 78.2384 40.8563 80.4088 46.4704H96.9943ZM55.2103 49.9279C53.5055 54.4877 52.725 59.6465 52.2629 64.8019H81.1893C80.7271 59.6465 79.9432 54.4877 78.2384 49.9279H55.2103ZM34.3936 49.9279C31.8673 54.4877 30.6178 59.6465 30.1625 64.8019H49.2744C49.2744 59.6465 50.1987 54.4877 51.9035 49.9279H34.3936ZM66.774 33.2054C62.9057 36.6184 58.6712 41.7738 56.5043 46.4704H76.9547C74.7878 41.7738 70.5498 36.6184 66.774 33.2054ZM53.1392 46.4704C54.8954 40.8529 60.3691 33.6675 65.5348 29.8917C55.6724 29.8917 44.5709 34.5884 36.1018 46.4704H53.1392ZM27.1637 65.5858C22.9292 58.8626 22.0015 49.9279 22.0015 43.0643C22.0015 19.7076 42.8695 0 64.6037 0H132.733L106.292 26.6636H64.1484C47.2034 26.6636 26.6982 43.8482 27.1637 65.5858Z" fill="#EE3224"/>
</svg>
