<svg width="44" height="43" viewBox="0 0 44 43" fill="none" xmlns="http://www.w3.org/2000/svg">
<g clip-path="url(#clip0_1192_842)">
<path d="M42.9036 42.1994H1.06629C0.601435 42.1994 0.215942 41.8081 0.215942 41.3362V35.7656C0.215942 35.2937 0.601435 34.9023 1.06629 34.9023H42.9036C43.3684 34.9023 43.7539 35.2937 43.7539 35.7656V41.3362C43.7539 41.8081 43.3684 42.1994 42.9036 42.1994ZM1.91665 40.473H42.0532V36.6288H1.91665V40.473Z" fill="#00ACAC"/>
<path d="M10.08 33.2911H5.7035C5.23864 33.2911 4.85315 32.8998 4.85315 32.4279V17.2812C4.85315 16.8093 5.23864 16.418 5.7035 16.418H10.08C10.5448 16.418 10.9303 16.8093 10.9303 17.2812V32.4279C10.9303 32.8998 10.5562 33.2911 10.08 33.2911ZM6.55385 31.5646H9.22963V18.1444H6.55385V31.5646Z" fill="#00ACAC"/>
<path d="M38.2664 33.2911H33.8899C33.425 33.2911 33.0396 32.8998 33.0396 32.4279V17.2812C33.0396 16.8093 33.425 16.418 33.8899 16.418H38.2664C38.7312 16.418 39.1167 16.8093 39.1167 17.2812V32.4279C39.1167 32.8998 38.7312 33.2911 38.2664 33.2911ZM34.7289 31.5646H37.4047V18.1444H34.7289V31.5646Z" fill="#00ACAC"/>
<path d="M24.1618 33.3026H19.7853C19.3205 33.3026 18.935 32.9113 18.935 32.4394V17.2812C18.935 16.8093 19.3205 16.418 19.7853 16.418H24.1618C24.6267 16.418 25.0122 16.8093 25.0122 17.2812V32.4279C25.0122 32.9113 24.638 33.3026 24.1618 33.3026ZM20.6357 31.5762H23.3115V18.1444H20.6357V31.5762Z" fill="#00ACAC"/>
<path d="M42.9035 14.8068H1.06623C0.601374 14.8068 0.215881 14.4154 0.215881 13.9435V6.117C0.215881 5.71416 0.487994 5.36887 0.873487 5.2768L21.7921 0.327654C21.9169 0.293126 22.0529 0.293126 22.1776 0.327654L43.0963 5.2768C43.4818 5.36887 43.7539 5.71416 43.7539 6.117V13.9435C43.7539 14.4154 43.3684 14.8068 42.9035 14.8068ZM1.91658 13.0803H42.0532V6.79607L21.9849 2.0541L1.91658 6.79607V13.0803Z" fill="#00ACAC"/>
<path d="M12.0075 18.1443H3.78742C3.32257 18.1443 2.93707 17.753 2.93707 17.2811V13.9433C2.93707 13.4714 3.32257 13.0801 3.78742 13.0801H12.0075C12.4723 13.0801 12.8578 13.4714 12.8578 13.9433V17.2811C12.8578 17.753 12.4723 18.1443 12.0075 18.1443ZM4.63778 16.4179H11.1458V14.8065H4.63778V16.4179Z" fill="#00ACAC"/>
<path d="M26.078 18.1443H17.8693C17.4044 18.1443 17.0189 17.753 17.0189 17.2811V13.9433C17.0189 13.4714 17.4044 13.0801 17.8693 13.0801H26.078C26.5429 13.0801 26.9284 13.4714 26.9284 13.9433V17.2811C26.9284 17.753 26.5542 18.1443 26.078 18.1443ZM18.7196 16.4179H25.2276V14.8065H18.7196V16.4179Z" fill="#00ACAC"/>
<path d="M40.1598 18.1443H31.9511C31.4863 18.1443 31.1008 17.753 31.1008 17.2811V13.9433C31.1008 13.4714 31.4863 13.0801 31.9511 13.0801H40.1598C40.6247 13.0801 41.0102 13.4714 41.0102 13.9433V17.2811C41.0102 17.753 40.636 18.1443 40.1598 18.1443ZM32.8015 16.4179H39.3095V14.8065H32.8015V16.4179Z" fill="#00ACAC"/>
<path d="M12.0075 36.6404H3.78742C3.32257 36.6404 2.93707 36.2491 2.93707 35.7772V32.4394C2.93707 31.9675 3.32257 31.5762 3.78742 31.5762H12.0075C12.4723 31.5762 12.8578 31.9675 12.8578 32.4394V35.7772C12.8578 36.2606 12.4723 36.6404 12.0075 36.6404ZM4.63778 34.914H11.1458V33.3026H4.63778V34.914Z" fill="#00ACAC"/>
<path d="M26.078 36.6404H17.8693C17.4044 36.6404 17.0189 36.2491 17.0189 35.7772V32.4394C17.0189 31.9675 17.4044 31.5762 17.8693 31.5762H26.078C26.5429 31.5762 26.9284 31.9675 26.9284 32.4394V35.7772C26.9284 36.2606 26.5542 36.6404 26.078 36.6404ZM18.7196 34.914H25.2276V33.3026H18.7196V34.914Z" fill="#00ACAC"/>
<path d="M40.1598 36.6404H31.9511C31.4863 36.6404 31.1008 36.2491 31.1008 35.7772V32.4394C31.1008 31.9675 31.4863 31.5762 31.9511 31.5762H40.1598C40.6247 31.5762 41.0102 31.9675 41.0102 32.4394V35.7772C41.0102 36.2606 40.636 36.6404 40.1598 36.6404ZM32.8015 34.914H39.3095V33.3026H32.8015V34.914Z" fill="#00ACAC"/>
<path d="M21.985 11.6413C20.3523 11.6413 18.8897 10.64 18.2661 9.12071C17.6425 7.58993 17.9827 5.82896 19.1392 4.66649C20.2956 3.4925 22.019 3.14721 23.527 3.78024C25.0349 4.41327 26.01 5.90953 26.01 7.5554C26.01 9.81129 24.2072 11.6413 21.985 11.6413ZM21.985 5.19593C21.0439 5.19593 20.1936 5.77141 19.8308 6.65765C19.468 7.54389 19.672 8.55674 20.3296 9.23581C20.9986 9.91488 21.9963 10.1105 22.8694 9.74223C23.7424 9.37392 24.3093 8.5107 24.3093 7.5554C24.3093 6.25481 23.2662 5.19593 21.985 5.19593Z" fill="#00ACAC"/>
</g>
<defs>
<clipPath id="clip0_1192_842">
<rect width="43.538" height="41.8951" fill="white" transform="translate(0.215942 0.304688)"/>
</clipPath>
</defs>
</svg>
