<svg width="44" height="30" viewBox="0 0 44 30" fill="none" xmlns="http://www.w3.org/2000/svg">
<g clip-path="url(#clip0_1192_237)">
<mask id="mask0_1192_237" style="mask-type:luminance" maskUnits="userSpaceOnUse" x="0" y="0" width="44" height="30">
<path d="M43.5755 0.294434H0.0374756V29.8674H43.5755V0.294434Z" fill="white"/>
</mask>
<g mask="url(#mask0_1192_237)">
<path d="M32.4901 29.8673C31.5797 29.8673 30.83 29.1186 30.83 28.2095V9.86678C30.83 8.95767 31.5797 8.20898 32.4901 8.20898C33.4005 8.20898 34.1502 8.95767 34.1502 9.86678V28.2095C34.1502 29.1186 33.4005 29.8673 32.4901 29.8673Z" fill="#00ACAC"/>
</g>
<mask id="mask1_1192_237" style="mask-type:luminance" maskUnits="userSpaceOnUse" x="0" y="0" width="44" height="30">
<path d="M43.5755 0.294434H0.0374756V29.8674H43.5755V0.294434Z" fill="white"/>
</mask>
<g mask="url(#mask1_1192_237)">
<path d="M21.4048 19.2257C21.4048 18.3166 22.1545 17.5679 23.0649 17.5679H41.8618C42.7721 17.5679 43.5219 18.3166 43.5219 19.2257C43.5219 20.1348 42.7721 20.8835 41.8618 20.8835H23.0649C22.1545 20.8835 21.4048 20.1348 21.4048 19.2257Z" fill="#00ACAC"/>
</g>
<mask id="mask2_1192_237" style="mask-type:luminance" maskUnits="userSpaceOnUse" x="0" y="0" width="44" height="30">
<path d="M43.5755 0.294434H0.0374756V29.8674H43.5755V0.294434Z" fill="white"/>
</mask>
<g mask="url(#mask2_1192_237)">
<path d="M0.0374756 19.1182C0.0374756 18.2091 0.787207 17.4604 1.6976 17.4604H16.2103C17.1207 17.4604 17.8704 18.2091 17.8704 19.1182C17.8704 20.0274 17.1207 20.776 16.2103 20.776H1.6976C0.787207 20.8295 0.0374756 20.0808 0.0374756 19.1182Z" fill="#00ACAC"/>
</g>
<mask id="mask3_1192_237" style="mask-type:luminance" maskUnits="userSpaceOnUse" x="0" y="0" width="44" height="30">
<path d="M43.5755 0.294434H0.0374756V29.8674H43.5755V0.294434Z" fill="white"/>
</mask>
<g mask="url(#mask3_1192_237)">
<path d="M0.0374756 10.669C0.0374756 9.75991 0.787207 9.01123 1.6976 9.01123H24.6715C25.5819 9.01123 26.3316 9.75991 26.3316 10.669C26.3316 11.5781 25.5819 12.3268 24.6715 12.3268H1.6976C0.787207 12.3268 0.0374756 11.5781 0.0374756 10.669Z" fill="#00ACAC"/>
</g>
<mask id="mask4_1192_237" style="mask-type:luminance" maskUnits="userSpaceOnUse" x="0" y="0" width="44" height="30">
<path d="M43.5755 0.294434H0.0374756V29.8674H43.5755V0.294434Z" fill="white"/>
</mask>
<g mask="url(#mask4_1192_237)">
<path d="M0.0374756 1.95223C0.0374756 1.04312 0.787207 0.294434 1.6976 0.294434H24.6715C25.5819 0.294434 26.3316 1.04312 26.3316 1.95223C26.3316 2.86135 25.5819 3.61003 24.6715 3.61003H1.6976C0.787207 3.61003 0.0374756 2.91482 0.0374756 1.95223Z" fill="#00ACAC"/>
</g>
</g>
<defs>
<clipPath id="clip0_1192_237">
<rect width="43.538" height="29.573" fill="white" transform="translate(0.0374756 0.294434)"/>
</clipPath>
</defs>
</svg>
