<svg width="45" height="30" viewBox="0 0 45 30" fill="none" xmlns="http://www.w3.org/2000/svg">
<g clip-path="url(#clip0_1186_1309)">
<mask id="mask0_1186_1309" style="mask-type:luminance" maskUnits="userSpaceOnUse" x="0" y="0" width="45" height="31">
<path d="M44.3605 0.429688H0.82251V30.0027H44.3605V0.429688Z" fill="white"/>
</mask>
<g mask="url(#mask0_1186_1309)">
<path d="M33.2751 30.0026C32.3647 30.0026 31.615 29.2539 31.615 28.3448V10.002C31.615 9.09292 32.3647 8.34424 33.2751 8.34424C34.1855 8.34424 34.9352 9.09292 34.9352 10.002V28.3448C34.9352 29.2539 34.1855 30.0026 33.2751 30.0026Z" fill="#F3F4F4"/>
</g>
<mask id="mask1_1186_1309" style="mask-type:luminance" maskUnits="userSpaceOnUse" x="0" y="0" width="45" height="31">
<path d="M44.3605 0.429688H0.82251V30.0027H44.3605V0.429688Z" fill="white"/>
</mask>
<g mask="url(#mask1_1186_1309)">
<path d="M22.1898 19.3609C22.1898 18.4518 22.9396 17.7031 23.8499 17.7031H42.6468C43.5572 17.7031 44.3069 18.4518 44.3069 19.3609C44.3069 20.27 43.5572 21.0187 42.6468 21.0187H23.8499C22.9396 21.0187 22.1898 20.27 22.1898 19.3609Z" fill="#F3F4F4"/>
</g>
<mask id="mask2_1186_1309" style="mask-type:luminance" maskUnits="userSpaceOnUse" x="0" y="0" width="45" height="31">
<path d="M44.3605 0.429688H0.82251V30.0027H44.3605V0.429688Z" fill="white"/>
</mask>
<g mask="url(#mask2_1186_1309)">
<path d="M0.822449 19.2535C0.822449 18.3444 1.57218 17.5957 2.48257 17.5957H16.9952C17.9056 17.5957 18.6554 18.3444 18.6554 19.2535C18.6554 20.1626 17.9056 20.9113 16.9952 20.9113H2.48257C1.57218 20.9648 0.822449 20.2161 0.822449 19.2535Z" fill="#F3F4F4"/>
</g>
<mask id="mask3_1186_1309" style="mask-type:luminance" maskUnits="userSpaceOnUse" x="0" y="0" width="45" height="31">
<path d="M44.3605 0.429688H0.82251V30.0027H44.3605V0.429688Z" fill="white"/>
</mask>
<g mask="url(#mask3_1186_1309)">
<path d="M0.822449 10.8043C0.822449 9.89517 1.57218 9.14648 2.48257 9.14648H25.4565C26.3669 9.14648 27.1166 9.89517 27.1166 10.8043C27.1166 11.7134 26.3669 12.4621 25.4565 12.4621H2.48257C1.57218 12.4621 0.822449 11.7134 0.822449 10.8043Z" fill="#F3F4F4"/>
</g>
<mask id="mask4_1186_1309" style="mask-type:luminance" maskUnits="userSpaceOnUse" x="0" y="0" width="45" height="31">
<path d="M44.3605 0.429688H0.82251V30.0027H44.3605V0.429688Z" fill="white"/>
</mask>
<g mask="url(#mask4_1186_1309)">
<path d="M0.82251 2.08749C0.82251 1.17837 1.57224 0.429688 2.48263 0.429688H25.4566C26.3669 0.429688 27.1167 1.17837 27.1167 2.08749C27.1167 2.9966 26.3669 3.74528 25.4566 3.74528H2.48263C1.57224 3.74528 0.82251 3.05008 0.82251 2.08749Z" fill="#F3F4F4"/>
</g>
</g>
<defs>
<clipPath id="clip0_1186_1309">
<rect width="43.538" height="29.573" fill="white" transform="translate(0.82251 0.429688)"/>
</clipPath>
</defs>
</svg>
