<svg width="43" height="35" viewBox="0 0 43 35" fill="none" xmlns="http://www.w3.org/2000/svg">
<path d="M38.2077 0.728516H4.11921C1.97241 0.728516 0.215942 2.50174 0.215942 4.66902V30.4684C0.215942 32.6356 1.97241 34.4089 4.11921 34.4089H38.2077C40.3545 34.4089 42.111 32.6356 42.111 30.4684V4.66902C42.111 2.50174 40.3545 0.728516 38.2077 0.728516ZM39.5088 30.4684C39.5088 31.1908 38.9233 31.7819 38.2077 31.7819H4.11921C3.40361 31.7819 2.81812 31.1908 2.81812 30.4684V4.66902C2.81812 3.94659 3.40361 3.35552 4.11921 3.35552H38.2077C38.9233 3.35552 39.5088 3.94659 39.5088 4.66902V30.4684Z" fill="#00ACAC"/>
<path d="M10.1368 11.1926H9.12846C8.42371 11.1926 7.84906 10.6125 7.84906 9.90098C7.84906 9.1895 8.42371 8.60938 9.12846 8.60938H10.1368C10.8416 8.60938 11.4162 9.1895 11.4162 9.90098C11.4162 10.6125 10.8416 11.1926 10.1368 11.1926Z" fill="#00ACAC"/>
<path d="M10.1368 19.5442H9.12846C8.42371 19.5442 7.84906 18.964 7.84906 18.2525C7.84906 17.5411 8.42371 16.9609 9.12846 16.9609H10.1368C10.8416 16.9609 11.4162 17.5411 11.4162 18.2525C11.4162 18.964 10.8416 19.5442 10.1368 19.5442Z" fill="#00ACAC"/>
<path d="M10.1368 27.8957H9.12846C8.42371 27.8957 7.84906 27.3156 7.84906 26.6041C7.84906 25.8926 8.42371 25.3125 9.12846 25.3125H10.1368C10.8416 25.3125 11.4162 25.8926 11.4162 26.6041C11.4162 27.3156 10.8416 27.8957 10.1368 27.8957Z" fill="#00ACAC"/>
<path d="M33.1986 11.1926H18.2361C17.5313 11.1926 16.9567 10.6125 16.9567 9.90098C16.9567 9.1895 17.5313 8.60938 18.2361 8.60938H33.1986C33.9033 8.60938 34.478 9.1895 34.478 9.90098C34.478 10.6125 33.9033 11.1926 33.1986 11.1926Z" fill="#00ACAC"/>
<path d="M33.1986 19.5442H18.2361C17.5313 19.5442 16.9567 18.964 16.9567 18.2525C16.9567 17.5411 17.5313 16.9609 18.2361 16.9609H33.1986C33.9033 16.9609 34.478 17.5411 34.478 18.2525C34.478 18.964 33.9033 19.5442 33.1986 19.5442Z" fill="#00ACAC"/>
<path d="M33.1986 27.8957H18.2361C17.5313 27.8957 16.9567 27.3156 16.9567 26.6041C16.9567 25.8926 17.5313 25.3125 18.2361 25.3125H33.1986C33.9033 25.3125 34.478 25.8926 34.478 26.6041C34.478 27.3156 33.9033 27.8957 33.1986 27.8957Z" fill="#00ACAC"/>
</svg>
