<svg width="42" height="35" viewBox="0 0 42 35" fill="none" xmlns="http://www.w3.org/2000/svg">
<path d="M37.9929 0.715332H3.90436C1.75757 0.715332 0.00109863 2.48856 0.00109863 4.65583V30.4552C0.00109863 32.6224 1.75757 34.3957 3.90436 34.3957H37.9929C40.1397 34.3957 41.8962 32.6224 41.8962 30.4552V4.65583C41.8962 2.48856 40.1397 0.715332 37.9929 0.715332ZM39.294 30.4552C39.294 31.1776 38.7085 31.7687 37.9929 31.7687H3.90436C3.18877 31.7687 2.60328 31.1776 2.60328 30.4552V4.65583C2.60328 3.93341 3.18877 3.34233 3.90436 3.34233H37.9929C38.7085 3.34233 39.294 3.93341 39.294 4.65583V30.4552Z" fill="#F3F4F4"/>
<path d="M9.92196 11.1794H8.91362C8.20886 11.1794 7.63422 10.5993 7.63422 9.8878C7.63422 9.17632 8.20886 8.59619 8.91362 8.59619H9.92196C10.6267 8.59619 11.2014 9.17632 11.2014 9.8878C11.2014 10.5993 10.6267 11.1794 9.92196 11.1794Z" fill="#F3F4F4"/>
<path d="M9.92196 19.531H8.91362C8.20886 19.531 7.63422 18.9508 7.63422 18.2394C7.63422 17.5279 8.20886 16.9478 8.91362 16.9478H9.92196C10.6267 16.9478 11.2014 17.5279 11.2014 18.2394C11.2014 18.9508 10.6267 19.531 9.92196 19.531Z" fill="#F3F4F4"/>
<path d="M9.92196 27.883H8.91362C8.20886 27.883 7.63422 27.3029 7.63422 26.5914C7.63422 25.8799 8.20886 25.2998 8.91362 25.2998H9.92196C10.6267 25.2998 11.2014 25.8799 11.2014 26.5914C11.2014 27.3029 10.6267 27.883 9.92196 27.883Z" fill="#F3F4F4"/>
<path d="M32.9837 11.1794H18.0212C17.3165 11.1794 16.7418 10.5993 16.7418 9.8878C16.7418 9.17632 17.3165 8.59619 18.0212 8.59619H32.9837C33.6885 8.59619 34.2632 9.17632 34.2632 9.8878C34.2632 10.5993 33.6885 11.1794 32.9837 11.1794Z" fill="#F3F4F4"/>
<path d="M32.9837 19.531H18.0212C17.3165 19.531 16.7418 18.9508 16.7418 18.2394C16.7418 17.5279 17.3165 16.9478 18.0212 16.9478H32.9837C33.6885 16.9478 34.2632 17.5279 34.2632 18.2394C34.2632 18.9508 33.6885 19.531 32.9837 19.531Z" fill="#F3F4F4"/>
<path d="M32.9837 27.883H18.0212C17.3165 27.883 16.7418 27.3029 16.7418 26.5914C16.7418 25.8799 17.3165 25.2998 18.0212 25.2998H32.9837C33.6885 25.2998 34.2632 25.8799 34.2632 26.5914C34.2632 27.3029 33.6885 27.883 32.9837 27.883Z" fill="#F3F4F4"/>
</svg>
