<svg width="28" height="34" viewBox="0 0 28 34" fill="none" xmlns="http://www.w3.org/2000/svg">
<mask id="mask0_799_3923" style="mask-type:luminance" maskUnits="userSpaceOnUse" x="0" y="0" width="28" height="34">
<path d="M28 0.399902H0V33.9999H28V0.399902Z" fill="white"/>
</mask>
<g mask="url(#mask0_799_3923)">
<path d="M13.791 16.5847C16.0117 16.5847 17.9374 15.789 19.5107 14.214C21.084 12.639 21.8788 10.7194 21.8788 8.48818C21.8788 6.26514 21.084 4.3374 19.5107 2.7624C17.9374 1.19561 16.0117 0.399902 13.791 0.399902C11.5704 0.399902 9.64472 1.19561 8.07141 2.77061C6.4981 4.34561 5.70325 6.26514 5.70325 8.48818C5.70325 10.7112 6.4981 12.639 8.07141 14.214C9.64472 15.789 11.5704 16.5847 13.791 16.5847ZM9.46444 4.16514C10.669 2.95928 12.0866 2.36865 13.791 2.36865C15.4955 2.36865 16.9131 2.95928 18.1176 4.16514C19.3222 5.371 19.9122 6.79014 19.9122 8.49639C19.9122 10.2026 19.3222 11.6218 18.1176 12.8276C16.9131 14.0335 15.4955 14.6241 13.791 14.6241C12.0866 14.6241 10.669 14.0335 9.46444 12.8276C8.25988 11.6218 7.66988 10.2026 7.66988 8.49639C7.66988 6.79014 8.25988 5.371 9.46444 4.16514Z" fill="#F3F4F4"/>
</g>
<mask id="mask1_799_3923" style="mask-type:luminance" maskUnits="userSpaceOnUse" x="0" y="0" width="28" height="34">
<path d="M28 0.399902H0V33.9999H28V0.399902Z" fill="white"/>
</mask>
<g mask="url(#mask1_799_3923)">
<path d="M27.9344 26.24C27.8853 25.5838 27.7951 24.8701 27.664 24.1154C27.5247 23.3525 27.3526 22.6389 27.1396 21.9826C26.9183 21.3018 26.6315 20.6373 26.2628 19.9893C25.8859 19.3248 25.4434 18.7424 24.9435 18.2666C24.4191 17.7662 23.7799 17.3643 23.0424 17.0689C22.3049 16.7736 21.4937 16.626 20.6169 16.626C20.2728 16.626 19.945 16.7654 19.3058 17.1838C18.9125 17.4381 18.4536 17.7416 17.9374 18.0697C17.4949 18.3486 16.9049 18.6111 16.1674 18.849C15.4463 19.0787 14.717 19.2018 14.0041 19.2018C13.283 19.2018 12.5537 19.0869 11.8408 18.849C11.1033 18.6111 10.5133 18.3486 10.0708 18.0697C9.56277 17.7416 9.10389 17.4463 8.70237 17.1838C8.06321 16.7654 7.73544 16.626 7.39128 16.626C6.51449 16.626 5.70325 16.7736 4.96576 17.0689C4.22827 17.3643 3.58911 17.7662 3.06468 18.2666C2.56482 18.7424 2.12233 19.3248 1.74539 19.9893C1.38484 20.6291 1.08984 21.3018 0.868598 21.9826C0.655546 22.6389 0.483465 23.3607 0.344161 24.1154C0.204858 24.8701 0.114721 25.5838 0.0655546 26.24C0.024583 26.8799 0 27.5525 0 28.2252C0 29.9807 0.557214 31.3998 1.65525 32.4498C2.7369 33.4834 4.1791 34.0084 5.92449 34.0084H22.0837C23.8291 34.0084 25.2631 33.4834 26.3529 32.4498C27.451 31.3998 28.0082 29.9807 28.0082 28.2252C28 27.5443 27.9754 26.8799 27.9344 26.24ZM24.9927 31.0143C24.2798 31.6951 23.321 32.0314 22.0837 32.0314H5.92449C4.68715 32.0314 3.72842 31.7033 3.01551 31.0143C2.3108 30.3416 1.96664 29.4311 1.96664 28.217C1.96664 27.5854 1.99122 26.9619 2.03219 26.3713C2.07316 25.7889 2.15511 25.1408 2.27802 24.46C2.40094 23.7873 2.55663 23.1475 2.7369 22.5814C2.90898 22.0318 3.15481 21.4904 3.44981 20.9654C3.73661 20.465 4.06438 20.0385 4.42493 19.6939C4.7609 19.374 5.18701 19.1033 5.68686 18.9064C6.15394 18.726 6.67018 18.6193 7.23559 18.6111C7.30114 18.6439 7.42406 18.7178 7.62891 18.849C8.03043 19.1115 8.49751 19.415 9.01375 19.7432C9.59555 20.1123 10.3412 20.4486 11.2344 20.7357C12.1522 21.0311 13.0781 21.1787 14.0041 21.1787C14.9301 21.1787 15.8642 21.0311 16.7738 20.7357C17.667 20.4486 18.4126 20.1123 18.9944 19.7432C19.5189 19.4068 19.9778 19.1115 20.3793 18.849C20.5759 18.7178 20.6989 18.6521 20.7726 18.6111C21.338 18.6275 21.8624 18.726 22.3213 18.9064C22.8212 19.1033 23.2473 19.3658 23.5833 19.6939C23.9438 20.0385 24.2716 20.465 24.5584 20.9654C24.8534 21.4904 25.0992 22.0318 25.2713 22.5814C25.4516 23.1557 25.6073 23.7873 25.7302 24.46C25.8531 25.1408 25.935 25.7889 25.976 26.3713C26.017 26.9619 26.0416 27.5854 26.0416 28.217C26.0334 29.4311 25.6974 30.3498 24.9927 31.0143Z" fill="#F3F4F4"/>
</g>
</svg>
