<svg width="30" height="35" viewBox="0 0 30 35" fill="none" xmlns="http://www.w3.org/2000/svg">
<g clip-path="url(#clip0_1192_1725)">
<mask id="mask0_1192_1725" style="mask-type:luminance" maskUnits="userSpaceOnUse" x="0" y="0" width="30" height="35">
<path d="M29.5392 0.0966797H0.78772V34.5985H29.5392V0.0966797Z" fill="white"/>
</mask>
<g mask="url(#mask0_1192_1725)">
<path d="M14.9489 16.7158C17.2292 16.7158 19.2065 15.8988 20.8221 14.2815C22.4376 12.6642 23.2538 10.6932 23.2538 8.40205C23.2538 6.11933 22.4376 4.13986 20.8221 2.52259C19.2065 0.913739 17.2292 0.0966797 14.9489 0.0966797C12.6686 0.0966797 10.6913 0.913739 9.07576 2.53101C7.46023 4.14828 6.64404 6.11933 6.64404 8.40205C6.64404 10.6848 7.46023 12.6642 9.07576 14.2815C10.6913 15.8988 12.6686 16.7158 14.9489 16.7158ZM10.5062 3.96297C11.7431 2.72475 13.1987 2.11827 14.9489 2.11827C16.6991 2.11827 18.1547 2.72475 19.3916 3.96297C20.6285 5.2012 21.2344 6.65842 21.2344 8.41047C21.2344 10.1625 20.6285 11.6197 19.3916 12.858C18.1547 14.0962 16.6991 14.7027 14.9489 14.7027C13.1987 14.7027 11.7431 14.0962 10.5062 12.858C9.26929 11.6197 8.66346 10.1625 8.66346 8.41047C8.66346 6.65842 9.26929 5.2012 10.5062 3.96297Z" fill="#00ACAC"/>
</g>
<mask id="mask1_1192_1725" style="mask-type:luminance" maskUnits="userSpaceOnUse" x="0" y="0" width="30" height="35">
<path d="M29.5392 0.0966797H0.78772V34.5985H29.5392V0.0966797Z" fill="white"/>
</mask>
<g mask="url(#mask1_1192_1725)">
<path d="M29.4719 26.6299C29.4214 25.956 29.3289 25.2232 29.1942 24.4483C29.0512 23.6649 28.8745 22.9321 28.6557 22.2582C28.4285 21.5591 28.134 20.8768 27.7554 20.2114C27.3683 19.5291 26.914 18.931 26.4007 18.4425C25.8622 17.9287 25.2059 17.5159 24.4486 17.2127C23.6913 16.9094 22.8583 16.7578 21.958 16.7578C21.6046 16.7578 21.268 16.901 20.6117 17.3306C20.2078 17.5917 19.7366 17.9034 19.2065 18.2403C18.7522 18.5267 18.1463 18.7962 17.389 19.0405C16.6486 19.2764 15.8997 19.4027 15.1677 19.4027C14.4272 19.4027 13.6784 19.2848 12.9463 19.0405C12.189 18.7962 11.5832 18.5267 11.1288 18.2403C10.6072 17.9034 10.136 17.6001 9.72366 17.3306C9.06734 16.901 8.73077 16.7578 8.37738 16.7578C7.47705 16.7578 6.64404 16.9094 5.88676 17.2127C5.12947 17.5159 4.47316 17.9287 3.93465 18.4425C3.42138 18.931 2.96701 19.5291 2.57996 20.2114C2.20973 20.8684 1.90682 21.5591 1.67963 22.2582C1.46086 22.9321 1.28416 23.6733 1.14112 24.4483C0.998076 25.2232 0.905519 25.956 0.855034 26.6299C0.812962 27.2869 0.78772 27.9776 0.78772 28.6684C0.78772 30.4709 1.35989 31.9282 2.4874 33.0063C3.59808 34.0677 5.07899 34.6068 6.87123 34.6068H23.4641C25.2564 34.6068 26.7289 34.0677 27.848 33.0063C28.9755 31.9282 29.5476 30.4709 29.5476 28.6684C29.5392 27.9692 29.514 27.2869 29.4719 26.6299ZM26.4512 31.5323C25.7192 32.2314 24.7347 32.5768 23.4641 32.5768H6.87123C5.60067 32.5768 4.6162 32.2398 3.88417 31.5323C3.16054 30.8416 2.80714 29.9066 2.80714 28.6599C2.80714 28.0113 2.83238 27.3712 2.87445 26.7647C2.91653 26.1666 3.00067 25.5012 3.12688 24.8021C3.2531 24.1113 3.41297 23.4543 3.59808 22.8731C3.77478 22.3088 4.02721 21.7528 4.33012 21.2137C4.62462 20.6999 4.96119 20.2619 5.33142 19.9081C5.6764 19.5796 6.11394 19.3016 6.62721 19.0995C7.10682 18.9142 7.63692 18.8047 8.21751 18.7962C8.28482 18.8299 8.41103 18.9058 8.62139 19.0405C9.03369 19.3101 9.5133 19.6217 10.0434 19.9587C10.6408 20.3377 11.4065 20.6831 12.3237 20.9779C13.2661 21.2811 14.2169 21.4327 15.1677 21.4327C16.1185 21.4327 17.0777 21.2811 18.0117 20.9779C18.9289 20.6831 19.6945 20.3377 20.292 19.9587C20.8305 19.6133 21.3017 19.3101 21.714 19.0405C21.9159 18.9058 22.0421 18.8384 22.1179 18.7962C22.6984 18.8131 23.2369 18.9142 23.7081 19.0995C24.2214 19.3016 24.659 19.5712 25.0039 19.9081C25.3742 20.2619 25.7107 20.6999 26.0052 21.2137C26.3082 21.7528 26.5606 22.3088 26.7373 22.8731C26.9224 23.4628 27.0823 24.1113 27.2085 24.8021C27.3347 25.5012 27.4188 26.1666 27.4609 26.7647C27.503 27.3712 27.5282 28.0113 27.5282 28.6599C27.5198 29.9066 27.1748 30.85 26.4512 31.5323Z" fill="#00ACAC"/>
</g>
</g>
<defs>
<clipPath id="clip0_1192_1725">
<rect width="28.7515" height="34.5018" fill="white" transform="translate(0.78772 0.0966797)"/>
</clipPath>
</defs>
</svg>
